<svg version="1.1" xmlns="http://www.w3.org/2000/svg" xmlns:xlink="http://www.w3.org/1999/xlink" width="800" height="800"><defs/><g transform="scale(2,2)"><g id="background-750afe42"><rect fill="white" stroke="none" x="0" y="0" width="400" height="400" class="dcg-svg-background"/></g><g id="graphpaper-750afe42"><g id="axis-750afe42"><g id="yaxis-750afe42"><title>Y axis</title><g><path fill="none" stroke="rgb(0,0,0)" class="dcg-svg-axis-line" paint-order="fill stroke markers" d=" M 0 0 L 0 400" stroke-opacity="0.9" stroke-miterlimit="10" stroke-width="2" stroke-dasharray=""/></g></g><g id="xaxis-750afe42"><title>X axis</title><g><path fill="none" stroke="rgb(0,0,0)" class="dcg-svg-axis-line" paint-order="fill stroke markers" d=" M 0 400 L 400 400" stroke-opacity="0.9" stroke-miterlimit="10" stroke-width="2" stroke-dasharray=""/></g></g><g><g><path fill="none" stroke="rgb(0,0,0)" class="dcg-svg-tickmark" paint-order="fill stroke markers" d="" stroke-opacity="0.9" stroke-miterlimit="2" stroke-width="2" stroke-dasharray=""/></g></g></g></g><g id="expressions-750afe42"><g id="sketch-750afe42"><title>Expression 1</title><path fill="#000000" stroke="none" paint-order="stroke fill markers" d="" fill-opacity="0.4"/><g><path fill="none" stroke="#000000" class="dcg-svg-curve" paint-order="fill stroke markers" d=" M 127.32395447351627 373.82031026371385 L 127.32395447351627 373.82031026371385 L 133.08477756702658 370.5378084611417 L 138.74795959115536 366.9982545295265 L 144.31350054590263 363.19615578660176 L 149.78140043126837 359.12731798349705 L 155.15165924725258 354.78895221631217 L 160.52191806323677 350.09102393316476 L 165.89217687922095 345.0129388960187 L 171.26243569520514 339.53399879119183 L 176.63269451118936 333.63358250517456 L 182.00295332717357 327.29135996763364 L 187.47085321253928 320.3594444825884 L 192.938753097905 312.92900083681434 L 198.40665298327076 304.98129479968503 L 203.77691179925495 296.6555208255654 L 209.14717061523913 287.80023590356745 L 214.51742943122338 278.4038647404275 L 219.88768824720754 268.45794358970477 L 225.25794706319175 257.95777403464376 L 230.72584694855746 246.69705845788485 L 236.29138790330472 234.65069260499862 L 241.95456992743354 221.80102537137577 L 247.8130340903254 207.90409020518246 L 253.9644214613618 192.69155096784561 L 254.5335974039847 191.2537465782022" stroke-linecap="round" stroke-linejoin="round" stroke-miterlimit="10" stroke-width="3.5" stroke-dasharray=""/></g><path fill="#000000" stroke="none" paint-order="stroke fill markers" d="" fill-opacity="0.4"/><g><path fill="none" stroke="#000000" class="dcg-svg-curve" paint-order="fill stroke markers" d=" M 127.32395447351627 373.81052631578945 L 127.32395447351627 373.81052631578945 L 135.13524002403872 358.2307390290624 L 142.84888450517968 343.40680125829266 L 150.56252898632061 329.14043671790034 L 158.17853239808005 315.601690137497 L 165.79453580983943 302.6064903498537 L 173.31289815221734 290.3110343276988 L 180.8312604945952 278.54527734142084 L 188.34962283697305 267.3092193910196 L 195.86798517935094 256.60286047649515 L 203.2887064523473 246.55497007791035 L 210.70942772534366 237.02310963905308 L 217.93486685957694 228.2379266695852 L 224.96502385504715 220.15975404656388 L 231.79989871175434 212.74999673144995 L 238.53713249907992 205.8745248221611 L 245.0790841476425 199.60537666572242 L 251.52339472682354 193.82191275546683 L 254.5335974039847 191.25374657820217" stroke-linecap="round" stroke-linejoin="round" stroke-miterlimit="10" stroke-width="3.5" stroke-dasharray=""/></g><path fill="#000000" stroke="none" class="dcg-svg-region" paint-order="stroke fill markers" d=" M 127.32395447351627 373.82031026371385 L 133.08477756702658 370.5378084611417 L 138.74795959115536 366.9982545295265 L 144.31350054590263 363.19615578660176 L 149.78140043126837 359.12731798349705 L 155.15165924725258 354.78895221631217 L 160.52191806323677 350.09102393316476 L 165.89217687922095 345.0129388960187 L 171.26243569520514 339.53399879119183 L 176.63269451118936 333.63358250517456 L 182.00295332717357 327.29135996763364 L 187.47085321253928 320.3594444825884 L 192.938753097905 312.92900083681434 L 198.40665298327076 304.98129479968503 L 203.77691179925495 296.6555208255654 L 209.14717061523913 287.80023590356745 L 214.51742943122338 278.4038647404275 L 219.88768824720754 268.45794358970477 L 225.25794706319175 257.95777403464376 L 230.72584694855746 246.69705845788485 L 236.29138790330472 234.65069260499862 L 241.95456992743354 221.80102537137577 L 247.8130340903254 207.90409020518246 L 253.9644214613618 192.69155096784561 L 254.5335974039847 191.2537465782022 L 254.5335974039847 191.25374657820217 L 251.52339472682354 193.82191275546683 L 245.0790841476425 199.60537666572242 L 238.53713249907992 205.8745248221611 L 231.79989871175434 212.74999673144995 L 224.96502385504715 220.15975404656388 L 217.93486685957694 228.2379266695852 L 210.70942772534366 237.02310963905308 L 203.2887064523473 246.55497007791035 L 195.86798517935094 256.60286047649515 L 188.34962283697305 267.3092193910196 L 180.8312604945952 278.54527734142084 L 173.31289815221734 290.3110343276988 L 165.79453580983943 302.6064903498537 L 158.17853239808005 315.601690137497 L 150.56252898632061 329.14043671790034 L 142.84888450517968 343.40680125829266 L 135.13524002403872 358.2307390290624 L 127.32395447351627 373.81052631578945 L 127.32395447351627 373.82031026371385" fill-opacity="0.15"/></g><g id="sketch-750afe42"><title>Expression 2</title><path fill="#000000" stroke="none" paint-order="stroke fill markers" d="" fill-opacity="0.4"/><g><path fill="none" stroke="#000000" class="dcg-svg-curve" paint-order="fill stroke markers" d=" M 254.53359740398471 191.25374657820223 L 254.53359740398471 191.25374657820223 L 260.7016552486875 186.25669765516204 L 266.8530426197239 181.62822670266692 L 272.8091478519973 177.4845766039171 L 278.66761201488913 173.73316072748014 L 284.42843510839947 170.35789780729812 L 290.18925820190975 167.29362870460432 L 295.85244022603854 164.58442823155596 L 301.41798118078583 162.2147511642972 L 306.88588106615157 160.16932030007263 L 312.3537809515173 158.40406082672507 L 317.72403976750144 156.94303531420672 L 323.0942985834857 155.7522644118293 L 328.46455739946987 154.83174811959324 L 333.7371751460725 154.19089718726408 L 339.00979289267525 153.8105627650744 L 344.2824106392779 153.69074485302423 L 349.55502838588046 153.83144345111347 L 354.82764613248327 154.23265855934204 L 360.1002638790859 154.89439017771014 L 365.3728816256886 155.81663830621767 L 370.7431404416728 157.0237628538205 L 376.11339925765697 158.5011420115646 L 381.48365807364115 160.2487757794501 L 381.9718634205488 160.42105263157887" stroke-linecap="round" stroke-linejoin="round" stroke-miterlimit="10" stroke-width="3.5" stroke-dasharray=""/></g><path fill="#000000" stroke="none" paint-order="stroke fill markers" d="" fill-opacity="0.4"/><g><path fill="none" stroke="#000000" class="dcg-svg-curve" paint-order="fill stroke markers" d=" M 254.53359740398471 191.25374657820214 L 254.53359740398471 191.25374657820214 L 261.09221952621357 174.34804488305508 L 268.5129407992099 154.56672142996277 L 277.98412452921843 128.61736531836738 L 295.85244022603854 79.52977099452005 L 301.9061865276935 63.651510671063136 L 306.88588106615157 51.217566364323034 L 311.1820881189389 41.108963577602196 L 314.9900898248186 32.750703724025584 L 318.4075272531722 25.82683146110702 L 321.53204147338124 20.05208867086293 L 324.46127355482713 15.18732496805876 L 327.19522349751 11.184628916563213 L 329.73389130142976 7.983051381843438 L 331.97963589720496 5.603765108990672 L 334.0300983542171 3.8336197009940065 L 335.88527867246626 2.586964814518126 L 337.54517685195225 1.7756330640401075 L 339.10743396205675 1.289369579972572 L 340.5720500027797 1.0903753388149653 L 342.03666604350263 1.1520818215515192 L 343.5012820842256 1.4867229338973402 L 344.9658981249485 2.1069238597467574 L 346.4305141656715 3.0257109378552514 L 347.99277127577614 4.3500069774299845 L 349.55502838588046 6.046159419883793 L 351.31256763474806 8.420499525831303 L 353.07010688361567 11.313146913787136 L 354.82764613248327 14.750691469208562 L 356.5851853813508 18.76069883421843 L 358.3427246302183 23.37173880045441 L 360.1002638790859 28.61341433022386 L 361.955444197335 34.8643571541441 L 363.810624515584 41.88952022934575 L 365.66580483383314 49.7276895237232 L 367.6186262214637 58.900951193250535 L 369.57144760909443 69.06832769364757 L 371.62191006610647 80.86934447926171 L 373.6723725231187 93.8829719031134 L 375.7228349801308 108.1724649137393 L 377.87093850652457 124.58253445324169 L 380.01904203291815 142.54370355746113 L 381.9718634205488 160.28684383462198" stroke-linecap="round" stroke-linejoin="round" stroke-miterlimit="10" stroke-width="3.5" stroke-dasharray=""/></g><path fill="#000000" stroke="none" class="dcg-svg-region" paint-order="stroke fill markers" d=" M 254.53359740398471 191.25374657820223 L 260.7016552486875 186.25669765516204 L 266.8530426197239 181.62822670266692 L 272.8091478519973 177.4845766039171 L 278.66761201488913 173.73316072748014 L 284.42843510839947 170.35789780729812 L 290.18925820190975 167.29362870460432 L 295.85244022603854 164.58442823155596 L 301.41798118078583 162.2147511642972 L 306.88588106615157 160.16932030007263 L 312.3537809515173 158.40406082672507 L 317.72403976750144 156.94303531420672 L 323.0942985834857 155.7522644118293 L 328.46455739946987 154.83174811959324 L 333.7371751460725 154.19089718726408 L 339.00979289267525 153.8105627650744 L 344.2824106392779 153.69074485302423 L 349.55502838588046 153.83144345111347 L 354.82764613248327 154.23265855934204 L 360.1002638790859 154.89439017771014 L 365.3728816256886 155.81663830621767 L 370.7431404416728 157.0237628538205 L 376.11339925765697 158.5011420115646 L 381.48365807364115 160.2487757794501 L 381.9718634205488 160.42105263157887 L 381.9718634205488 160.28684383462198 L 380.01904203291815 142.54370355746113 L 377.87093850652457 124.58253445324169 L 375.7228349801308 108.1724649137393 L 373.6723725231187 93.8829719031134 L 371.62191006610647 80.86934447926171 L 369.57144760909443 69.06832769364757 L 367.6186262214637 58.900951193250535 L 365.66580483383314 49.7276895237232 L 363.810624515584 41.88952022934575 L 361.955444197335 34.8643571541441 L 360.1002638790859 28.61341433022386 L 358.3427246302183 23.37173880045441 L 356.5851853813508 18.76069883421843 L 354.82764613248327 14.750691469208562 L 353.07010688361567 11.313146913787136 L 351.31256763474806 8.420499525831303 L 349.55502838588046 6.046159419883793 L 347.99277127577614 4.3500069774299845 L 346.4305141656715 3.0257109378552514 L 344.9658981249485 2.1069238597467574 L 343.5012820842256 1.4867229338973402 L 342.03666604350263 1.1520818215515192 L 340.5720500027797 1.0903753388149653 L 339.10743396205675 1.289369579972572 L 337.54517685195225 1.7756330640401075 L 335.88527867246626 2.586964814518126 L 334.0300983542171 3.8336197009940065 L 331.97963589720496 5.603765108990672 L 329.73389130142976 7.983051381843438 L 327.19522349751 11.184628916563213 L 324.46127355482713 15.18732496805876 L 321.53204147338124 20.05208867086293 L 318.4075272531722 25.82683146110702 L 314.9900898248186 32.750703724025584 L 311.1820881189389 41.108963577602196 L 306.88588106615157 51.217566364323034 L 301.9061865276935 63.651510671063136 L 295.85244022603854 79.52977099452005 L 277.98412452921843 128.61736531836738 L 268.5129407992099 154.56672142996277 L 261.09221952621357 174.34804488305508 L 254.53359740398471 191.25374657820214 L 254.53359740398471 191.25374657820223" fill-opacity="0.15"/></g><g id="sketch-750afe42"><title>Expression 3</title><path fill="#c74440" stroke="none" paint-order="stroke fill markers" d="" fill-opacity="0.4"/><g><path fill="none" stroke="#c74440" class="dcg-svg-curve" paint-order="fill stroke markers" d=" M 0 400 L 0 400 L 14.94140625 399.3766255204038 L 27.9296875 398.5791872868066 L 39.453125 397.6139474902802 L 49.8046875 396.4898482600181 L 59.27734375 395.20383323755647 L 68.06640625 393.75096069960256 L 76.26953125 392.13337279671424 L 83.984375 390.34852333958816 L 91.30859375 388.3868666827691 L 98.2421875 386.26152169950507 L 104.8828125 383.95456353584973 L 111.328125 381.4357373353187 L 117.48046875 378.7501029563763 L 123.4375 375.86484382485366 L 129.296875 372.73086597772743 L 134.9609375 369.4006114388853 L 140.52734374999997 365.81858697591775 L 145.99609375 361.98026848106895 L 151.46484375 357.8048012438248 L 156.8359375 353.3552051721055 L 162.20703125 348.5394947325875 L 167.578125 343.33701572147424 L 172.94921875 337.72706342784295 L 178.3203125 331.6890738795855 L 183.69140625 325.20284887914244 L 189.16015624999997 318.11793407465626 L 194.7265625 310.3881650868065 L 200.19531249999997 302.26623539005277 L 205.56640624999997 293.7641887314067 L 210.93749999999997 284.7282995547096 L 216.30859374999997 275.1479569299446 L 221.67968749999997 265.01587268463123 L 227.05078124999997 254.3287627467848 L 232.51953125 242.8786507540676 L 238.08593749999997 230.64264252451432 L 243.74999999999997 217.6059287029261 L 249.70703124999997 203.2855996885223 L 255.95703125 187.63668045896205 L 262.69531249999994 170.12813725362568 L 270.41015625 149.4191579251088 L 280.95703124999994 120.38584167370766 L 294.82421875 82.28869481672092 L 301.171875 65.53852727549105 L 306.24999999999994 52.76633649164495 L 310.54687499999994 42.56153744987756 L 314.35546874999994 34.09945090588536 L 317.87109375 26.87382510606909 L 320.99609375 21.00166134858921 L 323.92578124999994 16.033987117369975 L 326.66015624999994 11.924425926367462 L 329.19921875 8.613667266034042 L 331.54296874999994 6.031361609572173 L 333.59375 4.176706513170416 L 335.44921875 2.84848385693914 L 337.20703125 1.9167952124346925 L 338.76953125 1.371032350513417 L 340.33203125 1.1054449144143064 L 341.79687499999994 1.1236238779995347 L 343.26171875 1.4127922288358832 L 344.7265625 1.9855163090566066 L 346.19140625 2.8547622355108047 L 347.65624999999994 4.033905945939011 L 349.21874999999994 5.6487876833865585 L 350.87890624999994 7.787486080477265 L 352.63671875 10.550281201000985 L 354.39453125 13.851494590686684 L 356.15234375 17.718461491667426 L 357.91015624999994 22.179514860877987 L 359.66796875 27.264014258190628 L 361.5234375 33.3409727223887 L 363.37890625 40.18355972081338 L 365.234375 47.83025013836652 L 367.1875 56.79198528774617 L 369.14062499999994 66.737232123681 L 371.19140625 78.29316845645815 L 373.2421875 91.04911824305412 L 375.29296875 105.06785077078632 L 377.44140625 121.17968896966795 L 379.58984375 138.82712612826515 L 381.73828125 158.09139808102424 L 383.984375 180.0518513101922 L 386.23046875 203.97243759661131 L 388.57421874999994 231.1362196888291 L 390.91796875 260.67242427173096 L 393.26171875 292.71040510638437 L 395.703125 328.8890497172709 L 398.14453124999994 368.0876005658948 L 400 400" stroke-linecap="round" stroke-linejoin="round" stroke-miterlimit="10" stroke-width="3.5" stroke-dasharray=""/></g></g><g id="sketch-750afe42"><title>"y" equals "f" ( "x" )</title></g><g id="sketch-750afe42"><title>Expression 5</title><path fill="#2d70b3" stroke="none" paint-order="stroke fill markers" d="" fill-opacity="0.4"/><g><path fill="none" stroke="#2d70b3" class="dcg-svg-curve" paint-order="fill stroke markers" d=" M 127.32395447351627 373.81052631578945 L 127.32395447351627 373.81052631578945 L 135.13524002403872 358.2307390290624 L 142.84888450517968 343.40680125829266 L 150.56252898632061 329.14043671790034 L 158.17853239808005 315.601690137497 L 165.79453580983943 302.6064903498537 L 173.31289815221734 290.3110343276988 L 180.8312604945952 278.54527734142084 L 188.34962283697305 267.3092193910196 L 195.86798517935094 256.60286047649515 L 203.2887064523473 246.55497007791035 L 210.70942772534366 237.02310963905308 L 217.93486685957694 228.2379266695852 L 224.96502385504715 220.15975404656388 L 231.79989871175434 212.74999673144995 L 238.53713249907992 205.8745248221611 L 245.0790841476425 199.60537666572242 L 251.52339472682354 193.82191275546683 L 257.7724231672416 188.5853612540139 L 263.92381053827796 183.78803700790982 L 269.97755683993284 179.413054687794 L 275.93366207220623 175.44379698540632 L 281.79212623509807 171.86391461358798 L 287.5529493286084 168.65732630628094 L 293.2161313527372 165.80821881852822 L 298.78167230748454 163.30104692647345 L 304.3472132622318 161.08414188676554 L 309.8151131475975 159.18880283908226 L 315.2830130329632 157.57363518227612 L 320.6532718489473 156.26002127528906 L 326.0235306649316 155.2166619784434 L 331.29614841153426 154.45520155067933 L 336.5687661581369 153.9542576330548 L 341.84138390473964 153.71383022556955 L 347.1140016513423 153.73391932822386 L 352.38661939794497 154.01452494101758 L 357.65923714454766 154.55564706395052 L 362.93185489115024 155.35728569702323 L 368.2044726377529 156.4194408402352 L 373.5747314537372 157.76906327318528 L 378.94499026972136 159.38894031627683 L 381.9718634205488 160.42105263157887" stroke-linecap="round" stroke-linejoin="round" stroke-miterlimit="10" stroke-width="3.5" stroke-dasharray=""/></g></g><g id="sketch-750afe42"><title>Simpson's Rule </title></g><g id="sketch-750afe42"><title>quadratic</title></g><g id="sketch-750afe42"><title>"a"</title></g><g id="sketch-750afe42"><title>StartFraction, "a" plus "b" Over 2 , EndFraction</title></g><g id="sketch-750afe42"><title>"b"</title></g><g id="sketch-750afe42"><title>Expression 13</title><path fill="#000000" stroke="none" paint-order="stroke fill markers" d="" fill-opacity="0.4"/><g><path fill="none" stroke="#000000" class="dcg-svg-curve" paint-order="fill stroke markers" d=" M 127.32395447351627 400 L 127.32395447351627 400 L 127.32395447351627 391.57894736842104" stroke-linecap="round" stroke-linejoin="round" stroke-miterlimit="10" stroke-width="2.0999999999999996" stroke-dasharray=""/></g></g><g id="sketch-750afe42"><title>Expression 14</title><path fill="#000000" stroke="none" paint-order="stroke fill markers" d="" fill-opacity="0.4"/><g><path fill="none" stroke="#000000" class="dcg-svg-curve" paint-order="fill stroke markers" d=" M 254.64790894703253 400 L 254.64790894703253 400 L 254.64790894703253 391.57894736842104" stroke-linecap="round" stroke-linejoin="round" stroke-miterlimit="10" stroke-width="2.0999999999999996" stroke-dasharray=""/></g></g><g id="sketch-750afe42"><title>Expression 15</title><path fill="#000000" stroke="none" paint-order="stroke fill markers" d="" fill-opacity="0.4"/><g><path fill="none" stroke="#000000" class="dcg-svg-curve" paint-order="fill stroke markers" d=" M 254.64790894703253 349.4736842105263 L 254.64790894703253 337.1536842105263 M 254.64790894703253 329.31368421052633 L 254.64790894703253 316.99368421052634 M 254.64790894703253 309.15368421052636 L 254.64790894703253 296.83368421052637 M 254.64790894703253 288.99368421052634 L 254.64790894703253 276.67368421052635 M 254.64790894703253 268.83368421052637 L 254.64790894703253 256.5136842105264 M 254.64790894703253 248.67368421052637 L 254.64790894703253 236.35368421052635 M 254.64790894703253 228.51368421052635 L 254.64790894703253 216.19368421052633 M 254.64790894703253 208.35368421052632 L 254.64790894703253 196.03368421052633" stroke-linecap="round" stroke-linejoin="round" stroke-miterlimit="10" stroke-width="2.8" stroke-dasharray=""/></g></g><g id="sketch-750afe42"><title>Expression 16</title><path fill="#000000" stroke="none" paint-order="stroke fill markers" d="" fill-opacity="0.4"/><g><path fill="none" stroke="#000000" class="dcg-svg-curve" paint-order="fill stroke markers" d=" M 381.9718634205488 400 L 381.9718634205488 400 L 381.9718634205488 391.57894736842104" stroke-linecap="round" stroke-linejoin="round" stroke-miterlimit="10" stroke-width="2.0999999999999996" stroke-dasharray=""/></g></g><g id="sketch-750afe42"><title>Expression 17</title><path fill="#000000" stroke="none" paint-order="stroke fill markers" d="" fill-opacity="0.4"/><g><path fill="none" stroke="#000000" class="dcg-svg-curve" paint-order="fill stroke markers" d=" M 381.9718634205488 366.3157894736842 L 381.9718634205488 353.9957894736842 M 381.9718634205488 346.15578947368425 L 381.9718634205488 333.83578947368426 M 381.9718634205488 325.9957894736843 L 381.9718634205488 313.6757894736843 M 381.9718634205488 305.8357894736843 L 381.9718634205488 293.5157894736843 M 381.9718634205488 285.6757894736843 L 381.9718634205488 273.3557894736843 M 381.9718634205488 265.5157894736843 L 381.9718634205488 253.1957894736843 M 381.9718634205488 245.3557894736843 L 381.9718634205488 233.0357894736843 M 381.9718634205488 225.1957894736843 L 381.9718634205488 212.87578947368428 M 381.9718634205488 205.03578947368428 L 381.9718634205488 192.71578947368428 M 381.9718634205488 184.87578947368428 L 381.9718634205488 172.55578947368426 M 381.9718634205488 164.71578947368425 L 381.9718634205488 160.42105263157896" stroke-linecap="round" stroke-linejoin="round" stroke-miterlimit="10" stroke-width="2.8" stroke-dasharray=""/></g></g></g><g id="labels-750afe42"><g transform="rotate(0,0,0) translate(218,56)"><g class="dcg-svg-label"><text fill="none" stroke="#FFF" font-family="&quot;Times New Roman&quot;, Symbola, serif" font-size="21.505px" font-style="italic" font-weight="400" text-decoration="normal" x="2" y="18.430193313465118" text-anchor="start" stroke-linecap="round" stroke-linejoin="round" stroke-miterlimit="2" stroke-width="3" stroke-dasharray="">y</text><text fill="none" stroke="#FFF" font-family="Symbola, &quot;Times New Roman&quot;, serif" font-size="21.505px" font-style="normal" font-weight="400" text-decoration="normal" x="15.84375" y="18.43019396911621" text-anchor="start" stroke-linecap="round" stroke-linejoin="round" stroke-miterlimit="2" stroke-width="3" stroke-dasharray="">=</text><text fill="none" stroke="#FFF" font-family="&quot;Times New Roman&quot;, Symbola, serif" font-size="21.505px" font-style="italic" font-weight="400" text-decoration="normal" x="38.989585876464844" y="18.430193313465118" text-anchor="start" stroke-linecap="round" stroke-linejoin="round" stroke-miterlimit="2" stroke-width="3" stroke-dasharray="">f</text><text fill="none" stroke="#FFF" font-family="Symbola, &quot;Times New Roman&quot;, serif" font-size="21.505px" font-style="normal" font-weight="400" text-decoration="normal" x="49.26041793823242" y="18.43019396911621" text-anchor="start" stroke-linecap="round" stroke-linejoin="round" stroke-miterlimit="2" stroke-width="3" stroke-dasharray="">(</text><text fill="none" stroke="#FFF" font-family="&quot;Times New Roman&quot;, Symbola, serif" font-size="21.505px" font-style="italic" font-weight="400" text-decoration="normal" x="56.427085876464844" y="18.430193313465118" text-anchor="start" stroke-linecap="round" stroke-linejoin="round" stroke-miterlimit="2" stroke-width="3" stroke-dasharray="">x</text><text fill="none" stroke="#FFF" font-family="Symbola, &quot;Times New Roman&quot;, serif" font-size="21.505px" font-style="normal" font-weight="400" text-decoration="normal" x="65.97917175292969" y="18.43019396911621" text-anchor="start" stroke-linecap="round" stroke-linejoin="round" stroke-miterlimit="2" stroke-width="3" stroke-dasharray="">)</text><text fill="rgb(199, 68, 64)" stroke="none" font-family="&quot;Times New Roman&quot;, Symbola, serif" font-size="21.505px" font-style="italic" font-weight="400" text-decoration="normal" x="2" y="18.430193313465118" text-anchor="start">y</text><text fill="rgb(199, 68, 64)" stroke="none" font-family="Symbola, &quot;Times New Roman&quot;, serif" font-size="21.505px" font-style="normal" font-weight="400" text-decoration="normal" x="15.84375" y="18.43019396911621" text-anchor="start">=</text><text fill="rgb(199, 68, 64)" stroke="none" font-family="&quot;Times New Roman&quot;, Symbola, serif" font-size="21.505px" font-style="italic" font-weight="400" text-decoration="normal" x="38.989585876464844" y="18.430193313465118" text-anchor="start">f</text><text fill="rgb(199, 68, 64)" stroke="none" font-family="Symbola, &quot;Times New Roman&quot;, serif" font-size="21.505px" font-style="normal" font-weight="400" text-decoration="normal" x="49.26041793823242" y="18.43019396911621" text-anchor="start">(</text><text fill="rgb(199, 68, 64)" stroke="none" font-family="&quot;Times New Roman&quot;, Symbola, serif" font-size="21.505px" font-style="italic" font-weight="400" text-decoration="normal" x="56.427085876464844" y="18.430193313465118" text-anchor="start">x</text><text fill="rgb(199, 68, 64)" stroke="none" font-family="Symbola, &quot;Times New Roman&quot;, serif" font-size="21.505px" font-style="normal" font-weight="400" text-decoration="normal" x="65.97917175292969" y="18.43019396911621" text-anchor="start">)</text></g></g><g transform="rotate(0,0,0) translate(80.5,213)"><g class="dcg-svg-label"><text fill="none" stroke="#FFF" font-family="arial, sans-serif" font-size="18.7px" font-style="normal" font-weight="400" text-decoration="normal" x="0" y="16.40306793823242" text-anchor="start" stroke-linecap="round" stroke-linejoin="round" stroke-miterlimit="2" stroke-width="3" stroke-dasharray="">Simpson's Rule </text><text fill="rgb(45, 112, 179)" stroke="none" font-family="arial, sans-serif" font-size="18.7px" font-style="normal" font-weight="400" text-decoration="normal" x="0" y="16.40306793823242" text-anchor="start">Simpson's Rule </text></g></g><g transform="rotate(0,0,0) translate(106.5,234)"><g class="dcg-svg-label"><text fill="none" stroke="#FFF" font-family="arial, sans-serif" font-size="18.7px" font-style="normal" font-weight="400" text-decoration="normal" x="0" y="16.40306793823242" text-anchor="start" stroke-linecap="round" stroke-linejoin="round" stroke-miterlimit="2" stroke-width="3" stroke-dasharray="">quadratic</text><text fill="rgb(45, 112, 179)" stroke="none" font-family="arial, sans-serif" font-size="18.7px" font-style="normal" font-weight="400" text-decoration="normal" x="0" y="16.40306793823242" text-anchor="start">quadratic</text></g></g><g transform="rotate(0,0,0) translate(119.5,370)"><g class="dcg-svg-label"><text fill="none" stroke="#FFF" font-family="&quot;Times New Roman&quot;, Symbola, serif" font-size="21.505px" font-style="italic" font-weight="400" text-decoration="normal" x="2" y="18.430193313465118" text-anchor="start" stroke-linecap="round" stroke-linejoin="round" stroke-miterlimit="2" stroke-width="3" stroke-dasharray="">a</text><text fill="rgb(0, 0, 0)" stroke="none" font-family="&quot;Times New Roman&quot;, Symbola, serif" font-size="21.505px" font-style="italic" font-weight="400" text-decoration="normal" x="2" y="18.430193313465118" text-anchor="start">a</text></g></g><g transform="rotate(0,0,0) translate(226,349)"><g class="dcg-svg-label"><text fill="none" stroke="#FFF" font-family="&quot;Times New Roman&quot;, Symbola, serif" font-size="19.3545px" font-style="italic" font-weight="400" text-decoration="normal" x="7.7916669845581055" y="16.92050796911621" text-anchor="start" stroke-linecap="round" stroke-linejoin="round" stroke-miterlimit="2" stroke-width="3" stroke-dasharray="">a</text><text fill="none" stroke="#FFF" font-family="Symbola, &quot;Times New Roman&quot;, serif" font-size="19.3545px" font-style="normal" font-weight="400" text-decoration="normal" x="21.33333396911621" y="16.92050796911621" text-anchor="start" stroke-linecap="round" stroke-linejoin="round" stroke-miterlimit="2" stroke-width="3" stroke-dasharray="">+</text><text fill="none" stroke="#FFF" font-family="&quot;Times New Roman&quot;, Symbola, serif" font-size="19.3545px" font-style="italic" font-weight="400" text-decoration="normal" x="40.239585876464844" y="16.92050796911621" text-anchor="start" stroke-linecap="round" stroke-linejoin="round" stroke-miterlimit="2" stroke-width="3" stroke-dasharray="">b</text><path fill="none" stroke="#FFF" paint-order="fill stroke markers" d=" M 5.864583492279053 21.354167938232422 L 51.843751430511475 21.354167938232422 L 51.843751430511475 22.020834938232422 L 5.864583492279053 22.020834938232422 Z" stroke-linecap="round" stroke-linejoin="round" stroke-miterlimit="10" stroke-width="3" stroke-dasharray=""/><text fill="none" stroke="#FFF" font-family="Symbola, &quot;Times New Roman&quot;, serif" font-size="19.3545px" font-style="normal" font-weight="400" text-decoration="normal" x="23.916667938232422" y="38.868424" text-anchor="start" stroke-linecap="round" stroke-linejoin="round" stroke-miterlimit="2" stroke-width="3" stroke-dasharray="">2</text><text fill="rgb(0, 0, 0)" stroke="none" font-family="&quot;Times New Roman&quot;, Symbola, serif" font-size="19.3545px" font-style="italic" font-weight="400" text-decoration="normal" x="7.7916669845581055" y="16.92050796911621" text-anchor="start">a</text><text fill="rgb(0, 0, 0)" stroke="none" font-family="Symbola, &quot;Times New Roman&quot;, serif" font-size="19.3545px" font-style="normal" font-weight="400" text-decoration="normal" x="21.33333396911621" y="16.92050796911621" text-anchor="start">+</text><text fill="rgb(0, 0, 0)" stroke="none" font-family="&quot;Times New Roman&quot;, Symbola, serif" font-size="19.3545px" font-style="italic" font-weight="400" text-decoration="normal" x="40.239585876464844" y="16.92050796911621" text-anchor="start">b</text><path fill="rgb(0, 0, 0)" stroke="none" paint-order="stroke fill markers" d=" M 5.864583492279053 21.354167938232422 L 51.843751430511475 21.354167938232422 L 51.843751430511475 22.020834938232422 L 5.864583492279053 22.020834938232422 Z"/><text fill="rgb(0, 0, 0)" stroke="none" font-family="Symbola, &quot;Times New Roman&quot;, serif" font-size="19.3545px" font-style="normal" font-weight="400" text-decoration="normal" x="23.916667938232422" y="38.868424" text-anchor="start">2</text></g></g><g transform="rotate(0,0,0) translate(374.5,370)"><g class="dcg-svg-label"><text fill="none" stroke="#FFF" font-family="&quot;Times New Roman&quot;, Symbola, serif" font-size="21.505px" font-style="italic" font-weight="400" text-decoration="normal" x="2" y="18.430193313465118" text-anchor="start" stroke-linecap="round" stroke-linejoin="round" stroke-miterlimit="2" stroke-width="3" stroke-dasharray="">b</text><text fill="rgb(0, 0, 0)" stroke="none" font-family="&quot;Times New Roman&quot;, Symbola, serif" font-size="21.505px" font-style="italic" font-weight="400" text-decoration="normal" x="2" y="18.430193313465118" text-anchor="start">b</text></g></g></g><g id="labels-750afe42"/></g></svg>