<?xml version="1.0" encoding="utf-8"?>
<!-- Generator: Adobe Illustrator 12.0.1, SVG Export Plug-In . SVG Version: 6.00 Build 51448)  -->
<!DOCTYPE svg PUBLIC "-//W3C//DTD SVG 1.1//EN" "http://www.w3.org/Graphics/SVG/1.1/DTD/svg11.dtd" [
	<!ENTITY ns_svg "http://www.w3.org/2000/svg">
	<!ENTITY ns_xlink "http://www.w3.org/1999/xlink">
	<!ENTITY st0 "fill:url(#XMLID_1_);">
	<!ENTITY st1 "fill:url(#XMLID_2_);">
	<!ENTITY st2 "fill:url(#XMLID_3_);">
	<!ENTITY st3 "fill:url(#XMLID_4_);">
	<!ENTITY st4 "fill:url(#XMLID_5_);">
	<!ENTITY st5 "fill:url(#XMLID_6_);">
	<!ENTITY st6 "fill:url(#XMLID_7_);">
	<!ENTITY st7 "fill:url(#XMLID_8_);">
	<!ENTITY st8 "fill:url(#XMLID_9_);">
	<!ENTITY st9 "fill:none;stroke:#000000;stroke-width:12;">
	<!ENTITY st10 "fill:#FFFFFF;">
	<!ENTITY st11 "fill:url(#XMLID_10_);">
	<!ENTITY st12 "fill:url(#XMLID_11_);">
	<!ENTITY st13 "fill:url(#XMLID_12_);">
	<!ENTITY st14 "fill:url(#XMLID_13_);">
	<!ENTITY st15 "fill:url(#XMLID_14_);">
	<!ENTITY st16 "fill:url(#XMLID_15_);">
	<!ENTITY st17 "fill:url(#XMLID_16_);">
	<!ENTITY st18 "fill:url(#XMLID_17_);">
	<!ENTITY st19 "fill:url(#XMLID_18_);">
	<!ENTITY st20 "fill:url(#XMLID_19_);">
	<!ENTITY st21 "fill:url(#XMLID_20_);">
	<!ENTITY st22 "fill:url(#XMLID_21_);">
	<!ENTITY st23 "fill:url(#XMLID_22_);">
	<!ENTITY st24 "fill:url(#XMLID_23_);">
	<!ENTITY st25 "fill:url(#XMLID_24_);">
	<!ENTITY st26 "fill:url(#XMLID_25_);">
	<!ENTITY st27 "fill:url(#XMLID_26_);">
	<!ENTITY st28 "fill:url(#XMLID_27_);">
	<!ENTITY st29 "fill:url(#XMLID_28_);">
	<!ENTITY st30 "fill:url(#XMLID_29_);">
	<!ENTITY st31 "fill:url(#XMLID_30_);">
	<!ENTITY st32 "fill:url(#XMLID_31_);">
	<!ENTITY st33 "fill:url(#XMLID_32_);">
	<!ENTITY st34 "fill:url(#XMLID_33_);">
	<!ENTITY st35 "fill:url(#XMLID_34_);">
	<!ENTITY st36 "fill:url(#XMLID_35_);">
	<!ENTITY st37 "fill:url(#XMLID_36_);">
	<!ENTITY st38 "fill:url(#XMLID_37_);">
	<!ENTITY st39 "fill:url(#XMLID_38_);">
	<!ENTITY st40 "fill:url(#XMLID_39_);">
	<!ENTITY st41 "fill:url(#XMLID_40_);">
	<!ENTITY st42 "fill:url(#XMLID_41_);">
	<!ENTITY st43 "fill:url(#XMLID_42_);">
	<!ENTITY st44 "fill:url(#XMLID_43_);">
	<!ENTITY st45 "fill:url(#XMLID_44_);">
	<!ENTITY st46 "fill:url(#XMLID_45_);">
	<!ENTITY st47 "fill:url(#XMLID_46_);">
	<!ENTITY st48 "fill:url(#XMLID_47_);">
	<!ENTITY st49 "fill:url(#XMLID_48_);">
	<!ENTITY st50 "fill:#629FFF;">
	<!ENTITY st51 "fill:none;">
	<!ENTITY st52 "fill:#D24C88;">
]>
<svg  version="1.1" id="Layer_2" xmlns="&ns_svg;" xmlns:xlink="&ns_xlink;" width="1340" height="1568" viewBox="0 0 1340 1568"
	 style="overflow:visible;enable-background:new 0 0 1340 1568;" xml:space="preserve">
<g>
	<rect style="&st51;" width="1340" height="1568"/>
	<g>
		<path d="M208.891,1487.781v-48.688h6.438v42.938h23.938v5.75H208.891z"/>
		<path d="M246.209,1445.906v-6.812h6v6.812H246.209z M246.209,1487.781v-35.312h6v35.312H246.209z"/>
		<path d="M274.316,1482.406l0.812,5.281c-1.682,0.352-3.188,0.531-4.516,0.531c-2.168,0-3.85-0.344-5.043-1.031
			c-1.195-0.688-2.037-1.594-2.523-2.711c-0.488-1.117-0.73-3.477-0.73-7.07v-20.312h-4.438v-4.625h4.438v-8.734l6-3.586v12.32h6
			v4.625h-6v20.668c0,1.707,0.105,2.809,0.314,3.293c0.209,0.492,0.553,0.879,1.029,1.164c0.473,0.289,1.152,0.438,2.037,0.438
			C272.359,1482.656,273.234,1482.57,274.316,1482.406z"/>
		<path d="M280.209,1487.781v-48.688h6v17.391c2.775-3.219,6.275-4.828,10.502-4.828c2.598,0,4.855,0.516,6.771,1.547
			s3.287,2.453,4.111,4.273c0.828,1.82,1.24,4.457,1.24,7.914v22.391h-6v-22.414c0-2.992-0.643-5.172-1.926-6.539
			s-3.1-2.047-5.447-2.047c-1.758,0-3.41,0.461-4.957,1.383s-2.648,2.164-3.309,3.742c-0.656,1.578-0.986,3.75-0.986,6.527v19.348
			H280.209z"/>
		<path d="M318.027,1445.906v-6.812h6v6.812H318.027z M318.027,1487.781v-35.312h6v35.312H318.027z"/>
		<path d="M356.197,1487.781v-5.148c-2.738,3.977-6.459,5.961-11.162,5.961c-2.078,0-4.016-0.398-5.814-1.199
			s-3.135-1.801-4.008-3.012c-0.873-1.207-1.486-2.688-1.838-4.438c-0.244-1.18-0.365-3.039-0.365-5.594v-21.883h6v19.609
			c0,3.133,0.121,5.242,0.363,6.328c0.375,1.578,1.168,2.812,2.381,3.711c1.211,0.898,2.711,1.352,4.496,1.352
			s3.461-0.461,5.023-1.383c1.566-0.922,2.672-2.176,3.324-3.766c0.648-1.586,0.975-3.891,0.975-6.906v-18.945h6v35.312H356.197z"/>
		<path d="M370.936,1487.781v-35.312h5.375v4.938c1.105-1.727,2.576-3.117,4.412-4.172c1.834-1.055,3.924-1.578,6.268-1.578
			c2.607,0,4.748,0.539,6.416,1.625c1.67,1.086,2.848,2.609,3.533,4.559c2.801-4.121,6.445-6.184,10.936-6.184
			c3.512,0,6.211,0.969,8.102,2.906c1.889,1.945,2.834,4.93,2.834,8.969v24.25h-6v-22.258c0-2.391-0.193-4.117-0.582-5.172
			s-1.092-1.898-2.111-2.547c-1.021-0.641-2.219-0.961-3.594-0.961c-2.484,0-4.547,0.824-6.188,2.477
			c-1.643,1.652-2.463,4.297-2.463,7.934v20.527h-6v-22.953c0-2.664-0.486-4.656-1.459-5.992c-0.971-1.328-2.561-1.992-4.768-1.992
			c-1.678,0-3.23,0.445-4.654,1.328c-1.424,0.891-2.457,2.188-3.098,3.891c-0.641,1.711-0.959,4.172-0.959,7.387v18.332H370.936z"/>
		<path d="M425.223,1473.156v-6h18.375v6H425.223z"/>
		<path d="M479.68,1451.031l-5.938,0.438c-0.535-2.336-1.293-4.031-2.27-5.086c-1.625-1.695-3.629-2.539-6.012-2.539
			c-1.914,0-3.605,0.531-5.074,1.594c-1.871,1.367-3.352,3.367-4.441,6c-1.092,2.633-1.66,6.383-1.703,11.254
			c1.441-2.191,3.203-3.816,5.289-4.879s4.27-1.594,6.555-1.594c3.992,0,7.391,1.461,10.197,4.391s4.209,6.719,4.209,11.363
			c0,3.051-0.66,5.887-1.979,8.512c-1.318,2.617-3.131,4.625-5.436,6.016c-2.307,1.395-4.922,2.094-7.848,2.094
			c-4.988,0-9.057-1.836-12.203-5.492c-3.148-3.664-4.723-9.703-4.723-18.109c0-9.406,1.742-16.242,5.23-20.512
			c3.039-3.715,7.137-5.574,12.289-5.574c3.84,0,6.988,1.07,9.441,3.219S479.191,1447.242,479.68,1451.031z M455.18,1471.98
			c0,2.059,0.438,4.027,1.312,5.902c0.875,1.883,2.096,3.312,3.66,4.297c1.562,0.984,3.219,1.477,4.971,1.477
			c2.547,0,4.725-1.016,6.533-3.055c1.807-2.031,2.711-4.797,2.711-8.289c0-3.359-0.893-6.008-2.678-7.945
			c-1.785-1.93-4.053-2.898-6.799-2.898c-2.707,0-5,0.969-6.885,2.898C456.121,1466.305,455.18,1468.844,455.18,1471.98z"/>
		<path d="M502.328,1472.594v-4.812h37.75v4.812H502.328z"/>
		<path d="M564.414,1487.781v-48.688h16.77c3.785,0,6.676,0.23,8.668,0.695c2.789,0.641,5.17,1.805,7.141,3.484
			c2.568,2.172,4.488,4.945,5.762,8.32c1.273,3.379,1.91,7.234,1.91,11.578c0,3.695-0.434,6.973-1.297,9.828
			c-0.863,2.859-1.969,5.219-3.32,7.094c-1.35,1.867-2.828,3.344-4.434,4.414c-1.605,1.078-3.541,1.891-5.811,2.441
			s-4.877,0.832-7.822,0.832H564.414z M570.852,1482.031h10.402c3.215,0,5.734-0.301,7.562-0.898s3.285-1.438,4.371-2.523
			c1.527-1.527,2.719-3.578,3.57-6.156c0.855-2.578,1.281-5.711,1.281-9.383c0-5.094-0.836-9-2.51-11.734s-3.705-4.57-6.1-5.5
			c-1.727-0.664-4.508-0.992-8.34-0.992h-10.238V1482.031z"/>
		<path d="M636.893,1476.406l6.18,0.812c-0.975,3.602-2.779,6.398-5.412,8.391c-2.633,1.988-5.996,2.984-10.09,2.984
			c-5.158,0-9.246-1.594-12.268-4.777s-4.531-7.645-4.531-13.395c0-5.945,1.525-10.562,4.58-13.844s7.016-4.922,11.887-4.922
			c4.713,0,8.562,1.609,11.551,4.82c2.988,3.219,4.482,7.746,4.482,13.578c0,0.359-0.012,0.891-0.033,1.602h-26.342
			c0.221,3.875,1.318,6.844,3.295,8.906c1.973,2.062,4.434,3.094,7.385,3.094c2.195,0,4.07-0.578,5.623-1.734
			C634.752,1480.773,635.982,1478.93,636.893,1476.406z M617.209,1466.719h19.75c-0.268-2.969-1.021-5.191-2.264-6.672
			c-1.91-2.305-4.387-3.453-7.428-3.453c-2.754,0-5.068,0.914-6.943,2.754C618.445,1461.188,617.408,1463.641,617.209,1466.719z"/>
		<path d="M673.652,1487.781v-5.148c-2.738,3.977-6.461,5.961-11.164,5.961c-2.074,0-4.014-0.398-5.812-1.199
			c-1.801-0.801-3.137-1.801-4.008-3.012c-0.873-1.207-1.484-2.688-1.84-4.438c-0.242-1.18-0.363-3.039-0.363-5.594v-21.883h6
			v19.609c0,3.133,0.121,5.242,0.363,6.328c0.375,1.578,1.168,2.812,2.381,3.711s2.711,1.352,4.496,1.352s3.459-0.461,5.025-1.383
			c1.562-0.922,2.672-2.176,3.32-3.766c0.652-1.586,0.977-3.891,0.977-6.906v-18.945h6v35.312H673.652z"/>
		<path d="M701.41,1482.406l0.812,5.281c-1.684,0.352-3.188,0.531-4.516,0.531c-2.168,0-3.852-0.344-5.047-1.031
			s-2.035-1.594-2.52-2.711c-0.488-1.117-0.73-3.477-0.73-7.07v-20.312h-4.438v-4.625h4.438v-8.734l6-3.586v12.32h6v4.625h-6v20.668
			c0,1.707,0.102,2.809,0.312,3.293c0.211,0.492,0.555,0.879,1.027,1.164c0.477,0.289,1.156,0.438,2.039,0.438
			C699.453,1482.656,700.324,1482.57,701.41,1482.406z"/>
		<path d="M731.422,1476.406l6.18,0.812c-0.973,3.602-2.777,6.398-5.41,8.391c-2.633,1.988-6,2.984-10.094,2.984
			c-5.156,0-9.246-1.594-12.266-4.777s-4.531-7.645-4.531-13.395c0-5.945,1.527-10.562,4.582-13.844s7.016-4.922,11.883-4.922
			c4.715,0,8.566,1.609,11.555,4.82c2.988,3.219,4.48,7.746,4.48,13.578c0,0.359-0.012,0.891-0.031,1.602h-26.344
			c0.223,3.875,1.32,6.844,3.293,8.906c1.977,2.062,4.438,3.094,7.387,3.094c2.195,0,4.07-0.578,5.625-1.734
			C729.281,1480.773,730.512,1478.93,731.422,1476.406z M711.738,1466.719h19.75c-0.266-2.969-1.02-5.191-2.266-6.672
			c-1.91-2.305-4.383-3.453-7.426-3.453c-2.754,0-5.066,0.914-6.945,2.754C712.977,1461.188,711.938,1463.641,711.738,1466.719z"/>
		<path d="M745.059,1487.781v-35.312h5.375v5.34c1.367-2.504,2.633-4.16,3.793-4.957s2.434-1.195,3.824-1.195
			c2.012,0,4.055,0.648,6.133,1.938l-2.062,5.547c-1.453-0.867-2.906-1.297-4.359-1.297c-1.301,0-2.465,0.391-3.5,1.18
			s-1.773,1.879-2.215,3.273c-0.66,2.133-0.988,4.461-0.988,6.984v18.5H745.059z"/>
		<path d="M767.766,1445.906v-6.812h6v6.812H767.766z M767.766,1487.781v-35.312h6v35.312H767.766z"/>
		<path d="M805.934,1487.781v-5.148c-2.738,3.977-6.461,5.961-11.164,5.961c-2.074,0-4.012-0.398-5.812-1.199
			s-3.137-1.801-4.008-3.012c-0.871-1.207-1.484-2.688-1.84-4.438c-0.242-1.18-0.363-3.039-0.363-5.594v-21.883h6v19.609
			c0,3.133,0.121,5.242,0.363,6.328c0.375,1.578,1.168,2.812,2.383,3.711c1.211,0.898,2.711,1.352,4.496,1.352
			s3.457-0.461,5.023-1.383c1.562-0.922,2.672-2.176,3.32-3.766c0.652-1.586,0.977-3.891,0.977-6.906v-18.945h6v35.312H805.934z"/>
		<path d="M820.672,1487.781v-35.312h5.375v4.938c1.105-1.727,2.574-3.117,4.41-4.172s3.926-1.578,6.27-1.578
			c2.609,0,4.746,0.539,6.418,1.625c1.668,1.086,2.848,2.609,3.531,4.559c2.801-4.121,6.445-6.184,10.938-6.184
			c3.512,0,6.211,0.969,8.102,2.906c1.887,1.945,2.832,4.93,2.832,8.969v24.25h-6v-22.258c0-2.391-0.195-4.117-0.582-5.172
			s-1.094-1.898-2.113-2.547c-1.02-0.641-2.219-0.961-3.594-0.961c-2.484,0-4.547,0.824-6.188,2.477s-2.461,4.297-2.461,7.934
			v20.527h-6v-22.953c0-2.664-0.484-4.656-1.457-5.992c-0.973-1.328-2.562-1.992-4.77-1.992c-1.68,0-3.23,0.445-4.652,1.328
			c-1.426,0.891-2.457,2.188-3.098,3.891c-0.641,1.711-0.961,4.172-0.961,7.387v18.332H820.672z"/>
		<path d="M897.102,1487.781v-48.688h21.562c4.332,0,7.629,0.438,9.883,1.312s4.059,2.422,5.406,4.637s2.023,4.668,2.023,7.348
			c0,3.457-1.117,6.375-3.352,8.742c-2.23,2.375-5.68,3.879-10.348,4.523c1.703,0.816,3,1.625,3.887,2.418
			c1.879,1.723,3.656,3.879,5.328,6.473l8.422,13.234h-8.051l-6.434-10.117c-1.879-2.922-3.426-5.156-4.645-6.703
			c-1.215-1.547-2.305-2.633-3.266-3.262s-1.941-1.066-2.934-1.309c-0.73-0.156-1.926-0.234-3.582-0.234h-7.465v21.625H897.102z
			 M903.539,1460.594h13.832c2.941,0,5.242-0.305,6.902-0.914s2.922-1.586,3.785-2.93c0.863-1.336,1.293-2.797,1.293-4.367
			c0-2.305-0.836-4.203-2.508-5.688c-1.668-1.484-4.309-2.227-7.914-2.227h-15.391V1460.594z"/>
		<path d="M969.457,1476.406l6.18,0.812c-0.977,3.602-2.781,6.398-5.414,8.391c-2.633,1.988-5.996,2.984-10.09,2.984
			c-5.156,0-9.246-1.594-12.266-4.777c-3.023-3.184-4.531-7.645-4.531-13.395c0-5.945,1.523-10.562,4.578-13.844
			s7.016-4.922,11.887-4.922c4.715,0,8.562,1.609,11.551,4.82c2.988,3.219,4.484,7.746,4.484,13.578
			c0,0.359-0.012,0.891-0.035,1.602h-26.34c0.219,3.875,1.316,6.844,3.293,8.906c1.973,2.062,4.434,3.094,7.387,3.094
			c2.195,0,4.07-0.578,5.621-1.734C967.316,1480.773,968.547,1478.93,969.457,1476.406z M949.773,1466.719h19.75
			c-0.27-2.969-1.023-5.191-2.266-6.672c-1.91-2.305-4.387-3.453-7.426-3.453c-2.754,0-5.07,0.914-6.945,2.754
			C951.008,1461.188,949.973,1463.641,949.773,1466.719z"/>
		<path d="M1006.215,1483.344c-2.207,1.918-4.34,3.273-6.398,4.062c-2.055,0.789-4.262,1.188-6.617,1.188
			c-3.895,0-6.883-0.953-8.973-2.852s-3.137-4.32-3.137-7.273c0-1.734,0.395-3.32,1.184-4.75s1.824-2.578,3.105-3.445
			c1.277-0.867,2.719-1.523,4.32-1.969c1.176-0.309,2.957-0.609,5.336-0.898c4.848-0.578,8.418-1.266,10.711-2.062
			c0.02-0.82,0.031-1.344,0.031-1.562c0-2.445-0.566-4.164-1.703-5.16c-1.539-1.355-3.824-2.027-6.852-2.027
			c-2.832,0-4.918,0.492-6.266,1.484s-2.348,2.746-2.992,5.266l-5.875-0.812c0.535-2.508,1.414-4.531,2.637-6.07
			s2.988-2.727,5.301-3.562c2.312-0.828,4.992-1.242,8.039-1.242c3.027,0,5.484,0.352,7.375,1.062
			c1.887,0.711,3.277,1.602,4.168,2.676s1.512,2.434,1.867,4.074c0.199,1.016,0.301,2.859,0.301,5.523v7.992
			c0,5.57,0.121,9.094,0.367,10.562c0.242,1.477,0.727,2.883,1.445,4.234h-6.25
			C1006.758,1486.516,1006.383,1485.039,1006.215,1483.344z M1005.715,1470.031c-2.18,0.891-5.449,1.641-9.809,2.266
			c-2.469,0.359-4.215,0.758-5.238,1.203s-1.812,1.094-2.367,1.949c-0.559,0.855-0.836,1.809-0.836,2.852
			c0,1.602,0.605,2.934,1.82,4.004c1.215,1.066,2.992,1.602,5.332,1.602c2.316,0,4.375-0.508,6.18-1.516s3.133-2.391,3.98-4.148
			c0.645-1.359,0.969-3.359,0.969-6.008L1005.715,1470.031z"/>
		<path d="M1043.973,1474.844l5.875,0.812c-0.641,4.047-2.281,7.211-4.918,9.5s-5.879,3.438-9.719,3.438
			c-4.812,0-8.68-1.582-11.602-4.742c-2.926-3.164-4.387-7.695-4.387-13.594c0-3.82,0.629-7.156,1.887-10.016
			c1.258-2.863,3.172-5.008,5.742-6.441s5.371-2.145,8.395-2.145c3.816,0,6.941,0.969,9.367,2.914
			c2.43,1.938,3.984,4.695,4.672,8.273l-5.812,0.875c-0.555-2.367-1.527-4.141-2.93-5.336c-1.398-1.195-3.09-1.789-5.074-1.789
			c-3,0-5.438,1.078-7.312,3.242c-1.875,2.156-2.809,5.578-2.809,10.254c0,4.746,0.902,8.191,2.711,10.34s4.168,3.227,7.078,3.227
			c2.34,0,4.289-0.719,5.855-2.164C1042.559,1480.055,1043.551,1477.836,1043.973,1474.844z"/>
		<path d="M1067.973,1482.406l0.812,5.281c-1.684,0.352-3.188,0.531-4.516,0.531c-2.168,0-3.852-0.344-5.047-1.031
			s-2.035-1.594-2.52-2.711c-0.488-1.117-0.73-3.477-0.73-7.07v-20.312h-4.438v-4.625h4.438v-8.734l6-3.586v12.32h6v4.625h-6v20.668
			c0,1.707,0.102,2.809,0.312,3.293c0.211,0.492,0.555,0.879,1.027,1.164c0.477,0.289,1.156,0.438,2.039,0.438
			C1066.016,1482.656,1066.887,1482.57,1067.973,1482.406z"/>
		<path d="M1073.863,1445.906v-6.812h6v6.812H1073.863z M1073.863,1487.781v-35.312h6v35.312H1073.863z"/>
		<path d="M1086.723,1470.125c0-6.547,1.816-11.391,5.449-14.547c3.035-2.617,6.734-3.922,11.098-3.922
			c4.852,0,8.816,1.59,11.895,4.773s4.621,7.582,4.621,13.195c0,4.547-0.684,8.125-2.047,10.73
			c-1.359,2.605-3.344,4.629-5.945,6.074c-2.605,1.438-5.445,2.164-8.523,2.164c-4.941,0-8.934-1.586-11.98-4.758
			S1086.723,1476.094,1086.723,1470.125z M1092.848,1470.109c0,4.523,0.984,7.914,2.961,10.164c1.977,2.258,4.465,3.383,7.461,3.383
			c2.973,0,5.449-1.133,7.426-3.398s2.965-5.711,2.965-10.352c0-4.371-0.996-7.684-2.98-9.938c-1.988-2.25-4.457-3.375-7.41-3.375
			c-2.996,0-5.484,1.117-7.461,3.359S1092.848,1465.578,1092.848,1470.109z"/>
		<path d="M1126.789,1487.781v-35.312h5.375v5.012c2.586-3.887,6.324-5.824,11.211-5.824c2.121,0,4.074,0.383,5.855,1.148
			c1.777,0.766,3.109,1.766,3.996,3.008c0.883,1.242,1.504,2.719,1.855,4.422c0.223,1.109,0.332,3.055,0.332,5.82v21.727h-6v-21.492
			c0-2.438-0.23-4.266-0.695-5.469c-0.461-1.211-1.281-2.18-2.461-2.898s-2.562-1.078-4.148-1.078c-2.535,0-4.719,0.805-6.559,2.43
			c-1.84,1.617-2.762,4.688-2.762,9.211v19.297H1126.789z"/>
	</g>
	<g>
		<path d="M123.023,150v-42.969h5.688v37.906h21.156V150H123.023z"/>
		<path d="M155.986,113.094v-6.062h5.281v6.062H155.986z M155.986,150v-31.125h5.281V150H155.986z"/>
		<path d="M180.816,145.277l0.75,4.658c-1.484,0.314-2.814,0.471-3.986,0.471c-1.914,0-3.4-0.303-4.455-0.908
			s-1.797-1.402-2.227-2.389c-0.43-0.988-0.645-3.064-0.645-6.23v-17.91h-3.906v-4.094h3.906v-7.705l5.281-3.164v10.869h5.281v4.094
			h-5.281v18.193c0,1.504,0.092,2.471,0.277,2.9c0.184,0.43,0.486,0.771,0.904,1.025s1.016,0.381,1.795,0.381
			C179.094,145.469,179.863,145.406,180.816,145.277z"/>
		<path d="M185.955,150v-42.969h5.281v15.424c2.459-2.846,5.564-4.268,9.314-4.268c2.303,0,4.305,0.453,6.004,1.363
			c1.697,0.906,2.914,2.162,3.645,3.764c0.734,1.602,1.1,3.924,1.1,6.971V150h-5.281v-19.721c0-2.637-0.57-4.557-1.713-5.758
			c-1.141-1.201-2.756-1.803-4.844-1.803c-1.561,0-3.029,0.406-4.404,1.217c-1.377,0.811-2.357,1.908-2.943,3.295
			c-0.584,1.389-0.877,3.303-0.877,5.744V150H185.955z"/>
		<path d="M219.355,113.094v-6.062h5.281v6.062H219.355z M219.355,150v-31.125h5.281V150H219.355z"/>
		<path d="M253.029,150v-4.576c-2.42,3.51-5.711,5.264-9.869,5.264c-1.836,0-3.549-0.352-5.141-1.055
			c-1.59-0.703-2.771-1.586-3.543-2.65s-1.312-2.369-1.625-3.912c-0.215-1.035-0.322-2.674-0.322-4.92v-19.275h5.281v17.26
			c0,2.754,0.107,4.611,0.322,5.568c0.332,1.387,1.033,2.477,2.105,3.266c1.072,0.793,2.398,1.188,3.979,1.188
			s3.062-0.406,4.447-1.215c1.385-0.812,2.363-1.916,2.939-3.312s0.863-3.424,0.863-6.08v-16.674h5.281V150H253.029z"/>
		<path d="M266.01,150v-31.125h4.719v4.373c0.979-1.521,2.277-2.744,3.9-3.67c1.623-0.928,3.471-1.391,5.543-1.391
			c2.307,0,4.199,0.479,5.674,1.434c1.477,0.957,2.518,2.293,3.123,4.008c2.467-3.627,5.676-5.441,9.631-5.441
			c3.092,0,5.471,0.855,7.133,2.562c1.664,1.711,2.496,4.342,2.496,7.895V150h-5.281v-19.602c0-2.109-0.17-3.629-0.514-4.557
			c-0.34-0.928-0.961-1.676-1.859-2.242s-1.953-0.85-3.164-0.85c-2.189,0-4.006,0.729-5.451,2.184s-2.168,3.785-2.168,6.988V150
			h-5.281v-20.219c0-2.344-0.43-4.102-1.289-5.273c-0.861-1.172-2.268-1.758-4.221-1.758c-1.486,0-2.859,0.391-4.119,1.172
			s-2.174,1.926-2.74,3.43s-0.85,3.672-0.85,6.504V150H266.01z"/>
		<path d="M313.91,137.094v-5.312h16.219v5.312H313.91z"/>
		<path d="M361.922,117.562l-5.25,0.406c-0.471-2.064-1.137-3.564-1.998-4.5c-1.43-1.5-3.191-2.25-5.287-2.25
			c-1.686,0-3.168,0.469-4.453,1.402c-1.652,1.211-2.961,2.975-3.92,5.293c-0.959,2.32-1.459,5.629-1.498,9.924
			c1.271-1.934,2.828-3.369,4.666-4.307c1.84-0.938,3.768-1.406,5.783-1.406c3.52,0,6.52,1.293,8.994,3.883
			c2.475,2.586,3.713,5.932,3.713,10.033c0,2.695-0.582,5.201-1.746,7.514c-1.164,2.316-2.764,4.088-4.797,5.318
			c-2.035,1.23-4.344,1.846-6.926,1.846c-4.402,0-7.992-1.615-10.77-4.848c-2.779-3.23-4.168-8.557-4.168-15.977
			c0-8.297,1.535-14.33,4.609-18.1c2.682-3.279,6.293-4.92,10.834-4.92c3.385,0,6.16,0.947,8.322,2.84
			C360.195,111.609,361.492,114.225,361.922,117.562z M340.328,136.066c0,1.816,0.387,3.553,1.16,5.213
			c0.771,1.66,1.852,2.924,3.234,3.793c1.385,0.869,2.846,1.303,4.383,1.303c2.24,0,4.16-0.898,5.762-2.695
			c1.598-1.795,2.398-4.236,2.398-7.32c0-2.969-0.789-5.307-2.371-7.016c-1.578-1.707-3.578-2.562-5.996-2.562
			c-2.387,0-4.412,0.855-6.074,2.562C341.16,131.053,340.328,133.293,340.328,136.066z"/>
		<path d="M185.996,222.625c-2.902-3.672-5.357-7.969-7.365-12.891c-2.006-4.922-3.01-10.021-3.01-15.295
			c0-4.648,0.75-9.102,2.25-13.361c1.754-4.941,4.461-9.863,8.125-14.766h3.781c-2.361,4.062-3.922,6.963-4.682,8.701
			c-1.191,2.697-2.127,5.51-2.811,8.439c-0.838,3.652-1.258,7.324-1.258,11.016c0,9.395,2.916,18.781,8.75,28.156H185.996z"/>
		<path d="M196.383,210v-42.969h5.688v37.906h21.156V210H196.383z"/>
		<path d="M229.346,173.094v-6.062h5.281v6.062H229.346z M229.346,210v-31.125h5.281V210H229.346z"/>
		<path d="M240.551,197.094v-5.312h16.219v5.312H240.551z"/>
		<path d="M288.562,177.562l-5.25,0.406c-0.471-2.064-1.137-3.564-1.998-4.5c-1.43-1.5-3.191-2.25-5.287-2.25
			c-1.686,0-3.168,0.469-4.453,1.402c-1.652,1.211-2.961,2.975-3.92,5.293c-0.959,2.32-1.459,5.629-1.498,9.924
			c1.271-1.934,2.828-3.369,4.666-4.307c1.84-0.938,3.768-1.406,5.783-1.406c3.52,0,6.52,1.293,8.994,3.883
			c2.475,2.586,3.713,5.932,3.713,10.033c0,2.695-0.582,5.201-1.746,7.514c-1.164,2.316-2.764,4.088-4.797,5.318
			c-2.035,1.23-4.344,1.846-6.926,1.846c-4.402,0-7.992-1.615-10.77-4.848c-2.779-3.23-4.168-8.557-4.168-15.977
			c0-8.297,1.535-14.33,4.609-18.1c2.682-3.279,6.293-4.92,10.834-4.92c3.385,0,6.16,0.947,8.322,2.84
			C286.836,171.609,288.133,174.225,288.562,177.562z M266.969,196.066c0,1.816,0.387,3.553,1.16,5.213
			c0.771,1.66,1.852,2.924,3.234,3.793c1.385,0.869,2.846,1.303,4.383,1.303c2.24,0,4.16-0.898,5.762-2.695
			c1.598-1.795,2.398-4.236,2.398-7.32c0-2.969-0.789-5.307-2.371-7.016c-1.578-1.707-3.578-2.562-5.996-2.562
			c-2.387,0-4.412,0.855-6.074,2.562C267.801,191.053,266.969,193.293,266.969,196.066z"/>
		<path d="M299.463,222.625h-3.781c5.834-9.375,8.75-18.762,8.75-28.156c0-3.672-0.42-7.314-1.258-10.93
			c-0.664-2.93-1.592-5.742-2.781-8.438c-0.76-1.758-2.33-4.688-4.711-8.789h3.781c3.662,4.902,6.371,9.824,8.125,14.766
			c1.5,4.26,2.25,8.713,2.25,13.361c0,5.273-1.008,10.373-3.025,15.295C304.797,214.656,302.346,218.953,299.463,222.625z"/>
	</g>
	<g>
		<path d="M960.242,122V79.031h14.805c3.344,0,5.895,0.205,7.652,0.615c2.461,0.566,4.562,1.592,6.305,3.078
			c2.266,1.914,3.961,4.361,5.086,7.342c1.121,2.98,1.684,6.385,1.684,10.215c0,3.264-0.379,6.156-1.145,8.676
			c-0.762,2.52-1.738,4.605-2.93,6.258s-2.496,2.951-3.914,3.898s-3.129,1.666-5.129,2.154c-2.004,0.488-4.305,0.732-6.906,0.732
			H960.242z M965.93,116.938h9.172c2.832,0,5.055-0.264,6.668-0.791c1.609-0.529,2.895-1.271,3.852-2.229
			c1.348-1.35,2.398-3.164,3.148-5.441c0.754-2.277,1.129-5.039,1.129-8.283c0-4.496-0.738-7.951-2.211-10.367
			c-1.477-2.414-3.27-4.031-5.379-4.854c-1.523-0.586-3.973-0.879-7.352-0.879h-9.027V116.938z"/>
		<path d="M1024.203,111.906l5.445,0.719c-0.859,3.188-2.453,5.662-4.777,7.422c-2.324,1.762-5.293,2.641-8.91,2.641
			c-4.551,0-8.16-1.4-10.824-4.201c-2.668-2.801-4-6.729-4-11.785c0-5.232,1.348-9.291,4.043-12.18s6.191-4.334,10.488-4.334
			c4.164,0,7.562,1.414,10.199,4.244s3.957,6.811,3.957,11.943c0,0.312-0.012,0.781-0.031,1.406h-23.25
			c0.195,3.414,1.164,6.027,2.906,7.842c1.746,1.814,3.918,2.721,6.523,2.721c1.941,0,3.598-0.512,4.969-1.535
			S1023.398,114.15,1024.203,111.906z M1006.824,103.438h17.438c-0.238-2.609-0.902-4.564-2-5.869
			c-1.688-2.025-3.871-3.037-6.559-3.037c-2.43,0-4.473,0.809-6.129,2.424C1007.914,98.57,1007,100.73,1006.824,103.438z"/>
		<path d="M1056.66,122v-4.576c-2.422,3.51-5.711,5.264-9.867,5.264c-1.836,0-3.551-0.352-5.141-1.055s-2.773-1.586-3.543-2.65
			c-0.773-1.064-1.312-2.369-1.625-3.912c-0.215-1.035-0.324-2.674-0.324-4.92V90.875h5.281v17.26c0,2.754,0.109,4.611,0.324,5.568
			c0.328,1.387,1.031,2.477,2.105,3.266c1.07,0.793,2.398,1.188,3.977,1.188c1.582,0,3.062-0.406,4.449-1.215
			c1.383-0.812,2.363-1.916,2.938-3.312s0.863-3.424,0.863-6.08V90.875h5.281V122H1056.66z"/>
		<path d="M1081.188,117.277l0.75,4.658c-1.488,0.314-2.816,0.471-3.988,0.471c-1.914,0-3.398-0.303-4.453-0.908
			s-1.797-1.402-2.227-2.389c-0.43-0.988-0.645-3.064-0.645-6.23v-17.91h-3.906v-4.094h3.906V83.17l5.281-3.164v10.869h5.281v4.094
			h-5.281v18.193c0,1.504,0.09,2.471,0.277,2.9c0.184,0.43,0.484,0.771,0.902,1.025s1.016,0.381,1.797,0.381
			C1079.465,117.469,1080.234,117.406,1081.188,117.277z"/>
		<path d="M1107.609,111.906l5.445,0.719c-0.859,3.188-2.453,5.662-4.777,7.422c-2.324,1.762-5.293,2.641-8.906,2.641
			c-4.551,0-8.16-1.4-10.828-4.201s-4-6.729-4-11.785c0-5.232,1.348-9.291,4.043-12.18s6.195-4.334,10.492-4.334
			c4.16,0,7.559,1.414,10.195,4.244c2.641,2.83,3.957,6.811,3.957,11.943c0,0.312-0.008,0.781-0.027,1.406h-23.254
			c0.195,3.414,1.168,6.027,2.91,7.842s3.918,2.721,6.523,2.721c1.938,0,3.594-0.512,4.965-1.535S1106.809,114.15,1107.609,111.906z
			 M1090.23,103.438h17.438c-0.234-2.609-0.902-4.564-2-5.869c-1.684-2.025-3.871-3.037-6.555-3.037
			c-2.434,0-4.477,0.809-6.133,2.424S1090.406,100.73,1090.23,103.438z"/>
		<path d="M1119.633,122V90.875h4.75v4.721c1.207-2.201,2.32-3.654,3.344-4.355s2.148-1.053,3.375-1.053
			c1.773,0,3.574,0.562,5.406,1.684l-1.844,4.879c-1.281-0.75-2.562-1.125-3.84-1.125c-1.145,0-2.172,0.348-3.082,1.041
			c-0.914,0.693-1.562,1.654-1.953,2.885c-0.586,1.877-0.875,3.928-0.875,6.156V122H1119.633z"/>
		<path d="M1139.707,85.094v-6.062h5.281v6.062H1139.707z M1139.707,122V90.875h5.281V122H1139.707z"/>
		<path d="M1173.379,122v-4.576c-2.422,3.51-5.711,5.264-9.867,5.264c-1.836,0-3.551-0.352-5.141-1.055s-2.773-1.586-3.543-2.65
			c-0.773-1.064-1.312-2.369-1.625-3.912c-0.215-1.035-0.324-2.674-0.324-4.92V90.875h5.281v17.26c0,2.754,0.109,4.611,0.324,5.568
			c0.328,1.387,1.031,2.477,2.105,3.266c1.07,0.793,2.398,1.188,3.977,1.188c1.582,0,3.062-0.406,4.449-1.215
			c1.383-0.812,2.363-1.916,2.938-3.312s0.863-3.424,0.863-6.08V90.875h5.281V122H1173.379z"/>
		<path d="M1186.359,122V90.875h4.719v4.373c0.977-1.521,2.277-2.744,3.902-3.67c1.621-0.928,3.469-1.391,5.543-1.391
			c2.305,0,4.195,0.479,5.672,1.434c1.477,0.957,2.52,2.293,3.125,4.008c2.465-3.627,5.676-5.441,9.629-5.441
			c3.094,0,5.469,0.855,7.133,2.562c1.664,1.711,2.496,4.342,2.496,7.895V122h-5.281v-19.602c0-2.109-0.172-3.629-0.512-4.557
			c-0.344-0.928-0.961-1.676-1.859-2.242s-1.957-0.85-3.168-0.85c-2.188,0-4.004,0.729-5.449,2.184s-2.168,3.785-2.168,6.988V122
			h-5.281v-20.219c0-2.344-0.43-4.102-1.289-5.273s-2.266-1.758-4.219-1.758c-1.488,0-2.859,0.391-4.121,1.172
			c-1.258,0.781-2.172,1.926-2.738,3.43s-0.852,3.672-0.852,6.504V122H1186.359z"/>
		<path d="M1039.68,194.625c-2.902-3.672-5.355-7.969-7.363-12.891s-3.012-10.021-3.012-15.295c0-4.648,0.75-9.102,2.25-13.361
			c1.754-4.941,4.461-9.863,8.125-14.766h3.781c-2.359,4.062-3.922,6.963-4.68,8.701c-1.191,2.697-2.129,5.51-2.812,8.439
			c-0.836,3.652-1.258,7.324-1.258,11.016c0,9.395,2.918,18.781,8.75,28.156H1039.68z"/>
		<path d="M1050.504,182v-42.969h5.688v17.656h22.281v-17.656h5.688V182h-5.688v-20.25h-22.281V182H1050.504z"/>
		<path d="M1090.867,169.094v-5.312h16.219v5.312H1090.867z"/>
		<path d="M1139.191,176.938V182h-28.406c-0.039-1.27,0.164-2.488,0.613-3.66c0.727-1.934,1.883-3.836,3.477-5.707
			s3.895-4.037,6.898-6.496c4.668-3.836,7.824-6.873,9.473-9.107s2.477-4.35,2.477-6.346c0-2.086-0.75-3.848-2.246-5.281
			c-1.5-1.436-3.453-2.152-5.859-2.152c-2.543,0-4.582,0.764-6.109,2.289c-1.523,1.525-2.297,3.637-2.316,6.336l-5.406-0.562
			c0.371-4.047,1.766-7.133,4.191-9.254c2.422-2.123,5.676-3.184,9.758-3.184c4.121,0,7.387,1.143,9.789,3.43
			c2.402,2.285,3.605,5.117,3.605,8.498c0,1.719-0.352,3.408-1.055,5.07c-0.703,1.66-1.871,3.408-3.504,5.244
			c-1.629,1.838-4.34,4.357-8.125,7.559c-3.164,2.656-5.199,4.459-6.102,5.406s-1.648,1.898-2.234,2.855H1139.191z"/>
		<path d="M1149.777,194.625h-3.781c5.832-9.375,8.75-18.762,8.75-28.156c0-3.672-0.418-7.314-1.258-10.93
			c-0.664-2.93-1.59-5.742-2.781-8.438c-0.758-1.758-2.332-4.688-4.711-8.789h3.781c3.664,4.902,6.371,9.824,8.125,14.766
			c1.5,4.26,2.25,8.713,2.25,13.361c0,5.273-1.008,10.373-3.023,15.295S1152.66,190.953,1149.777,194.625z"/>
	</g>
	<g>
		<path d="M56.82,1050l16.479-42.969h6.166L97.002,1050h-6.475l-4.965-13H67.531l-4.691,13H56.82z M69.174,1032.375h14.604
			l-4.492-11.906c-1.365-3.613-2.383-6.594-3.055-8.938c-0.566,2.766-1.344,5.508-2.334,8.227L69.174,1032.375z"/>
		<path d="M100.766,1050v-42.969h5.281V1050H100.766z"/>
		<path d="M114.221,1061.938v-43.062h4.812v4.055c1.131-1.582,2.41-2.766,3.834-3.555c1.426-0.793,3.152-1.188,5.182-1.188
			c2.654,0,4.996,0.684,7.025,2.051s3.561,3.293,4.596,5.781c1.033,2.488,1.551,5.219,1.551,8.184c0,3.184-0.57,6.047-1.713,8.594
			c-1.141,2.547-2.801,4.5-4.977,5.855s-4.463,2.035-6.863,2.035c-1.756,0-3.332-0.371-4.727-1.113
			c-1.395-0.746-2.543-1.684-3.439-2.82v15.184H114.221z M119.002,1034.605c0,4.004,0.809,6.957,2.428,8.871
			c1.617,1.91,3.576,2.867,5.875,2.867c2.34,0,4.344-0.988,6.01-2.969s2.5-5.051,2.5-9.207c0-3.961-0.814-6.926-2.441-8.898
			c-1.627-1.969-3.572-2.957-5.834-2.957c-2.242,0-4.225,1.051-5.949,3.148C119.863,1027.559,119.002,1030.605,119.002,1034.605z"/>
		<path d="M147.59,1050v-42.969h5.281v15.426c2.461-2.848,5.564-4.27,9.312-4.27c2.305,0,4.307,0.453,6.004,1.363
			c1.699,0.906,2.914,2.164,3.648,3.766c0.73,1.602,1.098,3.922,1.098,6.969V1050h-5.281v-19.719c0-2.637-0.57-4.559-1.713-5.758
			c-1.141-1.203-2.756-1.805-4.844-1.805c-1.561,0-3.029,0.406-4.404,1.219c-1.377,0.809-2.357,1.906-2.941,3.293
			c-0.586,1.391-0.879,3.305-0.879,5.746V1050H147.59z"/>
		<path d="M201.24,1046.156c-1.951,1.656-3.83,2.828-5.639,3.508c-1.807,0.684-3.746,1.023-5.816,1.023
			c-3.42,0-6.047-0.832-7.883-2.504c-1.838-1.668-2.756-3.801-2.756-6.398c0-1.52,0.346-2.91,1.041-4.172
			c0.693-1.258,1.602-2.266,2.725-3.027s2.389-1.34,3.795-1.73c1.035-0.273,2.6-0.535,4.689-0.789
			c4.26-0.508,7.396-1.113,9.408-1.816c0.02-0.719,0.029-1.18,0.029-1.375c0-2.141-0.498-3.652-1.494-4.527
			c-1.35-1.191-3.354-1.785-6.012-1.785c-2.48,0-4.312,0.438-5.496,1.309c-1.182,0.871-2.057,2.414-2.623,4.629l-5.156-0.719
			c0.469-2.211,1.24-3.996,2.316-5.355c1.074-1.359,2.629-2.402,4.662-3.137c2.031-0.734,4.387-1.102,7.066-1.102
			c2.656,0,4.816,0.312,6.479,0.941c1.66,0.625,2.883,1.41,3.664,2.359c0.783,0.949,1.33,2.148,1.643,3.594
			c0.176,0.902,0.264,2.523,0.264,4.863v7.023c0,4.895,0.111,7.992,0.334,9.293s0.664,2.547,1.322,3.738h-5.5
			C201.752,1048.906,201.398,1047.625,201.24,1046.156z M200.803,1034.375c-1.916,0.781-4.787,1.445-8.615,1.992
			c-2.17,0.312-3.703,0.664-4.602,1.055c-0.9,0.391-1.594,0.961-2.082,1.715c-0.488,0.75-0.732,1.586-0.732,2.504
			c0,1.406,0.533,2.578,1.598,3.516s2.623,1.406,4.674,1.406c2.033,0,3.84-0.441,5.424-1.328c1.582-0.887,2.744-2.102,3.488-3.648
			c0.566-1.191,0.85-2.949,0.85-5.273L200.803,1034.375z"/>
		<path d="M231.654,1050v-42.969h16.217c2.852,0,5.031,0.137,6.539,0.41c2.109,0.352,3.879,1.023,5.307,2.008
			c1.426,0.988,2.574,2.371,3.445,4.148c0.869,1.777,1.305,3.73,1.305,5.863c0,3.652-1.164,6.746-3.49,9.277
			c-2.326,2.527-6.529,3.793-12.609,3.793h-11.025V1050H231.654z M237.342,1027.469h11.107c3.676,0,6.283-0.684,7.828-2.055
			c1.543-1.367,2.314-3.293,2.314-5.777c0-1.801-0.455-3.34-1.363-4.621s-2.105-2.129-3.59-2.539
			c-0.959-0.254-2.727-0.383-5.307-0.383h-10.99V1027.469z"/>
		<path d="M291.299,1046.156c-1.951,1.656-3.83,2.828-5.639,3.508c-1.807,0.684-3.746,1.023-5.816,1.023
			c-3.42,0-6.047-0.832-7.883-2.504c-1.838-1.668-2.756-3.801-2.756-6.398c0-1.52,0.346-2.91,1.041-4.172
			c0.693-1.258,1.602-2.266,2.725-3.027s2.389-1.34,3.795-1.73c1.035-0.273,2.6-0.535,4.689-0.789
			c4.26-0.508,7.396-1.113,9.408-1.816c0.02-0.719,0.029-1.18,0.029-1.375c0-2.141-0.498-3.652-1.494-4.527
			c-1.35-1.191-3.354-1.785-6.012-1.785c-2.48,0-4.312,0.438-5.496,1.309c-1.182,0.871-2.057,2.414-2.623,4.629l-5.156-0.719
			c0.469-2.211,1.24-3.996,2.316-5.355c1.074-1.359,2.629-2.402,4.662-3.137c2.031-0.734,4.387-1.102,7.066-1.102
			c2.656,0,4.816,0.312,6.479,0.941c1.66,0.625,2.883,1.41,3.664,2.359c0.783,0.949,1.33,2.148,1.643,3.594
			c0.176,0.902,0.264,2.523,0.264,4.863v7.023c0,4.895,0.111,7.992,0.334,9.293s0.664,2.547,1.322,3.738h-5.5
			C291.811,1048.906,291.457,1047.625,291.299,1046.156z M290.861,1034.375c-1.916,0.781-4.787,1.445-8.615,1.992
			c-2.17,0.312-3.703,0.664-4.602,1.055c-0.9,0.391-1.594,0.961-2.082,1.715c-0.488,0.75-0.732,1.586-0.732,2.504
			c0,1.406,0.533,2.578,1.598,3.516s2.623,1.406,4.674,1.406c2.033,0,3.84-0.441,5.424-1.328c1.582-0.887,2.744-2.102,3.488-3.648
			c0.566-1.191,0.85-2.949,0.85-5.273L290.861,1034.375z"/>
		<path d="M304.324,1050v-31.125h4.75v4.723c1.207-2.203,2.322-3.656,3.346-4.355c1.021-0.703,2.146-1.055,3.373-1.055
			c1.773,0,3.574,0.562,5.406,1.684l-1.844,4.879c-1.279-0.75-2.559-1.125-3.84-1.125c-1.145,0-2.172,0.348-3.082,1.043
			c-0.912,0.691-1.562,1.652-1.951,2.883c-0.584,1.879-0.877,3.93-0.877,6.156V1050H304.324z"/>
		<path d="M335.898,1045.277l0.75,4.66c-1.484,0.312-2.814,0.469-3.986,0.469c-1.914,0-3.4-0.301-4.455-0.906
			s-1.797-1.402-2.227-2.391s-0.645-3.062-0.645-6.23v-17.91h-3.906v-4.094h3.906v-7.703l5.281-3.164v10.867h5.281v4.094h-5.281
			v18.195c0,1.504,0.092,2.469,0.277,2.898c0.184,0.43,0.486,0.773,0.904,1.027s1.016,0.379,1.795,0.379
			C334.176,1045.469,334.945,1045.406,335.898,1045.277z"/>
		<path d="M341.068,1013.094v-6.062h5.281v6.062H341.068z M341.068,1050v-31.125h5.281V1050H341.068z"/>
		<path d="M374.648,1038.594l5.188,0.719c-0.566,3.559-2.016,6.344-4.35,8.355c-2.334,2.016-5.199,3.02-8.596,3.02
			c-4.258,0-7.68-1.391-10.268-4.172s-3.881-6.77-3.881-11.961c0-3.355,0.557-6.293,1.67-8.812c1.111-2.52,2.807-4.406,5.08-5.664
			c2.275-1.262,4.75-1.891,7.426-1.891c3.377,0,6.141,0.855,8.289,2.562c2.146,1.711,3.523,4.137,4.129,7.281l-5.125,0.781
			c-0.488-2.082-1.354-3.652-2.594-4.703c-1.242-1.051-2.74-1.578-4.5-1.578c-2.656,0-4.816,0.953-6.477,2.852
			c-1.662,1.902-2.492,4.91-2.492,9.027c0,4.172,0.801,7.207,2.402,9.098s3.693,2.836,6.273,2.836c2.07,0,3.799-0.633,5.188-1.898
			C373.398,1043.176,374.277,1041.227,374.648,1038.594z"/>
		<path d="M384.242,1050v-42.969h5.281V1050H384.242z"/>
		<path d="M418.982,1039.906l5.445,0.719c-0.859,3.188-2.451,5.664-4.775,7.422c-2.326,1.762-5.295,2.641-8.91,2.641
			c-4.551,0-8.16-1.398-10.826-4.199s-4-6.73-4-11.785c0-5.234,1.348-9.293,4.043-12.18c2.697-2.891,6.193-4.336,10.49-4.336
			c4.162,0,7.561,1.414,10.199,4.246c2.637,2.828,3.955,6.809,3.955,11.941c0,0.312-0.01,0.781-0.029,1.406h-23.252
			c0.195,3.414,1.166,6.027,2.908,7.844c1.744,1.812,3.918,2.719,6.523,2.719c1.939,0,3.596-0.512,4.967-1.535
			S418.18,1042.152,418.982,1039.906z M401.604,1031.438h17.438c-0.236-2.609-0.902-4.562-2-5.867
			c-1.686-2.027-3.871-3.039-6.557-3.039c-2.432,0-4.475,0.809-6.131,2.426C402.695,1026.57,401.779,1028.73,401.604,1031.438z"/>
		<path d="M170.996,1122.625c-2.902-3.672-5.357-7.969-7.365-12.891c-2.006-4.922-3.01-10.02-3.01-15.293
			c0-4.648,0.75-9.102,2.25-13.363c1.754-4.941,4.461-9.863,8.125-14.766h3.781c-2.361,4.062-3.922,6.965-4.682,8.703
			c-1.191,2.695-2.127,5.508-2.811,8.438c-0.838,3.652-1.258,7.324-1.258,11.016c0,9.395,2.916,18.781,8.75,28.156H170.996z"/>
		<path d="M181.82,1110v-42.969h5.688v17.656h22.281v-17.656h5.688V1110h-5.688v-20.25h-22.281V1110H181.82z"/>
		<path d="M245.561,1099.906l5.445,0.719c-0.859,3.188-2.451,5.664-4.775,7.422c-2.326,1.762-5.295,2.641-8.91,2.641
			c-4.551,0-8.16-1.398-10.826-4.199s-4-6.73-4-11.785c0-5.234,1.348-9.293,4.043-12.18c2.697-2.891,6.193-4.336,10.49-4.336
			c4.162,0,7.561,1.414,10.199,4.246c2.637,2.828,3.955,6.809,3.955,11.941c0,0.312-0.01,0.781-0.029,1.406H227.9
			c0.195,3.414,1.166,6.027,2.908,7.844c1.744,1.812,3.918,2.719,6.523,2.719c1.939,0,3.596-0.512,4.967-1.535
			S244.758,1102.152,245.561,1099.906z M228.182,1091.438h17.438c-0.236-2.609-0.902-4.562-2-5.867
			c-1.686-2.027-3.871-3.039-6.557-3.039c-2.432,0-4.475,0.809-6.131,2.426C229.273,1086.57,228.357,1088.73,228.182,1091.438z"/>
		<path d="M255.551,1097.094v-5.312h16.219v5.312H255.551z"/>
		<path d="M293.031,1110v-10.281h-18.625v-4.844L294,1067.062h4.312v27.812h5.812v4.844h-5.812V1110H293.031z M293.031,1094.875
			v-19.348l-13.439,19.348H293.031z"/>
		<path d="M314.463,1122.625h-3.781c5.834-9.375,8.75-18.762,8.75-28.156c0-3.672-0.42-7.312-1.258-10.93
			c-0.664-2.93-1.592-5.742-2.781-8.438c-0.76-1.758-2.33-4.688-4.711-8.789h3.781c3.662,4.902,6.371,9.824,8.125,14.766
			c1.5,4.262,2.25,8.715,2.25,13.363c0,5.273-1.008,10.371-3.025,15.293C319.797,1114.656,317.346,1118.953,314.463,1122.625z"/>
	</g>
	<g>
		<path d="M860.82,1102l16.48-42.969h6.164L901.004,1102h-6.477l-4.965-13h-18.031l-4.691,13H860.82z M873.176,1084.375h14.602
			l-4.492-11.906c-1.363-3.613-2.383-6.594-3.055-8.938c-0.566,2.766-1.344,5.508-2.332,8.227L873.176,1084.375z"/>
		<path d="M904.766,1102v-42.969h5.281V1102H904.766z"/>
		<path d="M918.223,1113.938v-43.062h4.812v4.055c1.129-1.582,2.41-2.766,3.832-3.555c1.426-0.793,3.152-1.188,5.184-1.188
			c2.652,0,4.996,0.684,7.023,2.051c2.031,1.367,3.562,3.293,4.598,5.781c1.031,2.488,1.551,5.219,1.551,8.184
			c0,3.184-0.57,6.047-1.715,8.594c-1.141,2.547-2.801,4.5-4.977,5.855s-4.461,2.035-6.863,2.035c-1.754,0-3.332-0.371-4.727-1.113
			c-1.395-0.746-2.543-1.684-3.438-2.82v15.184H918.223z M923.004,1086.605c0,4.004,0.809,6.957,2.426,8.871
			c1.617,1.91,3.578,2.867,5.875,2.867c2.34,0,4.344-0.988,6.012-2.969c1.664-1.98,2.5-5.051,2.5-9.207
			c0-3.961-0.816-6.926-2.441-8.898c-1.629-1.969-3.574-2.957-5.836-2.957c-2.242,0-4.223,1.051-5.949,3.148
			S923.004,1082.605,923.004,1086.605z"/>
		<path d="M951.59,1102v-42.969h5.281v15.426c2.461-2.848,5.566-4.27,9.312-4.27c2.305,0,4.309,0.453,6.004,1.363
			c1.699,0.906,2.914,2.164,3.648,3.766c0.73,1.602,1.098,3.922,1.098,6.969V1102h-5.281v-19.719c0-2.637-0.57-4.559-1.711-5.758
			c-1.141-1.203-2.758-1.805-4.844-1.805c-1.562,0-3.031,0.406-4.406,1.219c-1.375,0.809-2.355,1.906-2.941,3.293
			c-0.586,1.391-0.879,3.305-0.879,5.746V1102H951.59z"/>
		<path d="M1005.242,1098.156c-1.953,1.656-3.832,2.828-5.641,3.508c-1.805,0.684-3.746,1.023-5.816,1.023
			c-3.418,0-6.047-0.832-7.883-2.504c-1.836-1.668-2.754-3.801-2.754-6.398c0-1.52,0.344-2.91,1.039-4.172
			c0.695-1.258,1.602-2.266,2.727-3.027c1.121-0.762,2.387-1.34,3.793-1.73c1.035-0.273,2.602-0.535,4.691-0.789
			c4.258-0.508,7.395-1.113,9.406-1.816c0.02-0.719,0.031-1.18,0.031-1.375c0-2.141-0.5-3.652-1.496-4.527
			c-1.348-1.191-3.352-1.785-6.012-1.785c-2.48,0-4.312,0.438-5.496,1.309c-1.18,0.871-2.055,2.414-2.621,4.629l-5.156-0.719
			c0.469-2.211,1.238-3.996,2.316-5.355c1.074-1.359,2.629-2.402,4.66-3.137s4.387-1.102,7.066-1.102
			c2.656,0,4.816,0.312,6.48,0.941c1.66,0.625,2.883,1.41,3.664,2.359s1.328,2.148,1.641,3.594c0.176,0.902,0.266,2.523,0.266,4.863
			v7.023c0,4.895,0.109,7.992,0.332,9.293s0.664,2.547,1.324,3.738h-5.5C1005.754,1100.906,1005.398,1099.625,1005.242,1098.156z
			 M1004.805,1086.375c-1.918,0.781-4.789,1.445-8.617,1.992c-2.168,0.312-3.703,0.664-4.602,1.055s-1.594,0.961-2.082,1.715
			c-0.488,0.75-0.73,1.586-0.73,2.504c0,1.406,0.531,2.578,1.598,3.516c1.062,0.938,2.621,1.406,4.672,1.406
			c2.035,0,3.84-0.441,5.426-1.328c1.582-0.887,2.742-2.102,3.488-3.648c0.566-1.191,0.848-2.949,0.848-5.273V1086.375z"/>
		<path d="M1035.656,1102v-42.969h16.215c2.852,0,5.031,0.137,6.539,0.41c2.109,0.352,3.879,1.023,5.309,2.008
			c1.426,0.988,2.574,2.371,3.445,4.148c0.867,1.777,1.305,3.73,1.305,5.863c0,3.652-1.164,6.746-3.492,9.277
			c-2.324,2.527-6.527,3.793-12.609,3.793h-11.023V1102H1035.656z M1041.344,1079.469h11.105c3.676,0,6.285-0.684,7.828-2.055
			c1.543-1.367,2.316-3.293,2.316-5.777c0-1.801-0.457-3.34-1.363-4.621c-0.91-1.281-2.105-2.129-3.59-2.539
			c-0.961-0.254-2.727-0.383-5.309-0.383h-10.988V1079.469z"/>
		<path d="M1095.301,1098.156c-1.953,1.656-3.832,2.828-5.641,3.508c-1.805,0.684-3.746,1.023-5.816,1.023
			c-3.418,0-6.047-0.832-7.883-2.504c-1.836-1.668-2.754-3.801-2.754-6.398c0-1.52,0.344-2.91,1.039-4.172
			c0.695-1.258,1.602-2.266,2.727-3.027c1.121-0.762,2.387-1.34,3.793-1.73c1.035-0.273,2.602-0.535,4.691-0.789
			c4.258-0.508,7.395-1.113,9.406-1.816c0.02-0.719,0.031-1.18,0.031-1.375c0-2.141-0.5-3.652-1.496-4.527
			c-1.348-1.191-3.352-1.785-6.012-1.785c-2.48,0-4.312,0.438-5.496,1.309c-1.18,0.871-2.055,2.414-2.621,4.629l-5.156-0.719
			c0.469-2.211,1.238-3.996,2.316-5.355c1.074-1.359,2.629-2.402,4.66-3.137s4.387-1.102,7.066-1.102
			c2.656,0,4.816,0.312,6.48,0.941c1.66,0.625,2.883,1.41,3.664,2.359s1.328,2.148,1.641,3.594c0.176,0.902,0.266,2.523,0.266,4.863
			v7.023c0,4.895,0.109,7.992,0.332,9.293s0.664,2.547,1.324,3.738h-5.5C1095.812,1100.906,1095.457,1099.625,1095.301,1098.156z
			 M1094.863,1086.375c-1.918,0.781-4.789,1.445-8.617,1.992c-2.168,0.312-3.703,0.664-4.602,1.055s-1.594,0.961-2.082,1.715
			c-0.488,0.75-0.73,1.586-0.73,2.504c0,1.406,0.531,2.578,1.598,3.516c1.062,0.938,2.621,1.406,4.672,1.406
			c2.035,0,3.84-0.441,5.426-1.328c1.582-0.887,2.742-2.102,3.488-3.648c0.566-1.191,0.848-2.949,0.848-5.273V1086.375z"/>
		<path d="M1108.324,1102v-31.125h4.75v4.723c1.207-2.203,2.324-3.656,3.348-4.355c1.02-0.703,2.145-1.055,3.371-1.055
			c1.773,0,3.574,0.562,5.406,1.684l-1.844,4.879c-1.277-0.75-2.559-1.125-3.84-1.125c-1.145,0-2.172,0.348-3.082,1.043
			c-0.91,0.691-1.562,1.652-1.949,2.883c-0.586,1.879-0.879,3.93-0.879,6.156V1102H1108.324z"/>
		<path d="M1139.898,1097.277l0.75,4.66c-1.484,0.312-2.812,0.469-3.984,0.469c-1.914,0-3.402-0.301-4.457-0.906
			s-1.797-1.402-2.227-2.391s-0.645-3.062-0.645-6.23v-17.91h-3.906v-4.094h3.906v-7.703l5.281-3.164v10.867h5.281v4.094h-5.281
			v18.195c0,1.504,0.094,2.469,0.277,2.898s0.488,0.773,0.906,1.027s1.016,0.379,1.793,0.379
			C1138.176,1097.469,1138.945,1097.406,1139.898,1097.277z"/>
		<path d="M1145.07,1065.094v-6.062h5.281v6.062H1145.07z M1145.07,1102v-31.125h5.281V1102H1145.07z"/>
		<path d="M1178.648,1090.594l5.188,0.719c-0.566,3.559-2.016,6.344-4.348,8.355c-2.336,2.016-5.199,3.02-8.598,3.02
			c-4.258,0-7.68-1.391-10.266-4.172c-2.59-2.781-3.883-6.77-3.883-11.961c0-3.355,0.559-6.293,1.672-8.812
			c1.109-2.52,2.805-4.406,5.078-5.664c2.277-1.262,4.75-1.891,7.426-1.891c3.379,0,6.141,0.855,8.289,2.562
			c2.148,1.711,3.523,4.137,4.129,7.281l-5.125,0.781c-0.488-2.082-1.352-3.652-2.594-4.703s-2.738-1.578-4.5-1.578
			c-2.656,0-4.816,0.953-6.477,2.852c-1.66,1.902-2.492,4.91-2.492,9.027c0,4.172,0.801,7.207,2.402,9.098s3.695,2.836,6.273,2.836
			c2.07,0,3.801-0.633,5.188-1.898C1177.398,1095.176,1178.277,1093.227,1178.648,1090.594z"/>
		<path d="M1188.242,1102v-42.969h5.281V1102H1188.242z"/>
		<path d="M1222.984,1091.906l5.445,0.719c-0.859,3.188-2.453,5.664-4.777,7.422c-2.324,1.762-5.293,2.641-8.91,2.641
			c-4.551,0-8.16-1.398-10.824-4.199c-2.668-2.801-4-6.73-4-11.785c0-5.234,1.348-9.293,4.043-12.18
			c2.695-2.891,6.191-4.336,10.488-4.336c4.164,0,7.562,1.414,10.199,4.246c2.637,2.828,3.957,6.809,3.957,11.941
			c0,0.312-0.012,0.781-0.031,1.406h-23.25c0.195,3.414,1.164,6.027,2.906,7.844c1.746,1.812,3.918,2.719,6.523,2.719
			c1.941,0,3.598-0.512,4.969-1.535S1222.18,1094.152,1222.984,1091.906z M1205.605,1083.438h17.438
			c-0.238-2.609-0.902-4.562-2-5.867c-1.688-2.027-3.871-3.039-6.559-3.039c-2.43,0-4.473,0.809-6.129,2.426
			C1206.695,1078.57,1205.781,1080.73,1205.605,1083.438z"/>
		<path d="M974.996,1174.625c-2.902-3.672-5.355-7.969-7.363-12.891s-3.012-10.02-3.012-15.293c0-4.648,0.75-9.102,2.25-13.363
			c1.754-4.941,4.461-9.863,8.125-14.766h3.781c-2.359,4.062-3.922,6.965-4.68,8.703c-1.191,2.695-2.129,5.508-2.812,8.438
			c-0.836,3.652-1.258,7.324-1.258,11.016c0,9.395,2.918,18.781,8.75,28.156H974.996z"/>
		<path d="M985.82,1162v-42.969h5.688v17.656h22.281v-17.656h5.688V1162h-5.688v-20.25h-22.281V1162H985.82z"/>
		<path d="M1049.562,1151.906l5.445,0.719c-0.859,3.188-2.453,5.664-4.777,7.422c-2.324,1.762-5.293,2.641-8.91,2.641
			c-4.551,0-8.16-1.398-10.824-4.199c-2.668-2.801-4-6.73-4-11.785c0-5.234,1.348-9.293,4.043-12.18
			c2.695-2.891,6.191-4.336,10.488-4.336c4.164,0,7.562,1.414,10.199,4.246c2.637,2.828,3.957,6.809,3.957,11.941
			c0,0.312-0.012,0.781-0.031,1.406h-23.25c0.195,3.414,1.164,6.027,2.906,7.844c1.746,1.812,3.918,2.719,6.523,2.719
			c1.941,0,3.598-0.512,4.969-1.535S1048.758,1154.152,1049.562,1151.906z M1032.184,1143.438h17.438
			c-0.238-2.609-0.902-4.562-2-5.867c-1.688-2.027-3.871-3.039-6.559-3.039c-2.43,0-4.473,0.809-6.129,2.426
			C1033.273,1138.57,1032.359,1140.73,1032.184,1143.438z"/>
		<path d="M1059.551,1149.094v-5.312h16.219v5.312H1059.551z"/>
		<path d="M1097.031,1162v-10.281h-18.625v-4.844l19.594-27.812h4.312v27.812h5.812v4.844h-5.812V1162H1097.031z M1097.031,1146.875
			v-19.348l-13.438,19.348H1097.031z"/>
		<path d="M1118.465,1174.625h-3.781c5.832-9.375,8.75-18.762,8.75-28.156c0-3.672-0.422-7.312-1.258-10.93
			c-0.664-2.93-1.594-5.742-2.781-8.438c-0.762-1.758-2.332-4.688-4.711-8.789h3.781c3.66,4.902,6.371,9.824,8.125,14.766
			c1.5,4.262,2.25,8.715,2.25,13.363c0,5.273-1.008,10.371-3.027,15.293C1123.797,1166.656,1121.348,1170.953,1118.465,1174.625z"/>
	</g>
	<g>
		<line style="&st9;" x1="520" y1="424" x2="570" y2="510"/>
		<path d="M566.309,503.65l14.5-26.672l0.951,0.467l6.736,45.014c4.605,14.369,9.211,28.742,13.814,43.115
			c-10.211-11.113-20.422-22.227-30.635-33.336l-35.785-28.125l-0.061-0.984L566.309,503.65z"/>
	</g>
	<g>
		<line style="&st9;" x1="741.031" y1="928.492" x2="814" y2="1054"/>
		<path d="M810.309,1047.648l14.5-26.672l0.949,0.469l6.738,45.016c4.605,14.367,9.211,28.742,13.816,43.113
			c-10.211-11.113-20.422-22.227-30.637-33.336l-35.785-28.125l-0.062-0.984L810.309,1047.648z"/>
	</g>
	<g>
		<line style="&st9;" x1="836.328" y1="395.83" x2="791.168" y2="484.467"/>
		<path d="M794.5,477.922l30.273-2.273l0.125,1.051l-34.176,30.064c-9.574,11.658-19.156,23.32-28.738,34.982
			c3.805-14.605,7.605-29.209,11.402-43.816l4.234-45.316l0.793-0.586L794.5,477.922z"/>
	</g>
	<g>
		<line style="&st9;" x1="562.328" y1="941.828" x2="517.168" y2="1030.469"/>
		<path d="M520.5,1023.922l30.273-2.273l0.125,1.051l-34.176,30.066c-9.574,11.656-19.156,23.32-28.738,34.98
			c3.805-14.605,7.605-29.207,11.402-43.816l4.234-45.316l0.793-0.586L520.5,1023.922z"/>
	</g>
	<g>
		<g>
			<g>
				
					<radialGradient id="XMLID_49_" cx="499.8188" cy="201.481" r="59.9997" gradientTransform="matrix(1 0 0 1 0.0015 9.765625e-04)" gradientUnits="userSpaceOnUse">
					<stop  offset="0" style="stop-color:#FFFFFF"/>
					<stop  offset="1" style="stop-color:#D24C88"/>
				</radialGradient>
				<path style="fill:url(#XMLID_49_);" d="M552.445,180.813c0,37.628-30.508,68.132-68.133,68.133
					c-37.628,0-68.133-30.505-68.133-68.133s30.504-68.131,68.133-68.132C521.938,112.683,552.445,143.186,552.445,180.813z"/>
				
					<radialGradient id="XMLID_50_" cx="704.3672" cy="438.7236" r="79.154" gradientTransform="matrix(0.7122 -0.7122 0.5677 0.5677 -263.4359 435.2992)" gradientUnits="userSpaceOnUse">
					<stop  offset="0.7978" style="stop-color:#D24C88"/>
					<stop  offset="1" style="stop-color:#F6DBE7"/>
				</radialGradient>
				<path style="fill:url(#XMLID_50_);" d="M454.748,151.249c17.275-17.275,39.014-25.607,56.677-23.5
					c-17.83-16.711-49.424-12.849-71.225,8.952c-21.802,21.802-25.663,53.394-8.953,71.223
					C429.141,190.261,437.472,168.526,454.748,151.249z"/>
			</g>
			<path style="&st10;" d="M479,211.125V186h-25v-10.5h25v-24.998h10.625V175.5h25V186h-25v25.125H479z"/>
		</g>
		<g>
			
				<radialGradient id="XMLID_51_" cx="405.8403" cy="241.3335" r="59.9997" gradientTransform="matrix(1 0 0 1 0.0015 9.765625e-04)" gradientUnits="userSpaceOnUse">
				<stop  offset="0" style="stop-color:#FFFFFF"/>
				<stop  offset="1" style="stop-color:#629FFF"/>
			</radialGradient>
			<path style="fill:url(#XMLID_51_);" d="M458.467,220.666c0,37.628-30.508,68.132-68.133,68.133
				c-37.628,0-68.133-30.505-68.133-68.133s30.504-68.131,68.133-68.132C427.959,152.535,458.467,183.038,458.467,220.666z"/>
			
				<radialGradient id="XMLID_52_" cx="610.4077" cy="391.0479" r="79.1534" gradientTransform="matrix(0.7122 -0.7122 0.5677 0.5677 -263.4359 435.2992)" gradientUnits="userSpaceOnUse">
				<stop  offset="0.7978" style="stop-color:#629FFF"/>
				<stop  offset="1" style="stop-color:#E0ECFF"/>
			</radialGradient>
			<path style="fill:url(#XMLID_52_);" d="M360.77,191.102c17.275-17.275,39.014-25.607,56.677-23.5
				c-17.83-16.711-49.424-12.849-71.225,8.952c-21.802,21.802-25.663,53.394-8.953,71.223
				C335.162,230.113,343.493,208.379,360.77,191.102z"/>
		</g>
		<g>
			
				<radialGradient id="XMLID_53_" cx="597.8403" cy="221.3335" r="59.9997" gradientTransform="matrix(1 0 0 1 0.0015 9.765625e-04)" gradientUnits="userSpaceOnUse">
				<stop  offset="0" style="stop-color:#FFFFFF"/>
				<stop  offset="1" style="stop-color:#629FFF"/>
			</radialGradient>
			<path style="fill:url(#XMLID_53_);" d="M650.467,200.666c0,37.628-30.508,68.132-68.133,68.133
				c-37.628,0-68.133-30.505-68.133-68.133s30.504-68.131,68.133-68.132C619.959,132.535,650.467,163.038,650.467,200.666z"/>
			
				<radialGradient id="XMLID_54_" cx="759.248" cy="542.5488" r="79.154" gradientTransform="matrix(0.7122 -0.7122 0.5677 0.5677 -263.4359 435.2992)" gradientUnits="userSpaceOnUse">
				<stop  offset="0.7978" style="stop-color:#629FFF"/>
				<stop  offset="1" style="stop-color:#E0ECFF"/>
			</radialGradient>
			<path style="fill:url(#XMLID_54_);" d="M552.77,171.102c17.275-17.275,39.014-25.607,56.677-23.5
				c-17.83-16.711-49.424-12.849-71.225,8.952c-21.802,21.802-25.663,53.394-8.953,71.223
				C527.162,210.113,535.493,188.379,552.77,171.102z"/>
		</g>
		<g>
			
				<radialGradient id="XMLID_55_" cx="505.8403" cy="319.3335" r="59.9997" gradientTransform="matrix(1 0 0 1 0.0015 9.765625e-04)" gradientUnits="userSpaceOnUse">
				<stop  offset="0" style="stop-color:#FFFFFF"/>
				<stop  offset="1" style="stop-color:#629FFF"/>
			</radialGradient>
			<path style="fill:url(#XMLID_55_);" d="M558.467,298.666c0,37.628-30.508,68.132-68.133,68.133
				c-37.628,0-68.133-30.505-68.133-68.133s30.504-68.131,68.133-68.132C527.959,230.535,558.467,261.038,558.467,298.666z"/>
			
				<radialGradient id="XMLID_56_" cx="625.854" cy="547.834" r="79.1534" gradientTransform="matrix(0.7122 -0.7122 0.5677 0.5677 -263.4359 435.2992)" gradientUnits="userSpaceOnUse">
				<stop  offset="0.7978" style="stop-color:#629FFF"/>
				<stop  offset="1" style="stop-color:#E0ECFF"/>
			</radialGradient>
			<path style="fill:url(#XMLID_56_);" d="M460.77,269.102c17.275-17.275,39.014-25.607,56.677-23.5
				c-17.83-16.711-49.424-12.849-71.225,8.952c-21.802,21.802-25.663,53.394-8.953,71.223
				C435.162,308.113,443.493,286.379,460.77,269.102z"/>
		</g>
		<g>
			<g>
				
					<radialGradient id="XMLID_57_" cx="397.8188" cy="363.481" r="59.9997" gradientTransform="matrix(1 0 0 1 0.0015 9.765625e-04)" gradientUnits="userSpaceOnUse">
					<stop  offset="0" style="stop-color:#FFFFFF"/>
					<stop  offset="1" style="stop-color:#D24C88"/>
				</radialGradient>
				<path style="fill:url(#XMLID_57_);" d="M450.445,342.813c0,37.628-30.508,68.132-68.133,68.133
					c-37.628,0-68.133-30.505-68.133-68.133s30.504-68.131,68.133-68.132C419.938,274.683,450.445,305.186,450.445,342.813z"/>
				
					<radialGradient id="XMLID_58_" cx="519.019" cy="491.5723" r="79.1534" gradientTransform="matrix(0.7122 -0.7122 0.5677 0.5677 -263.4359 435.2992)" gradientUnits="userSpaceOnUse">
					<stop  offset="0.7978" style="stop-color:#D24C88"/>
					<stop  offset="1" style="stop-color:#F6DBE7"/>
				</radialGradient>
				<path style="fill:url(#XMLID_58_);" d="M352.748,313.249c17.275-17.275,39.014-25.607,56.677-23.5
					c-17.83-16.711-49.424-12.849-71.225,8.952c-21.802,21.802-25.663,53.394-8.953,71.223
					C327.141,352.261,335.472,330.526,352.748,313.249z"/>
			</g>
			<path style="&st10;" d="M377,373.125V348h-25v-10.5h25v-24.998h10.625V337.5h25V348h-25v25.125H377z"/>
		</g>
		<g>
			<g>
				
					<radialGradient id="XMLID_59_" cx="607.8188" cy="343.981" r="59.9997" gradientTransform="matrix(1 0 0 1 0.0015 9.765625e-04)" gradientUnits="userSpaceOnUse">
					<stop  offset="0" style="stop-color:#FFFFFF"/>
					<stop  offset="1" style="stop-color:#D24C88"/>
				</radialGradient>
				<path style="fill:url(#XMLID_59_);" d="M660.445,323.313c0,37.628-30.508,68.132-68.133,68.133
					c-37.628,0-68.133-30.505-68.133-68.133s30.504-68.131,68.133-68.132C629.938,255.183,660.445,285.686,660.445,323.313z"/>
				
					<radialGradient id="XMLID_60_" cx="680.1455" cy="659.3682" r="79.154" gradientTransform="matrix(0.7122 -0.7122 0.5677 0.5677 -263.4359 435.2992)" gradientUnits="userSpaceOnUse">
					<stop  offset="0.7978" style="stop-color:#D24C88"/>
					<stop  offset="1" style="stop-color:#F6DBE7"/>
				</radialGradient>
				<path style="fill:url(#XMLID_60_);" d="M562.748,293.749c17.275-17.275,39.014-25.607,56.677-23.5
					c-17.83-16.711-49.424-12.849-71.225,8.952c-21.802,21.802-25.663,53.394-8.953,71.223
					C537.141,332.761,545.472,311.026,562.748,293.749z"/>
			</g>
			<path style="&st10;" d="M587,353.625V328.5h-25V318h25v-24.998h10.625V318h25v10.5h-25v25.125H587z"/>
		</g>
	</g>
	<g>
		<g>
			<g>
				
					<radialGradient id="XMLID_61_" cx="959.8184" cy="223.981" r="59.9997" gradientTransform="matrix(1 0 0 1 0.0015 9.765625e-04)" gradientUnits="userSpaceOnUse">
					<stop  offset="0" style="stop-color:#FFFFFF"/>
					<stop  offset="1" style="stop-color:#D24C88"/>
				</radialGradient>
				<path style="fill:url(#XMLID_61_);" d="M1012.445,203.313c0,37.628-30.508,68.132-68.133,68.133
					c-37.629,0-68.133-30.505-68.133-68.133s30.504-68.131,68.133-68.132C981.938,135.183,1012.445,165.686,1012.445,203.313z"/>
				
					<radialGradient id="XMLID_62_" cx="1011.5264" cy="863.7197" r="79.1545" gradientTransform="matrix(0.7122 -0.7122 0.5677 0.5677 -263.4359 435.2992)" gradientUnits="userSpaceOnUse">
					<stop  offset="0.7978" style="stop-color:#D24C88"/>
					<stop  offset="1" style="stop-color:#F6DBE7"/>
				</radialGradient>
				<path style="fill:url(#XMLID_62_);" d="M914.748,173.749c17.275-17.275,39.014-25.607,56.678-23.5
					c-17.832-16.711-49.426-12.849-71.227,8.952c-21.801,21.802-25.662,53.394-8.953,71.223
					C889.141,212.761,897.473,191.026,914.748,173.749z"/>
			</g>
			<path style="&st10;" d="M939,233.625V208.5h-25V198h25v-24.998h10.625V198h25v10.5h-25v25.125H939z"/>
		</g>
		<g>
			
				<radialGradient id="XMLID_63_" cx="901.8398" cy="309.3335" r="59.9997" gradientTransform="matrix(1 0 0 1 0.0015 9.765625e-04)" gradientUnits="userSpaceOnUse">
				<stop  offset="0" style="stop-color:#FFFFFF"/>
				<stop  offset="1" style="stop-color:#629FFF"/>
			</radialGradient>
			<path style="fill:url(#XMLID_63_);" d="M954.467,288.666c0,37.628-30.508,68.132-68.133,68.133
				c-37.627,0-68.133-30.505-68.133-68.133s30.504-68.131,68.133-68.132C923.959,220.535,954.467,251.038,954.467,288.666z"/>
			
				<radialGradient id="XMLID_64_" cx="910.8965" cy="887.8281" r="79.1523" gradientTransform="matrix(0.7122 -0.7122 0.5677 0.5677 -263.4359 435.2992)" gradientUnits="userSpaceOnUse">
				<stop  offset="0.7978" style="stop-color:#629FFF"/>
				<stop  offset="1" style="stop-color:#E0ECFF"/>
			</radialGradient>
			<path style="fill:url(#XMLID_64_);" d="M856.77,259.102c17.275-17.275,39.014-25.607,56.676-23.5
				c-17.828-16.711-49.422-12.849-71.223,8.952c-21.803,21.802-25.664,53.394-8.953,71.223
				C831.162,298.113,839.492,276.379,856.77,259.102z"/>
		</g>
	</g>
	<g>
		<g>
			<path style="&st50;" d="M929.562,759.393c0.344,15.336-6.172,31.932-19.172,44.932c-12.996,12.996-29.594,19.512-44.93,19.172
				c17.891,8.684,40.043,5.648,54.895-9.207C935.211,799.434,938.246,777.285,929.562,759.393z"/>
			<path style="&st50;" d="M938.254,793.727c0.203,9.199-3.707,19.16-11.504,26.957c-7.797,7.793-17.758,11.707-26.957,11.504
				c10.73,5.211,24.023,3.387,32.938-5.523C941.641,817.746,943.461,804.457,938.254,793.727z"/>
		</g>
		<g>
			<path style="&st50;" d="M700.305,829.293c-10.602,11.086-26.945,18.219-45.328,18.215c-18.379,0-34.723-7.129-45.328-18.215
				c6.512,18.793,24.324,32.312,45.328,32.309C675.984,861.602,693.793,848.086,700.305,829.293z"/>
			<path style="&st50;" d="M682.172,859.715c-6.359,6.648-16.168,10.93-27.195,10.93c-11.023,0-20.836-4.281-27.195-10.93
				c3.902,11.273,14.594,19.383,27.195,19.387C667.582,879.098,678.266,870.988,682.172,859.715z"/>
		</g>
		<g>
			<path style="&st50;" d="M476.521,685.994c-0.344-15.336,6.172-31.934,19.172-44.932c12.996-12.996,29.594-19.514,44.93-19.172
				c-17.891-8.684-40.043-5.648-54.895,9.207C470.873,645.951,467.838,668.102,476.521,685.994z"/>
			<path style="&st50;" d="M467.83,651.66c-0.203-9.197,3.707-19.158,11.504-26.955s17.758-11.709,26.957-11.504
				c-10.73-5.213-24.023-3.389-32.938,5.523C464.443,627.639,462.623,640.928,467.83,651.66z"/>
		</g>
		<g>
			<path style="&st50;" d="M705.725,618.054c10.602-11.086,26.945-18.215,45.328-18.215c18.379,0,34.727,7.129,45.328,18.215
				c-6.512-18.793-24.32-32.309-45.328-32.309S712.236,599.261,705.725,618.054z"/>
			<path style="&st50;" d="M723.857,587.632c6.359-6.648,16.168-10.926,27.195-10.926s20.836,4.277,27.195,10.926
				c-3.902-11.273-14.59-19.383-27.195-19.383S727.764,576.358,723.857,587.632z"/>
		</g>
		<g>
			<path style="&st52;" d="M484.57,859.66c-11.086-10.602-18.215-26.941-18.215-45.324s7.129-34.732,18.215-45.334
				c-18.793,6.516-32.309,24.318-32.309,45.334C452.262,835.34,465.777,853.148,484.57,859.66z"/>
			<path style="&st52;" d="M454.148,841.527c-6.648-6.359-10.926-16.168-10.926-27.191c0-11.031,4.277-20.844,10.926-27.201
				c-11.273,3.904-19.379,14.592-19.379,27.201C434.77,826.938,442.875,837.621,454.148,841.527z"/>
		</g>
		<g>
			<path style="&st52;" d="M601.726,596.013c10.602-11.084,26.945-18.213,45.328-18.213c18.379,0,34.731,7.129,45.333,18.213
				c-6.516-18.791-24.321-32.307-45.333-32.307C626.046,563.706,608.237,577.222,601.726,596.013z"/>
			<path style="&st52;" d="M619.858,565.593c6.359-6.648,16.168-10.926,27.195-10.926s20.84,4.277,27.2,10.926
				c-3.907-11.273-14.595-19.381-27.2-19.381S623.765,554.319,619.858,565.593z"/>
		</g>
		<g>
			<path style="&st52;" d="M804.135,854.713c-10.602,11.086-26.945,18.219-45.328,18.219c-18.379,0-34.73-7.133-45.332-18.219
				c6.516,18.797,24.32,32.312,45.332,32.312C779.814,887.025,797.623,873.51,804.135,854.713z"/>
			<path style="&st52;" d="M786.002,885.135c-6.359,6.648-16.168,10.93-27.195,10.93s-20.84-4.281-27.199-10.93
				c3.906,11.273,14.594,19.383,27.199,19.383S782.096,896.408,786.002,885.135z"/>
		</g>
		<g>
			<path style="&st52;" d="M910.605,587.402c11.086,10.602,18.215,26.947,18.215,45.328s-7.129,34.729-18.215,45.33
				c18.793-6.512,32.309-24.32,32.309-45.33C942.914,611.723,929.398,593.914,910.605,587.402z"/>
			<path style="&st52;" d="M941.027,605.535c6.648,6.359,10.926,16.168,10.926,27.195c0,11.029-4.277,20.838-10.926,27.197
				c11.273-3.904,19.383-14.592,19.383-27.197C960.41,620.127,952.301,609.441,941.027,605.535z"/>
		</g>
		<g>
			<g>
				
					<radialGradient id="XMLID_65_" cx="661.8184" cy="675.981" r="59.9997" gradientTransform="matrix(1 0 0 1 0.0015 9.765625e-04)" gradientUnits="userSpaceOnUse">
					<stop  offset="0" style="stop-color:#FFFFFF"/>
					<stop  offset="1" style="stop-color:#D24C88"/>
				</radialGradient>
				<path style="fill:url(#XMLID_65_);" d="M714.445,655.313c0,37.628-30.508,68.132-68.133,68.133
					c-37.629,0-68.133-30.505-68.133-68.133s30.504-68.131,68.133-68.132C683.938,587.183,714.445,617.686,714.445,655.313z"/>
				
					<radialGradient id="XMLID_66_" cx="484.9683" cy="999.3672" r="79.1556" gradientTransform="matrix(0.7122 -0.7122 0.5677 0.5677 -263.4359 435.2992)" gradientUnits="userSpaceOnUse">
					<stop  offset="0.7978" style="stop-color:#D24C88"/>
					<stop  offset="1" style="stop-color:#F6DBE7"/>
				</radialGradient>
				<path style="fill:url(#XMLID_66_);" d="M616.748,625.749c17.275-17.275,39.014-25.607,56.678-23.5
					c-17.832-16.711-49.426-12.849-71.227,8.952c-21.801,21.802-25.662,53.394-8.953,71.223
					C591.141,664.761,599.473,643.026,616.748,625.749z"/>
			</g>
			<path style="&st10;" d="M641,685.625V660.5h-25V650h25v-24.998h10.625V650h25v10.5h-25v25.125H641z"/>
		</g>
		<g>
			<g>
				
					<radialGradient id="XMLID_67_" cx="867.8184" cy="653.981" r="59.9997" gradientTransform="matrix(1 0 0 1 0.0015 9.765625e-04)" gradientUnits="userSpaceOnUse">
					<stop  offset="0" style="stop-color:#FFFFFF"/>
					<stop  offset="1" style="stop-color:#D24C88"/>
				</radialGradient>
				<path style="fill:url(#XMLID_67_);" d="M920.445,633.313c0,37.628-30.508,68.132-68.133,68.133
					c-37.629,0-68.133-30.505-68.133-68.133s30.504-68.131,68.133-68.132C889.938,565.183,920.445,595.686,920.445,633.313z"/>
				
					<radialGradient id="XMLID_68_" cx="645.042" cy="1161.4375" r="79.1551" gradientTransform="matrix(0.7122 -0.7122 0.5677 0.5677 -263.4359 435.2992)" gradientUnits="userSpaceOnUse">
					<stop  offset="0.7978" style="stop-color:#D24C88"/>
					<stop  offset="1" style="stop-color:#F6DBE7"/>
				</radialGradient>
				<path style="fill:url(#XMLID_68_);" d="M822.748,603.749c17.275-17.275,39.014-25.607,56.678-23.5
					c-17.832-16.711-49.426-12.849-71.227,8.952c-21.801,21.802-25.662,53.394-8.953,71.223
					C797.141,642.761,805.473,621.026,822.748,603.749z"/>
			</g>
			<path style="&st10;" d="M847,663.625V638.5h-25V628h25v-24.998h10.625V628h25v10.5h-25v25.125H847z"/>
		</g>
		<g>
			
				<radialGradient id="XMLID_69_" cx="567.8403" cy="715.3335" r="59.9997" gradientTransform="matrix(1 0 0 1 0.0015 9.765625e-04)" gradientUnits="userSpaceOnUse">
				<stop  offset="0" style="stop-color:#FFFFFF"/>
				<stop  offset="1" style="stop-color:#629FFF"/>
			</radialGradient>
			<path style="fill:url(#XMLID_69_);" d="M620.467,694.666c0,37.628-30.508,68.132-68.133,68.133
				c-37.627,0-68.133-30.505-68.133-68.133s30.504-68.131,68.133-68.132C589.959,626.535,620.467,657.038,620.467,694.666z"/>
			
				<radialGradient id="XMLID_70_" cx="391.3599" cy="951.248" r="79.1528" gradientTransform="matrix(0.7122 -0.7122 0.5677 0.5677 -263.4359 435.2992)" gradientUnits="userSpaceOnUse">
				<stop  offset="0.7978" style="stop-color:#629FFF"/>
				<stop  offset="1" style="stop-color:#E0ECFF"/>
			</radialGradient>
			<path style="fill:url(#XMLID_70_);" d="M522.77,665.102c17.275-17.275,39.014-25.607,56.676-23.5
				c-17.828-16.711-49.422-12.849-71.223,8.952c-21.803,21.802-25.664,53.394-8.953,71.223
				C497.162,704.113,505.492,682.379,522.77,665.102z"/>
		</g>
		<g>
			
				<radialGradient id="XMLID_71_" cx="767.8398" cy="697.3335" r="59.9997" gradientTransform="matrix(1 0 0 1 0.0015 9.765625e-04)" gradientUnits="userSpaceOnUse">
				<stop  offset="0" style="stop-color:#FFFFFF"/>
				<stop  offset="1" style="stop-color:#629FFF"/>
			</radialGradient>
			<path style="fill:url(#XMLID_71_);" d="M820.467,676.666c0,37.628-30.508,68.132-68.133,68.133
				c-37.627,0-68.133-30.505-68.133-68.133s30.504-68.131,68.133-68.132C789.959,608.535,820.467,639.038,820.467,676.666z"/>
			
				<radialGradient id="XMLID_72_" cx="544.4126" cy="1111.5566" r="79.1528" gradientTransform="matrix(0.7122 -0.7122 0.5677 0.5677 -263.4359 435.2992)" gradientUnits="userSpaceOnUse">
				<stop  offset="0.7978" style="stop-color:#629FFF"/>
				<stop  offset="1" style="stop-color:#E0ECFF"/>
			</radialGradient>
			<path style="fill:url(#XMLID_72_);" d="M722.77,647.102c17.275-17.275,39.014-25.607,56.676-23.5
				c-17.828-16.711-49.422-12.849-71.223,8.952c-21.803,21.802-25.664,53.394-8.953,71.223
				C697.162,686.113,705.492,664.379,722.77,647.102z"/>
		</g>
		<g>
			
				<radialGradient id="XMLID_73_" cx="669.8398" cy="789.334" r="59.9994" gradientTransform="matrix(1 0 0 1 0.0015 9.765625e-04)" gradientUnits="userSpaceOnUse">
				<stop  offset="0" style="stop-color:#FFFFFF"/>
				<stop  offset="1" style="stop-color:#629FFF"/>
			</radialGradient>
			<path style="fill:url(#XMLID_73_);" d="M722.467,768.666c0,37.627-30.508,68.131-68.133,68.133
				c-37.627,0-68.133-30.506-68.133-68.133c0-37.628,30.504-68.131,68.133-68.132C691.959,700.535,722.467,731.038,722.467,768.666z
				"/>
			
				<radialGradient id="XMLID_74_" cx="411.0181" cy="1106.2725" r="79.1528" gradientTransform="matrix(0.7122 -0.7122 0.5677 0.5677 -263.4359 435.2992)" gradientUnits="userSpaceOnUse">
				<stop  offset="0.7978" style="stop-color:#629FFF"/>
				<stop  offset="1" style="stop-color:#E0ECFF"/>
			</radialGradient>
			<path style="fill:url(#XMLID_74_);" d="M624.77,739.102c17.275-17.275,39.014-25.607,56.676-23.5
				c-17.828-16.711-49.422-12.849-71.223,8.952c-21.803,21.802-25.664,53.394-8.953,71.224
				C599.162,778.113,607.492,756.379,624.77,739.102z"/>
		</g>
		<g>
			
				<radialGradient id="XMLID_75_" cx="869.8398" cy="771.3335" r="59.9997" gradientTransform="matrix(1 0 0 1 0.0015 9.765625e-04)" gradientUnits="userSpaceOnUse">
				<stop  offset="0" style="stop-color:#FFFFFF"/>
				<stop  offset="1" style="stop-color:#629FFF"/>
			</radialGradient>
			<path style="fill:url(#XMLID_75_);" d="M922.467,750.666c0,37.627-30.508,68.131-68.133,68.133
				c-37.627,0-68.133-30.506-68.133-68.133c0-37.628,30.504-68.131,68.133-68.132C891.959,682.535,922.467,713.038,922.467,750.666z
				"/>
			
				<radialGradient id="XMLID_76_" cx="564.0708" cy="1266.5811" r="79.1528" gradientTransform="matrix(0.7122 -0.7122 0.5677 0.5677 -263.4359 435.2992)" gradientUnits="userSpaceOnUse">
				<stop  offset="0.7978" style="stop-color:#629FFF"/>
				<stop  offset="1" style="stop-color:#E0ECFF"/>
			</radialGradient>
			<path style="fill:url(#XMLID_76_);" d="M824.77,721.102c17.275-17.275,39.014-25.607,56.676-23.5
				c-17.828-16.711-49.422-12.849-71.223,8.952c-21.803,21.802-25.664,53.394-8.953,71.224
				C799.162,760.113,807.492,738.379,824.77,721.102z"/>
		</g>
		<g>
			<g>
				
					<radialGradient id="XMLID_77_" cx="559.8188" cy="833.9805" r="59.9994" gradientTransform="matrix(1 0 0 1 0.0015 9.765625e-04)" gradientUnits="userSpaceOnUse">
					<stop  offset="0" style="stop-color:#FFFFFF"/>
					<stop  offset="1" style="stop-color:#D24C88"/>
				</radialGradient>
				<path style="fill:url(#XMLID_77_);" d="M612.445,813.312c0,37.629-30.508,68.133-68.133,68.133
					c-37.629,0-68.133-30.504-68.133-68.133c0-37.627,30.504-68.13,68.133-68.131C581.938,745.183,612.445,775.686,612.445,813.312z
					"/>
				
					<radialGradient id="XMLID_78_" cx="302.4282" cy="1048.6914" r="79.1551" gradientTransform="matrix(0.7122 -0.7122 0.5677 0.5677 -263.4359 435.2992)" gradientUnits="userSpaceOnUse">
					<stop  offset="0.7978" style="stop-color:#D24C88"/>
					<stop  offset="1" style="stop-color:#F6DBE7"/>
				</radialGradient>
				<path style="fill:url(#XMLID_78_);" d="M514.748,783.749c17.275-17.275,39.014-25.607,56.678-23.5
					c-17.832-16.711-49.426-12.849-71.227,8.952c-21.801,21.803-25.662,53.393-8.953,71.223
					C489.141,822.762,497.473,801.027,514.748,783.749z"/>
			</g>
			<path style="&st10;" d="M539,843.625V818.5h-25V808h25v-24.998h10.625V808h25v10.5h-25v25.125H539z"/>
		</g>
		<g>
			<g>
				
					<radialGradient id="XMLID_79_" cx="773.8184" cy="815.9805" r="59.9994" gradientTransform="matrix(1 0 0 1 0.0015 9.765625e-04)" gradientUnits="userSpaceOnUse">
					<stop  offset="0" style="stop-color:#FFFFFF"/>
					<stop  offset="1" style="stop-color:#D24C88"/>
				</radialGradient>
				<path style="fill:url(#XMLID_79_);" d="M826.445,795.312c0,37.629-30.508,68.133-68.133,68.133
					c-37.629,0-68.133-30.504-68.133-68.133c0-37.627,30.504-68.13,68.133-68.131C795.938,727.183,826.445,757.686,826.445,795.312z
					"/>
				
					<radialGradient id="XMLID_80_" cx="465.3105" cy="1221.332" r="79.1545" gradientTransform="matrix(0.7122 -0.7122 0.5677 0.5677 -263.4359 435.2992)" gradientUnits="userSpaceOnUse">
					<stop  offset="0.7978" style="stop-color:#D24C88"/>
					<stop  offset="1" style="stop-color:#F6DBE7"/>
				</radialGradient>
				<path style="fill:url(#XMLID_80_);" d="M728.748,765.749c17.275-17.275,39.014-25.607,56.678-23.5
					c-17.832-16.711-49.426-12.849-71.227,8.952c-21.801,21.803-25.662,53.393-8.953,71.223
					C703.141,804.762,711.473,783.027,728.748,765.749z"/>
			</g>
			<path style="&st10;" d="M753,825.625V800.5h-25V790h25v-24.998h10.625V790h25v10.5h-25v25.125H753z"/>
		</g>
	</g>
	<g>
		<g>
			
				<radialGradient id="XMLID_81_" cx="451.8403" cy="1197.334" r="59.9994" gradientTransform="matrix(1 0 0 1 0.0015 9.765625e-04)" gradientUnits="userSpaceOnUse">
				<stop  offset="0" style="stop-color:#FFFFFF"/>
				<stop  offset="1" style="stop-color:#629FFF"/>
			</radialGradient>
			<path style="fill:url(#XMLID_81_);" d="M504.467,1176.666c0,37.627-30.508,68.131-68.133,68.133
				c-37.627,0-68.133-30.506-68.133-68.133s30.504-68.131,68.133-68.131C473.959,1108.535,504.467,1139.039,504.467,1176.666z"/>
			
				<radialGradient id="XMLID_82_" cx="-28.4824" cy="1273.626" r="79.1523" gradientTransform="matrix(0.7122 -0.7122 0.5677 0.5677 -263.4359 435.2992)" gradientUnits="userSpaceOnUse">
				<stop  offset="0.7978" style="stop-color:#629FFF"/>
				<stop  offset="1" style="stop-color:#E0ECFF"/>
			</radialGradient>
			<path style="fill:url(#XMLID_82_);" d="M406.77,1147.102c17.275-17.275,39.014-25.607,56.676-23.5
				c-17.828-16.711-49.422-12.848-71.223,8.953c-21.803,21.801-25.664,53.393-8.953,71.223
				C381.162,1186.113,389.492,1164.379,406.77,1147.102z"/>
		</g>
		<g>
			<g>
				
					<radialGradient id="XMLID_83_" cx="331.8188" cy="1221.9805" r="59.9994" gradientTransform="matrix(1 0 0 1 0.0015 9.765625e-04)" gradientUnits="userSpaceOnUse">
					<stop  offset="0" style="stop-color:#FFFFFF"/>
					<stop  offset="1" style="stop-color:#D24C88"/>
				</radialGradient>
				<path style="fill:url(#XMLID_83_);" d="M384.445,1201.312c0,37.629-30.508,68.133-68.133,68.133
					c-37.629,0-68.133-30.504-68.133-68.133c0-37.627,30.504-68.129,68.133-68.131
					C353.938,1133.184,384.445,1163.686,384.445,1201.312z"/>
				
					<radialGradient id="XMLID_84_" cx="-130.0513" cy="1189.625" r="79.1545" gradientTransform="matrix(0.7122 -0.7122 0.5677 0.5677 -263.4359 435.2992)" gradientUnits="userSpaceOnUse">
					<stop  offset="0.7978" style="stop-color:#D24C88"/>
					<stop  offset="1" style="stop-color:#F6DBE7"/>
				</radialGradient>
				<path style="fill:url(#XMLID_84_);" d="M286.748,1171.75c17.275-17.277,39.014-25.609,56.678-23.5
					c-17.832-16.711-49.426-12.85-71.227,8.951c-21.801,21.803-25.662,53.393-8.953,71.223
					C261.141,1210.762,269.473,1189.027,286.748,1171.75z"/>
			</g>
			<path style="&st10;" d="M311,1231.625V1206.5h-25V1196h25v-24.998h10.625V1196h25v10.5h-25v25.125H311z"/>
		</g>
		<g>
			<g>
				
					<radialGradient id="XMLID_85_" cx="514.1938" cy="1297.9805" r="59.9994" gradientTransform="matrix(1 0 0 1 0.0015 9.765625e-04)" gradientUnits="userSpaceOnUse">
					<stop  offset="0" style="stop-color:#FFFFFF"/>
					<stop  offset="1" style="stop-color:#D24C88"/>
				</radialGradient>
				<path style="fill:url(#XMLID_85_);" d="M566.82,1277.312c0,37.629-30.508,68.133-68.133,68.133
					c-37.629,0-68.133-30.504-68.133-68.133c0-37.627,30.504-68.129,68.133-68.131
					C536.312,1209.184,566.82,1239.686,566.82,1277.312z"/>
				
					<radialGradient id="XMLID_86_" cx="-55.3677" cy="1417.2061" r="79.1545" gradientTransform="matrix(0.7122 -0.7122 0.5677 0.5677 -263.4359 435.2992)" gradientUnits="userSpaceOnUse">
					<stop  offset="0.7978" style="stop-color:#D24C88"/>
					<stop  offset="1" style="stop-color:#F6DBE7"/>
				</radialGradient>
				<path style="fill:url(#XMLID_86_);" d="M469.123,1247.75c17.275-17.277,39.014-25.609,56.678-23.5
					c-17.832-16.711-49.426-12.85-71.227,8.951c-21.801,21.803-25.662,53.393-8.953,71.223
					C443.516,1286.762,451.848,1265.027,469.123,1247.75z"/>
			</g>
			<path style="&st10;" d="M493.375,1307.625V1282.5h-25V1272h25v-24.998H504V1272h25v10.5h-25v25.125H493.375z"/>
		</g>
		<g>
			
				<radialGradient id="XMLID_87_" cx="397.8403" cy="1321.334" r="59.9994" gradientTransform="matrix(1 0 0 1 0.0015 9.765625e-04)" gradientUnits="userSpaceOnUse">
				<stop  offset="0" style="stop-color:#FFFFFF"/>
				<stop  offset="1" style="stop-color:#629FFF"/>
			</radialGradient>
			<path style="fill:url(#XMLID_87_);" d="M450.467,1300.666c0,37.627-30.508,68.131-68.133,68.133
				c-37.627,0-68.133-30.506-68.133-68.133s30.504-68.131,68.133-68.131C419.959,1232.535,450.467,1263.039,450.467,1300.666z"/>
			
				<radialGradient id="XMLID_88_" cx="-153.4521" cy="1335.2852" r="79.1528" gradientTransform="matrix(0.7122 -0.7122 0.5677 0.5677 -263.4359 435.2992)" gradientUnits="userSpaceOnUse">
				<stop  offset="0.7978" style="stop-color:#629FFF"/>
				<stop  offset="1" style="stop-color:#E0ECFF"/>
			</radialGradient>
			<path style="fill:url(#XMLID_88_);" d="M352.77,1271.102c17.275-17.275,39.014-25.607,56.676-23.5
				c-17.828-16.711-49.422-12.848-71.223,8.953c-21.803,21.801-25.664,53.393-8.953,71.223
				C327.162,1310.113,335.492,1288.379,352.77,1271.102z"/>
		</g>
	</g>
	<g>
		<g>
			
				<radialGradient id="XMLID_89_" cx="897.8398" cy="1207.334" r="59.9994" gradientTransform="matrix(1 0 0 1 0.0015 9.765625e-04)" gradientUnits="userSpaceOnUse">
				<stop  offset="0" style="stop-color:#FFFFFF"/>
				<stop  offset="1" style="stop-color:#629FFF"/>
			</radialGradient>
			<path style="fill:url(#XMLID_89_);" d="M950.467,1186.666c0,37.627-30.508,68.131-68.133,68.133
				c-37.627,0-68.133-30.506-68.133-68.133s30.504-68.131,68.133-68.131C919.959,1118.535,950.467,1149.039,950.467,1186.666z"/>
			
				<radialGradient id="XMLID_90_" cx="277.6235" cy="1675.2793" r="79.1523" gradientTransform="matrix(0.7122 -0.7122 0.5677 0.5677 -263.4359 435.2992)" gradientUnits="userSpaceOnUse">
				<stop  offset="0.7978" style="stop-color:#629FFF"/>
				<stop  offset="1" style="stop-color:#E0ECFF"/>
			</radialGradient>
			<path style="fill:url(#XMLID_90_);" d="M852.77,1157.102c17.275-17.275,39.014-25.607,56.676-23.5
				c-17.828-16.711-49.422-12.848-71.223,8.953c-21.803,21.801-25.664,53.393-8.953,71.223
				C827.162,1196.113,835.492,1174.379,852.77,1157.102z"/>
		</g>
		<g>
			<g>
				
					<radialGradient id="XMLID_91_" cx="777.8184" cy="1231.9805" r="59.9994" gradientTransform="matrix(1 0 0 1 0.0015 9.765625e-04)" gradientUnits="userSpaceOnUse">
					<stop  offset="0" style="stop-color:#FFFFFF"/>
					<stop  offset="1" style="stop-color:#D24C88"/>
				</radialGradient>
				<path style="fill:url(#XMLID_91_);" d="M830.445,1211.312c0,37.629-30.508,68.133-68.133,68.133
					c-37.629,0-68.133-30.504-68.133-68.133c0-37.627,30.504-68.129,68.133-68.131
					C799.938,1143.184,830.445,1173.686,830.445,1211.312z"/>
				
					<radialGradient id="XMLID_92_" cx="176.0542" cy="1591.2783" r="79.1551" gradientTransform="matrix(0.7122 -0.7122 0.5677 0.5677 -263.4359 435.2992)" gradientUnits="userSpaceOnUse">
					<stop  offset="0.7978" style="stop-color:#D24C88"/>
					<stop  offset="1" style="stop-color:#F6DBE7"/>
				</radialGradient>
				<path style="fill:url(#XMLID_92_);" d="M732.748,1181.75c17.275-17.277,39.014-25.609,56.678-23.5
					c-17.832-16.711-49.426-12.85-71.227,8.951c-21.801,21.803-25.662,53.393-8.953,71.223
					C707.141,1220.762,715.473,1199.027,732.748,1181.75z"/>
			</g>
			<path style="&st10;" d="M757,1241.625V1216.5h-25V1206h25v-24.998h10.625V1206h25v10.5h-25v25.125H757z"/>
		</g>
		<g>
			<g>
				
					<radialGradient id="XMLID_93_" cx="960.1934" cy="1307.9805" r="59.9994" gradientTransform="matrix(1 0 0 1 0.0015 9.765625e-04)" gradientUnits="userSpaceOnUse">
					<stop  offset="0" style="stop-color:#FFFFFF"/>
					<stop  offset="1" style="stop-color:#D24C88"/>
				</radialGradient>
				<path style="fill:url(#XMLID_93_);" d="M1012.82,1287.312c0,37.629-30.508,68.133-68.133,68.133
					c-37.629,0-68.133-30.504-68.133-68.133c0-37.627,30.504-68.129,68.133-68.131
					C982.312,1219.184,1012.82,1249.686,1012.82,1287.312z"/>
				
					<radialGradient id="XMLID_94_" cx="250.7378" cy="1818.8594" r="79.1551" gradientTransform="matrix(0.7122 -0.7122 0.5677 0.5677 -263.4359 435.2992)" gradientUnits="userSpaceOnUse">
					<stop  offset="0.7978" style="stop-color:#D24C88"/>
					<stop  offset="1" style="stop-color:#F6DBE7"/>
				</radialGradient>
				<path style="fill:url(#XMLID_94_);" d="M915.123,1257.75c17.275-17.277,39.014-25.609,56.678-23.5
					c-17.832-16.711-49.426-12.85-71.227,8.951c-21.801,21.803-25.662,53.393-8.953,71.223
					C889.516,1296.762,897.848,1275.027,915.123,1257.75z"/>
			</g>
			<path style="&st10;" d="M939.375,1317.625V1292.5h-25V1282h25v-24.998H950V1282h25v10.5h-25v25.125H939.375z"/>
		</g>
		<g>
			
				<radialGradient id="XMLID_95_" cx="843.8398" cy="1331.334" r="59.9994" gradientTransform="matrix(1 0 0 1 0.0015 9.765625e-04)" gradientUnits="userSpaceOnUse">
				<stop  offset="0" style="stop-color:#FFFFFF"/>
				<stop  offset="1" style="stop-color:#629FFF"/>
			</radialGradient>
			<path style="fill:url(#XMLID_95_);" d="M896.467,1310.666c0,37.627-30.508,68.131-68.133,68.133
				c-37.627,0-68.133-30.506-68.133-68.133s30.504-68.131,68.133-68.131C865.959,1242.535,896.467,1273.039,896.467,1310.666z"/>
			
				<radialGradient id="XMLID_96_" cx="152.6533" cy="1736.9365" r="79.1523" gradientTransform="matrix(0.7122 -0.7122 0.5677 0.5677 -263.4359 435.2992)" gradientUnits="userSpaceOnUse">
				<stop  offset="0.7978" style="stop-color:#629FFF"/>
				<stop  offset="1" style="stop-color:#E0ECFF"/>
			</radialGradient>
			<path style="fill:url(#XMLID_96_);" d="M798.77,1281.102c17.275-17.275,39.014-25.607,56.676-23.5
				c-17.828-16.711-49.422-12.848-71.223,8.953c-21.803,21.801-25.664,53.393-8.953,71.223
				C773.162,1320.113,781.492,1298.379,798.77,1281.102z"/>
		</g>
	</g>
</g>
</svg>
