<svg version="1.1" xmlns="http://www.w3.org/2000/svg" xmlns:xlink="http://www.w3.org/1999/xlink" width="800" height="800"><defs/><g transform="scale(2,2)"><g id="background-e2ec1275"><rect fill="white" stroke="none" x="0" y="0" width="400" height="400" class="dcg-svg-background"/></g><g id="background-images-e2ec1275"/><g id="graphpaper-e2ec1275"><g id="grid-e2ec1275"><g><path fill="none" stroke="rgb(0,0,0)" class="dcg-svg-minor-gridline" paint-order="fill stroke markers" d=" M 31.5 0 L 31.5 400" stroke-opacity="0.2" stroke-miterlimit="10" stroke-dasharray=""/><path fill="none" stroke="rgb(0,0,0)" class="dcg-svg-minor-gridline" paint-order="fill stroke markers" d=" M 63.5 0 L 63.5 400" stroke-opacity="0.2" stroke-miterlimit="10" stroke-dasharray=""/><path fill="none" stroke="rgb(0,0,0)" class="dcg-svg-minor-gridline" paint-order="fill stroke markers" d=" M 95.5 0 L 95.5 400" stroke-opacity="0.2" stroke-miterlimit="10" stroke-dasharray=""/><path fill="none" stroke="rgb(0,0,0)" class="dcg-svg-minor-gridline" paint-order="fill stroke markers" d=" M 127.5 0 L 127.5 400" stroke-opacity="0.2" stroke-miterlimit="10" stroke-dasharray=""/><path fill="none" stroke="rgb(0,0,0)" class="dcg-svg-minor-gridline" paint-order="fill stroke markers" d=" M 159.5 0 L 159.5 400" stroke-opacity="0.2" stroke-miterlimit="10" stroke-dasharray=""/><path fill="none" stroke="rgb(0,0,0)" class="dcg-svg-minor-gridline" paint-order="fill stroke markers" d=" M 190.5 0 L 190.5 400" stroke-opacity="0.2" stroke-miterlimit="10" stroke-dasharray=""/><path fill="none" stroke="rgb(0,0,0)" class="dcg-svg-minor-gridline" paint-order="fill stroke markers" d=" M 222.5 0 L 222.5 400" stroke-opacity="0.2" stroke-miterlimit="10" stroke-dasharray=""/><path fill="none" stroke="rgb(0,0,0)" class="dcg-svg-minor-gridline" paint-order="fill stroke markers" d=" M 254.5 0 L 254.5 400" stroke-opacity="0.2" stroke-miterlimit="10" stroke-dasharray=""/><path fill="none" stroke="rgb(0,0,0)" class="dcg-svg-minor-gridline" paint-order="fill stroke markers" d=" M 286.5 0 L 286.5 400" stroke-opacity="0.2" stroke-miterlimit="10" stroke-dasharray=""/><path fill="none" stroke="rgb(0,0,0)" class="dcg-svg-minor-gridline" paint-order="fill stroke markers" d=" M 318.5 0 L 318.5 400" stroke-opacity="0.2" stroke-miterlimit="10" stroke-dasharray=""/><path fill="none" stroke="rgb(0,0,0)" class="dcg-svg-minor-gridline" paint-order="fill stroke markers" d=" M 350.5 0 L 350.5 400" stroke-opacity="0.2" stroke-miterlimit="10" stroke-dasharray=""/><path fill="none" stroke="rgb(0,0,0)" class="dcg-svg-minor-gridline" paint-order="fill stroke markers" d=" M 381.5 0 L 381.5 400" stroke-opacity="0.2" stroke-miterlimit="10" stroke-dasharray=""/><path fill="none" stroke="rgb(0,0,0)" class="dcg-svg-minor-gridline" paint-order="fill stroke markers" d=" M 0 380.5 L 400 380.5" stroke-opacity="0.2" stroke-miterlimit="10" stroke-dasharray=""/><path fill="none" stroke="rgb(0,0,0)" class="dcg-svg-minor-gridline" paint-order="fill stroke markers" d=" M 0 360.5 L 400 360.5" stroke-opacity="0.2" stroke-miterlimit="10" stroke-dasharray=""/><path fill="none" stroke="rgb(0,0,0)" class="dcg-svg-minor-gridline" paint-order="fill stroke markers" d=" M 0 340.5 L 400 340.5" stroke-opacity="0.2" stroke-miterlimit="10" stroke-dasharray=""/><path fill="none" stroke="rgb(0,0,0)" class="dcg-svg-minor-gridline" paint-order="fill stroke markers" d=" M 0 320.5 L 400 320.5" stroke-opacity="0.2" stroke-miterlimit="10" stroke-dasharray=""/><path fill="none" stroke="rgb(0,0,0)" class="dcg-svg-minor-gridline" paint-order="fill stroke markers" d=" M 0 300.5 L 400 300.5" stroke-opacity="0.2" stroke-miterlimit="10" stroke-dasharray=""/><path fill="none" stroke="rgb(0,0,0)" class="dcg-svg-minor-gridline" paint-order="fill stroke markers" d=" M 0 280.5 L 400 280.5" stroke-opacity="0.2" stroke-miterlimit="10" stroke-dasharray=""/><path fill="none" stroke="rgb(0,0,0)" class="dcg-svg-minor-gridline" paint-order="fill stroke markers" d=" M 0 260.5 L 400 260.5" stroke-opacity="0.2" stroke-miterlimit="10" stroke-dasharray=""/><path fill="none" stroke="rgb(0,0,0)" class="dcg-svg-minor-gridline" paint-order="fill stroke markers" d=" M 0 240.5 L 400 240.5" stroke-opacity="0.2" stroke-miterlimit="10" stroke-dasharray=""/><path fill="none" stroke="rgb(0,0,0)" class="dcg-svg-minor-gridline" paint-order="fill stroke markers" d=" M 0 220.5 L 400 220.5" stroke-opacity="0.2" stroke-miterlimit="10" stroke-dasharray=""/><path fill="none" stroke="rgb(0,0,0)" class="dcg-svg-minor-gridline" paint-order="fill stroke markers" d=" M 0 180.5 L 400 180.5" stroke-opacity="0.2" stroke-miterlimit="10" stroke-dasharray=""/><path fill="none" stroke="rgb(0,0,0)" class="dcg-svg-minor-gridline" paint-order="fill stroke markers" d=" M 0 160.5 L 400 160.5" stroke-opacity="0.2" stroke-miterlimit="10" stroke-dasharray=""/><path fill="none" stroke="rgb(0,0,0)" class="dcg-svg-minor-gridline" paint-order="fill stroke markers" d=" M 0 140.5 L 400 140.5" stroke-opacity="0.2" stroke-miterlimit="10" stroke-dasharray=""/><path fill="none" stroke="rgb(0,0,0)" class="dcg-svg-minor-gridline" paint-order="fill stroke markers" d=" M 0 120.5 L 400 120.5" stroke-opacity="0.2" stroke-miterlimit="10" stroke-dasharray=""/><path fill="none" stroke="rgb(0,0,0)" class="dcg-svg-minor-gridline" paint-order="fill stroke markers" d=" M 0 100.5 L 400 100.5" stroke-opacity="0.2" stroke-miterlimit="10" stroke-dasharray=""/><path fill="none" stroke="rgb(0,0,0)" class="dcg-svg-minor-gridline" paint-order="fill stroke markers" d=" M 0 79.5 L 400 79.5" stroke-opacity="0.2" stroke-miterlimit="10" stroke-dasharray=""/><path fill="none" stroke="rgb(0,0,0)" class="dcg-svg-minor-gridline" paint-order="fill stroke markers" d=" M 0 60.5 L 400 60.5" stroke-opacity="0.2" stroke-miterlimit="10" stroke-dasharray=""/><path fill="none" stroke="rgb(0,0,0)" class="dcg-svg-minor-gridline" paint-order="fill stroke markers" d=" M 0 40.5 L 400 40.5" stroke-opacity="0.2" stroke-miterlimit="10" stroke-dasharray=""/><path fill="none" stroke="rgb(0,0,0)" class="dcg-svg-minor-gridline" paint-order="fill stroke markers" d=" M 0 20.5 L 400 20.5" stroke-opacity="0.2" stroke-miterlimit="10" stroke-dasharray=""/><path fill="none" stroke="rgb(0,0,0)" class="dcg-svg-major-gridline" paint-order="fill stroke markers" d=" M 159.5 0 L 159.5 400" stroke-opacity="0.2500000000000001" stroke-miterlimit="10" stroke-dasharray=""/><path fill="none" stroke="rgb(0,0,0)" class="dcg-svg-major-gridline" paint-order="fill stroke markers" d=" M 318.5 0 L 318.5 400" stroke-opacity="0.2500000000000001" stroke-miterlimit="10" stroke-dasharray=""/><path fill="none" stroke="rgb(0,0,0)" class="dcg-svg-major-gridline" paint-order="fill stroke markers" d=" M 0 300.5 L 400 300.5" stroke-opacity="0.2500000000000001" stroke-miterlimit="10" stroke-dasharray=""/><path fill="none" stroke="rgb(0,0,0)" class="dcg-svg-major-gridline" paint-order="fill stroke markers" d=" M 0 100.5 L 400 100.5" stroke-opacity="0.2500000000000001" stroke-miterlimit="10" stroke-dasharray=""/></g></g><g id="axis-e2ec1275"><g id="yaxis-e2ec1275"><title>Y axis</title><g><path fill="none" stroke="rgb(0,0,0)" class="dcg-svg-axis-line" paint-order="fill stroke markers" d=" M 0 0 L 0 400" stroke-opacity="0.9" stroke-miterlimit="10" stroke-width="1.5" stroke-dasharray=""/></g></g><g id="xaxis-e2ec1275"><title>X axis</title><g><path fill="none" stroke="rgb(0,0,0)" class="dcg-svg-axis-line" paint-order="fill stroke markers" d=" M 0 200 L 400 200" stroke-opacity="0.9" stroke-miterlimit="10" stroke-width="1.5" stroke-dasharray=""/></g></g><g><g class="dcg-svg-axis-value"><text fill="none" stroke="#ffffff" font-family="Arial" font-size="14px" font-style="normal" font-weight="normal" text-decoration="normal" x="-8.89306640625" y="215.808" text-anchor="middle" stroke-miterlimit="2" stroke-width="3" stroke-dasharray="">0</text><text fill="#000000" stroke="none" font-family="Arial" font-size="14px" font-style="normal" font-weight="normal" text-decoration="normal" x="-8.89306640625" y="215.808" text-anchor="middle">0</text></g><g class="dcg-svg-axis-value"><text fill="none" stroke="#ffffff" font-family="Arial" font-size="14px" font-style="normal" font-weight="normal" text-decoration="normal" x="159.15494309189535" y="215.808" text-anchor="middle" stroke-miterlimit="2" stroke-width="3" stroke-dasharray="">5</text><text fill="#000000" stroke="none" font-family="Arial" font-size="14px" font-style="normal" font-weight="normal" text-decoration="normal" x="159.15494309189535" y="215.808" text-anchor="middle">5</text></g><g class="dcg-svg-axis-value"><text fill="none" stroke="#ffffff" font-family="Arial" font-size="14px" font-style="normal" font-weight="normal" text-decoration="normal" x="318.3098861837907" y="215.808" text-anchor="middle" stroke-miterlimit="2" stroke-width="3" stroke-dasharray="">10</text><text fill="#000000" stroke="none" font-family="Arial" font-size="14px" font-style="normal" font-weight="normal" text-decoration="normal" x="318.3098861837907" y="215.808" text-anchor="middle">10</text></g><g class="dcg-svg-axis-value dcg-svg-offcenter-axis-value"><text fill="none" stroke="#ffffff" font-family="Arial" font-size="14px" font-style="normal" font-weight="normal" text-decoration="normal" x="9.22412109375" y="393.808" text-anchor="middle" stroke-miterlimit="2" stroke-width="3" stroke-dasharray="">-1</text><text fill="rgb(150,150,150)" stroke="none" font-family="Arial" font-size="14px" font-style="normal" font-weight="normal" text-decoration="normal" x="9.22412109375" y="393.808" text-anchor="middle" fill-opacity="1">-1</text></g><g class="dcg-svg-axis-value"><text fill="none" stroke="#ffffff" font-family="Arial" font-size="14px" font-style="normal" font-weight="normal" text-decoration="normal" x="15.06201171875" y="303.808" text-anchor="middle" stroke-miterlimit="2" stroke-width="3" stroke-dasharray="">-0.5</text><text fill="rgb(150,150,150)" stroke="none" font-family="Arial" font-size="14px" font-style="normal" font-weight="normal" text-decoration="normal" x="15.06201171875" y="303.808" text-anchor="middle" fill-opacity="1">-0.5</text></g><g class="dcg-svg-axis-value"><text fill="none" stroke="#ffffff" font-family="Arial" font-size="14px" font-style="normal" font-weight="normal" text-decoration="normal" x="12.73095703125" y="103.808" text-anchor="middle" stroke-miterlimit="2" stroke-width="3" stroke-dasharray="">0.5</text><text fill="rgb(150,150,150)" stroke="none" font-family="Arial" font-size="14px" font-style="normal" font-weight="normal" text-decoration="normal" x="12.73095703125" y="103.808" text-anchor="middle" fill-opacity="1">0.5</text></g><g class="dcg-svg-axis-value dcg-svg-offcenter-axis-value"><text fill="none" stroke="#ffffff" font-family="Arial" font-size="14px" font-style="normal" font-weight="normal" text-decoration="normal" x="6.89306640625" y="13.808" text-anchor="middle" stroke-miterlimit="2" stroke-width="3" stroke-dasharray="">1</text><text fill="rgb(150,150,150)" stroke="none" font-family="Arial" font-size="14px" font-style="normal" font-weight="normal" text-decoration="normal" x="6.89306640625" y="13.808" text-anchor="middle" fill-opacity="1">1</text></g></g></g></g><g id="expressions-e2ec1275"><g id="sketch-e2ec1275"><title>Expression 1</title><path fill="#c74440" stroke="none" paint-order="stroke fill markers" d="" fill-opacity="0.4"/><g><path fill="none" stroke="#c74440" class="dcg-svg-curve" paint-order="fill stroke markers" d=" M 0 200 L 0 200 L 8.496093749999998 147.24906420503373 L 12.98828125 120.63800251665793 L 16.69921875 99.82292347775186 L 20.019531249999996 82.34369035547095 L 22.94921875 67.9771315865159 L 25.68359375 55.57436121415694 L 28.222656249999996 45.009378681025225 L 30.566406249999996 36.13049598464062 L 32.8125 28.45427799994559 L 34.86328125 22.190328829067084 L 36.81640625 16.910256782346437 L 38.671875 12.532197617484996 L 40.42968749999999 8.971766338845867 L 42.08984375 6.143752928690304 L 43.75 3.8429439193538997 L 45.3125 2.1646980070437962 L 46.67968749999999 1.0870858531489205 L 47.94921875 0.4149427602808089 L 49.12109375 0.07623550096425902 L 50.29296875 0.008471089607212434 L 51.46484374999999 0.2117413626286293 L 52.63671875 0.685770841889024 L 53.90625 1.5040930802580021 L 55.2734375 2.738380551080269 L 56.73828125 4.4645284350980035 L 58.3984375 6.921111660462117 L 60.05859374999999 9.902785210103644 L 61.81640624999999 13.62314688366638 L 63.67187499999999 18.166403381895492 L 65.625 23.615747130328998 L 67.67578124999999 30.05164639982948 L 69.82421875 37.549882682959236 L 72.0703125 46.17933247088408 L 74.51171875 56.42599098885367 L 77.1484375 68.43866134058425 L 79.98046875 82.34369035547093 L 83.10546875 98.76267093096895 L 86.62109375 118.39116742700429 L 90.625 141.94306454910753 L 95.80078124999999 173.69199425942332 L 100 200 L 108.49609375 147.24906420503373 L 112.98828124999999 120.63800251665799 L 116.69921875 99.82292347775186 L 120.01953124999999 82.34369035547098 L 122.94921874999999 67.97713158651595 L 125.68359375 55.574361214156966 L 128.22265625 45.009378681025225 L 130.56640624999997 36.130495984640675 L 132.8125 28.45427799994559 L 134.86328124999997 22.19032882906714 L 136.81640625 16.910256782346465 L 138.671875 12.532197617485025 L 140.4296875 8.971766338845839 L 142.08984374999997 6.143752928690333 L 143.74999999999997 3.842943919353928 L 145.31249999999997 2.1646980070438246 L 146.67968749999997 1.0870858531489205 L 147.94921875 0.4149427602808089 L 149.12109374999997 0.07623550096425902 L 150.29296875 0.008471089607212434 L 151.46484375 0.2117413626286293 L 152.63671875 0.685770841889024 L 153.90624999999997 1.5040930802579737 L 155.27343749999997 2.7383805510802404 L 156.73828125 4.4645284350980035 L 158.3984375 6.921111660462117 L 160.05859375 9.902785210103673 L 161.81640625 13.62314688366638 L 163.671875 18.166403381895492 L 165.625 23.615747130328998 L 167.67578124999997 30.05164639982948 L 169.82421874999997 37.54988268295915 L 172.0703125 46.17933247088405 L 174.51171875 56.42599098885364 L 177.1484375 68.43866134058422 L 179.98046874999997 82.34369035547084 L 183.10546875 98.76267093096894 L 186.62109375 118.39116742700426 L 190.625 141.9430645491075 L 195.80078125 173.6919942594234 L 200 200 L 208.49609374999997 147.24906420503385 L 212.98828125 120.63800251665793 L 216.69921875 99.82292347775189 L 220.01953125 82.34369035547091 L 222.94921875 67.9771315865159 L 225.68359374999997 55.57436121415702 L 228.22265625 45.009378681025254 L 230.56640624999997 36.130495984640675 L 232.8125 28.45427799994559 L 234.86328124999997 22.19032882906714 L 236.81640625 16.910256782346465 L 238.67187499999997 12.532197617485053 L 240.4296875 8.971766338845839 L 242.08984374999997 6.143752928690333 L 243.74999999999997 3.842943919353928 L 245.31249999999997 2.1646980070438246 L 246.67968749999997 1.0870858531489205 L 247.94921875 0.4149427602808089 L 249.12109374999997 0.07623550096428744 L 250.29296875 0.008471089607212434 L 251.46484375 0.2117413626286293 L 252.63671874999997 0.685770841889024 L 253.90624999999997 1.5040930802579737 L 255.27343749999997 2.7383805510802404 L 256.73828124999994 4.464528435097947 L 258.39843749999994 6.921111660462088 L 260.05859374999994 9.902785210103588 L 261.81640625 13.623146883666351 L 263.671875 18.166403381895577 L 265.625 23.61574713032897 L 267.67578125 30.05164639982945 L 269.82421875 37.54988268295915 L 272.0703125 46.17933247088405 L 274.51171874999994 56.4259909888535 L 277.1484375 68.43866134058433 L 279.98046874999994 82.34369035547083 L 283.10546874999994 98.76267093096875 L 286.62109375 118.39116742700423 L 290.62499999999994 141.9430645491073 L 295.80078125 173.69199425942338 L 300 200 L 308.49609375 147.24906420503385 L 312.98828125 120.63800251665795 L 316.69921875 99.8229234777519 L 320.01953125 82.34369035547093 L 322.94921874999994 67.97713158651604 L 325.68359374999994 55.57436121415705 L 328.22265625 45.00937868102517 L 330.56640625 36.130495984640675 L 332.8125 28.454277999945617 L 334.86328125 22.19032882906714 L 336.81640625 16.91025678234641 L 338.671875 12.532197617485053 L 340.4296875 8.971766338845867 L 342.08984375 6.143752928690304 L 343.75 3.8429439193538997 L 345.3125 2.1646980070437962 L 346.67968749999994 1.0870858531489205 L 347.94921875 0.4149427602808089 L 349.12109375 0.07623550096425902 L 350.29296874999994 0.008471089607212434 L 351.46484374999994 0.2117413626286293 L 352.63671875 0.685770841889024 L 353.90625 1.5040930802580021 L 355.27343749999994 2.7383805510802404 L 356.73828124999994 4.464528435097947 L 358.39843749999994 6.921111660462088 L 360.05859374999994 9.902785210103588 L 361.81640625 13.623146883666351 L 363.671875 18.16640338189555 L 365.625 23.61574713032897 L 367.67578125 30.051646399829423 L 369.82421875 37.54988268295912 L 372.0703125 46.17933247088402 L 374.51171874999994 56.42599098885347 L 377.1484375 68.43866134058433 L 379.98046874999994 82.3436903554708 L 383.10546874999994 98.76267093096874 L 386.62109375 118.39116742700422 L 390.62499999999994 141.9430645491073 L 395.80078125 173.69199425942335 L 400 200" stroke-linecap="round" stroke-linejoin="round" stroke-miterlimit="10" stroke-width="2.5" stroke-dasharray=""/></g></g><g id="sketch-e2ec1275"><title>T/2</title><path fill="none" stroke="#2d70b3" class="dcg-svg-point" paint-order="fill stroke markers" d=" M 99.9 199.9 L 99.9 200.1 L 100.1 200.1 L 100.1 199.9" stroke-linecap="round" stroke-linejoin="round" stroke-miterlimit="10" stroke-width="7.5" stroke-dasharray=""/></g><g id="sketch-e2ec1275"><title>T</title><path fill="none" stroke="#2d70b3" class="dcg-svg-point" paint-order="fill stroke markers" d=" M 199.9 199.9 L 199.9 200.1 L 200.1 200.1 L 200.1 199.9" stroke-linecap="round" stroke-linejoin="round" stroke-miterlimit="10" stroke-width="7.5" stroke-dasharray=""/></g><g id="sketch-e2ec1275"><title>3T/2</title><path fill="none" stroke="#2d70b3" class="dcg-svg-point" paint-order="fill stroke markers" d=" M 299.9 199.9 L 299.9 200.1 L 300.1 200.1 L 300.1 199.9" stroke-linecap="round" stroke-linejoin="round" stroke-miterlimit="10" stroke-width="7.5" stroke-dasharray=""/></g><g id="sketch-e2ec1275"><title>2T</title><path fill="none" stroke="#2d70b3" class="dcg-svg-point" paint-order="fill stroke markers" d=" M 399.9 199.9 L 399.9 200.1 L 400.1 200.1 L 400.1 199.9" stroke-linecap="round" stroke-linejoin="round" stroke-miterlimit="10" stroke-width="7.5" stroke-dasharray=""/></g></g><g id="labels-e2ec1275"><g transform="rotate(0,0,0) translate(100,200)"><g class="dcg-svg-label"><g transform="translate(-11.125,7)"><g><text fill="none" stroke="#FFF" font-family="arial, sans-serif" font-size="15.4px" font-style="normal" font-weight="400" text-decoration="normal" x="0" y="13.822143505859374" text-anchor="start" stroke-linecap="round" stroke-linejoin="round" stroke-miterlimit="2" stroke-width="3" stroke-dasharray="">T/2</text></g></g><g transform="translate(-11.125,7)"><g><text fill="rgb(45, 112, 179)" stroke="none" font-family="arial, sans-serif" font-size="15.4px" font-style="normal" font-weight="400" text-decoration="normal" x="0" y="13.822143505859374" text-anchor="start">T/2</text></g></g></g></g><g transform="rotate(0,0,0) translate(200,200)"><g class="dcg-svg-label"><g transform="translate(-4.703125,7)"><g><text fill="none" stroke="#FFF" font-family="arial, sans-serif" font-size="15.4px" font-style="normal" font-weight="400" text-decoration="normal" x="0" y="13.822143505859374" text-anchor="start" stroke-linecap="round" stroke-linejoin="round" stroke-miterlimit="2" stroke-width="3" stroke-dasharray="">T</text></g></g><g transform="translate(-4.703125,7)"><g><text fill="rgb(45, 112, 179)" stroke="none" font-family="arial, sans-serif" font-size="15.4px" font-style="normal" font-weight="400" text-decoration="normal" x="0" y="13.822143505859374" text-anchor="start">T</text></g></g></g></g><g transform="rotate(0,0,0) translate(300,200)"><g class="dcg-svg-label"><g transform="translate(-35.80206298828125,5)"><g><text fill="none" stroke="#FFF" font-family="arial, sans-serif" font-size="15.4px" font-style="normal" font-weight="400" text-decoration="normal" x="0" y="13.822143505859374" text-anchor="start" stroke-linecap="round" stroke-linejoin="round" stroke-miterlimit="2" stroke-width="3" stroke-dasharray="">3T/2</text></g></g><g transform="translate(-35.80206298828125,5)"><g><text fill="rgb(45, 112, 179)" stroke="none" font-family="arial, sans-serif" font-size="15.4px" font-style="normal" font-weight="400" text-decoration="normal" x="0" y="13.822143505859374" text-anchor="start">3T/2</text></g></g></g></g><g transform="rotate(0,0,0) translate(400,200)"><g class="dcg-svg-label"><g transform="translate(-22.96875,5)"><g><text fill="none" stroke="#FFF" font-family="arial, sans-serif" font-size="15.4px" font-style="normal" font-weight="400" text-decoration="normal" x="0" y="13.822143505859374" text-anchor="start" stroke-linecap="round" stroke-linejoin="round" stroke-miterlimit="2" stroke-width="3" stroke-dasharray="">2T</text></g></g><g transform="translate(-22.96875,5)"><g><text fill="rgb(45, 112, 179)" stroke="none" font-family="arial, sans-serif" font-size="15.4px" font-style="normal" font-weight="400" text-decoration="normal" x="0" y="13.822143505859374" text-anchor="start">2T</text></g></g></g></g></g></g></svg>