<svg version="1.1" xmlns="http://www.w3.org/2000/svg" xmlns:xlink="http://www.w3.org/1999/xlink" width="800" height="800"><defs/><g transform="scale(2,2)"><g id="background-d97b60f4"><rect fill="white" stroke="none" x="0" y="0" width="400" height="400" class="dcg-svg-background"/></g><g id="background-images-d97b60f4"/><g id="graphpaper-d97b60f4"><g id="grid-d97b60f4"><g><path fill="none" stroke="rgb(0,0,0)" class="dcg-svg-minor-gridline" paint-order="fill stroke markers" d=" M 31.5 0 L 31.5 400" stroke-opacity="0.2" stroke-miterlimit="10" stroke-dasharray=""/><path fill="none" stroke="rgb(0,0,0)" class="dcg-svg-minor-gridline" paint-order="fill stroke markers" d=" M 63.5 0 L 63.5 400" stroke-opacity="0.2" stroke-miterlimit="10" stroke-dasharray=""/><path fill="none" stroke="rgb(0,0,0)" class="dcg-svg-minor-gridline" paint-order="fill stroke markers" d=" M 95.5 0 L 95.5 400" stroke-opacity="0.2" stroke-miterlimit="10" stroke-dasharray=""/><path fill="none" stroke="rgb(0,0,0)" class="dcg-svg-minor-gridline" paint-order="fill stroke markers" d=" M 127.5 0 L 127.5 400" stroke-opacity="0.2" stroke-miterlimit="10" stroke-dasharray=""/><path fill="none" stroke="rgb(0,0,0)" class="dcg-svg-minor-gridline" paint-order="fill stroke markers" d=" M 159.5 0 L 159.5 400" stroke-opacity="0.2" stroke-miterlimit="10" stroke-dasharray=""/><path fill="none" stroke="rgb(0,0,0)" class="dcg-svg-minor-gridline" paint-order="fill stroke markers" d=" M 190.5 0 L 190.5 400" stroke-opacity="0.2" stroke-miterlimit="10" stroke-dasharray=""/><path fill="none" stroke="rgb(0,0,0)" class="dcg-svg-minor-gridline" paint-order="fill stroke markers" d=" M 222.5 0 L 222.5 400" stroke-opacity="0.2" stroke-miterlimit="10" stroke-dasharray=""/><path fill="none" stroke="rgb(0,0,0)" class="dcg-svg-minor-gridline" paint-order="fill stroke markers" d=" M 254.5 0 L 254.5 400" stroke-opacity="0.2" stroke-miterlimit="10" stroke-dasharray=""/><path fill="none" stroke="rgb(0,0,0)" class="dcg-svg-minor-gridline" paint-order="fill stroke markers" d=" M 286.5 0 L 286.5 400" stroke-opacity="0.2" stroke-miterlimit="10" stroke-dasharray=""/><path fill="none" stroke="rgb(0,0,0)" class="dcg-svg-minor-gridline" paint-order="fill stroke markers" d=" M 318.5 0 L 318.5 400" stroke-opacity="0.2" stroke-miterlimit="10" stroke-dasharray=""/><path fill="none" stroke="rgb(0,0,0)" class="dcg-svg-minor-gridline" paint-order="fill stroke markers" d=" M 350.5 0 L 350.5 400" stroke-opacity="0.2" stroke-miterlimit="10" stroke-dasharray=""/><path fill="none" stroke="rgb(0,0,0)" class="dcg-svg-minor-gridline" paint-order="fill stroke markers" d=" M 381.5 0 L 381.5 400" stroke-opacity="0.2" stroke-miterlimit="10" stroke-dasharray=""/><path fill="none" stroke="rgb(0,0,0)" class="dcg-svg-minor-gridline" paint-order="fill stroke markers" d=" M 0 380.5 L 400 380.5" stroke-opacity="0.2" stroke-miterlimit="10" stroke-dasharray=""/><path fill="none" stroke="rgb(0,0,0)" class="dcg-svg-minor-gridline" paint-order="fill stroke markers" d=" M 0 360.5 L 400 360.5" stroke-opacity="0.2" stroke-miterlimit="10" stroke-dasharray=""/><path fill="none" stroke="rgb(0,0,0)" class="dcg-svg-minor-gridline" paint-order="fill stroke markers" d=" M 0 340.5 L 400 340.5" stroke-opacity="0.2" stroke-miterlimit="10" stroke-dasharray=""/><path fill="none" stroke="rgb(0,0,0)" class="dcg-svg-minor-gridline" paint-order="fill stroke markers" d=" M 0 320.5 L 400 320.5" stroke-opacity="0.2" stroke-miterlimit="10" stroke-dasharray=""/><path fill="none" stroke="rgb(0,0,0)" class="dcg-svg-minor-gridline" paint-order="fill stroke markers" d=" M 0 300.5 L 400 300.5" stroke-opacity="0.2" stroke-miterlimit="10" stroke-dasharray=""/><path fill="none" stroke="rgb(0,0,0)" class="dcg-svg-minor-gridline" paint-order="fill stroke markers" d=" M 0 280.5 L 400 280.5" stroke-opacity="0.2" stroke-miterlimit="10" stroke-dasharray=""/><path fill="none" stroke="rgb(0,0,0)" class="dcg-svg-minor-gridline" paint-order="fill stroke markers" d=" M 0 260.5 L 400 260.5" stroke-opacity="0.2" stroke-miterlimit="10" stroke-dasharray=""/><path fill="none" stroke="rgb(0,0,0)" class="dcg-svg-minor-gridline" paint-order="fill stroke markers" d=" M 0 240.5 L 400 240.5" stroke-opacity="0.2" stroke-miterlimit="10" stroke-dasharray=""/><path fill="none" stroke="rgb(0,0,0)" class="dcg-svg-minor-gridline" paint-order="fill stroke markers" d=" M 0 220.5 L 400 220.5" stroke-opacity="0.2" stroke-miterlimit="10" stroke-dasharray=""/><path fill="none" stroke="rgb(0,0,0)" class="dcg-svg-minor-gridline" paint-order="fill stroke markers" d=" M 0 180.5 L 400 180.5" stroke-opacity="0.2" stroke-miterlimit="10" stroke-dasharray=""/><path fill="none" stroke="rgb(0,0,0)" class="dcg-svg-minor-gridline" paint-order="fill stroke markers" d=" M 0 160.5 L 400 160.5" stroke-opacity="0.2" stroke-miterlimit="10" stroke-dasharray=""/><path fill="none" stroke="rgb(0,0,0)" class="dcg-svg-minor-gridline" paint-order="fill stroke markers" d=" M 0 140.5 L 400 140.5" stroke-opacity="0.2" stroke-miterlimit="10" stroke-dasharray=""/><path fill="none" stroke="rgb(0,0,0)" class="dcg-svg-minor-gridline" paint-order="fill stroke markers" d=" M 0 120.5 L 400 120.5" stroke-opacity="0.2" stroke-miterlimit="10" stroke-dasharray=""/><path fill="none" stroke="rgb(0,0,0)" class="dcg-svg-minor-gridline" paint-order="fill stroke markers" d=" M 0 100.5 L 400 100.5" stroke-opacity="0.2" stroke-miterlimit="10" stroke-dasharray=""/><path fill="none" stroke="rgb(0,0,0)" class="dcg-svg-minor-gridline" paint-order="fill stroke markers" d=" M 0 79.5 L 400 79.5" stroke-opacity="0.2" stroke-miterlimit="10" stroke-dasharray=""/><path fill="none" stroke="rgb(0,0,0)" class="dcg-svg-minor-gridline" paint-order="fill stroke markers" d=" M 0 60.5 L 400 60.5" stroke-opacity="0.2" stroke-miterlimit="10" stroke-dasharray=""/><path fill="none" stroke="rgb(0,0,0)" class="dcg-svg-minor-gridline" paint-order="fill stroke markers" d=" M 0 40.5 L 400 40.5" stroke-opacity="0.2" stroke-miterlimit="10" stroke-dasharray=""/><path fill="none" stroke="rgb(0,0,0)" class="dcg-svg-minor-gridline" paint-order="fill stroke markers" d=" M 0 20.5 L 400 20.5" stroke-opacity="0.2" stroke-miterlimit="10" stroke-dasharray=""/><path fill="none" stroke="rgb(0,0,0)" class="dcg-svg-major-gridline" paint-order="fill stroke markers" d=" M 159.5 0 L 159.5 400" stroke-opacity="0.2500000000000001" stroke-miterlimit="10" stroke-dasharray=""/><path fill="none" stroke="rgb(0,0,0)" class="dcg-svg-major-gridline" paint-order="fill stroke markers" d=" M 318.5 0 L 318.5 400" stroke-opacity="0.2500000000000001" stroke-miterlimit="10" stroke-dasharray=""/><path fill="none" stroke="rgb(0,0,0)" class="dcg-svg-major-gridline" paint-order="fill stroke markers" d=" M 0 300.5 L 400 300.5" stroke-opacity="0.2500000000000001" stroke-miterlimit="10" stroke-dasharray=""/><path fill="none" stroke="rgb(0,0,0)" class="dcg-svg-major-gridline" paint-order="fill stroke markers" d=" M 0 100.5 L 400 100.5" stroke-opacity="0.2500000000000001" stroke-miterlimit="10" stroke-dasharray=""/></g></g><g id="axis-d97b60f4"><g id="yaxis-d97b60f4"><title>Y axis</title><g><path fill="none" stroke="rgb(0,0,0)" class="dcg-svg-axis-line" paint-order="fill stroke markers" d=" M 0 0 L 0 400" stroke-opacity="0.9" stroke-miterlimit="10" stroke-width="1.5" stroke-dasharray=""/></g></g><g id="xaxis-d97b60f4"><title>X axis</title><g><path fill="none" stroke="rgb(0,0,0)" class="dcg-svg-axis-line" paint-order="fill stroke markers" d=" M 0 200 L 400 200" stroke-opacity="0.9" stroke-miterlimit="10" stroke-width="1.5" stroke-dasharray=""/></g></g><g><g class="dcg-svg-axis-value"><text fill="none" stroke="#ffffff" font-family="Arial" font-size="14px" font-style="normal" font-weight="normal" text-decoration="normal" x="-8.89306640625" y="215.808" text-anchor="middle" stroke-miterlimit="2" stroke-width="3" stroke-dasharray="">0</text><text fill="#000000" stroke="none" font-family="Arial" font-size="14px" font-style="normal" font-weight="normal" text-decoration="normal" x="-8.89306640625" y="215.808" text-anchor="middle">0</text></g><g class="dcg-svg-axis-value"><text fill="none" stroke="#ffffff" font-family="Arial" font-size="14px" font-style="normal" font-weight="normal" text-decoration="normal" x="159.15494309189535" y="215.808" text-anchor="middle" stroke-miterlimit="2" stroke-width="3" stroke-dasharray="">5</text><text fill="#000000" stroke="none" font-family="Arial" font-size="14px" font-style="normal" font-weight="normal" text-decoration="normal" x="159.15494309189535" y="215.808" text-anchor="middle">5</text></g><g class="dcg-svg-axis-value"><text fill="none" stroke="#ffffff" font-family="Arial" font-size="14px" font-style="normal" font-weight="normal" text-decoration="normal" x="318.3098861837907" y="215.808" text-anchor="middle" stroke-miterlimit="2" stroke-width="3" stroke-dasharray="">10</text><text fill="#000000" stroke="none" font-family="Arial" font-size="14px" font-style="normal" font-weight="normal" text-decoration="normal" x="318.3098861837907" y="215.808" text-anchor="middle">10</text></g><g class="dcg-svg-axis-value dcg-svg-offcenter-axis-value"><text fill="none" stroke="#ffffff" font-family="Arial" font-size="14px" font-style="normal" font-weight="normal" text-decoration="normal" x="9.22412109375" y="393.808" text-anchor="middle" stroke-miterlimit="2" stroke-width="3" stroke-dasharray="">-1</text><text fill="rgb(150,150,150)" stroke="none" font-family="Arial" font-size="14px" font-style="normal" font-weight="normal" text-decoration="normal" x="9.22412109375" y="393.808" text-anchor="middle" fill-opacity="1">-1</text></g><g class="dcg-svg-axis-value"><text fill="none" stroke="#ffffff" font-family="Arial" font-size="14px" font-style="normal" font-weight="normal" text-decoration="normal" x="15.06201171875" y="303.808" text-anchor="middle" stroke-miterlimit="2" stroke-width="3" stroke-dasharray="">-0.5</text><text fill="rgb(150,150,150)" stroke="none" font-family="Arial" font-size="14px" font-style="normal" font-weight="normal" text-decoration="normal" x="15.06201171875" y="303.808" text-anchor="middle" fill-opacity="1">-0.5</text></g><g class="dcg-svg-axis-value"><text fill="none" stroke="#ffffff" font-family="Arial" font-size="14px" font-style="normal" font-weight="normal" text-decoration="normal" x="12.73095703125" y="103.808" text-anchor="middle" stroke-miterlimit="2" stroke-width="3" stroke-dasharray="">0.5</text><text fill="rgb(150,150,150)" stroke="none" font-family="Arial" font-size="14px" font-style="normal" font-weight="normal" text-decoration="normal" x="12.73095703125" y="103.808" text-anchor="middle" fill-opacity="1">0.5</text></g><g class="dcg-svg-axis-value dcg-svg-offcenter-axis-value"><text fill="none" stroke="#ffffff" font-family="Arial" font-size="14px" font-style="normal" font-weight="normal" text-decoration="normal" x="6.89306640625" y="13.808" text-anchor="middle" stroke-miterlimit="2" stroke-width="3" stroke-dasharray="">1</text><text fill="rgb(150,150,150)" stroke="none" font-family="Arial" font-size="14px" font-style="normal" font-weight="normal" text-decoration="normal" x="6.89306640625" y="13.808" text-anchor="middle" fill-opacity="1">1</text></g></g></g></g><g id="expressions-d97b60f4"><g id="sketch-d97b60f4"><title>Expression 1</title><path fill="#c74440" stroke="none" paint-order="stroke fill markers" d="" fill-opacity="0.4"/><g><path fill="none" stroke="#c74440" class="dcg-svg-curve" paint-order="fill stroke markers" d=" M 6.606e-321 200 L 6.606e-321 200 L 8.496093749999998 147.24906420503373 L 12.98828125 120.63800251665793 L 16.69921875 99.82292347775186 L 20.019531249999996 82.34369035547095 L 22.94921875 67.9771315865159 L 25.68359375 55.57436121415694 L 28.222656249999996 45.009378681025225 L 30.566406249999996 36.13049598464062 L 32.8125 28.45427799994559 L 34.86328125 22.190328829067084 L 36.81640625 16.910256782346437 L 38.671875 12.532197617484996 L 40.42968749999999 8.971766338845867 L 42.08984375 6.143752928690304 L 43.75 3.8429439193538997 L 45.3125 2.1646980070437962 L 46.67968749999999 1.0870858531489205 L 47.94921875 0.4149427602808089 L 49.12109375 0.07623550096425902 L 50.29296875 0.008471089607212434 L 51.46484374999999 0.2117413626286293 L 52.63671875 0.685770841889024 L 53.90625 1.5040930802580021 L 55.2734375 2.738380551080269 L 56.73828125 4.4645284350980035 L 58.3984375 6.921111660462117 L 60.05859374999999 9.902785210103644 L 61.81640624999999 13.62314688366638 L 63.67187499999999 18.166403381895492 L 65.625 23.615747130328998 L 67.67578124999999 30.05164639982948 L 69.82421875 37.549882682959236 L 72.0703125 46.17933247088408 L 74.51171875 56.42599098885367 L 77.1484375 68.43866134058425 L 79.98046875 82.34369035547093 L 83.10546875 98.76267093096895 L 86.62109375 118.39116742700429 L 90.625 141.94306454910753 L 95.80078124999999 173.69199425942332 L 99.99999999999999 199.9999999999999" stroke-linecap="round" stroke-linejoin="round" stroke-miterlimit="10" stroke-width="2.5" stroke-dasharray=""/></g></g><g id="sketch-d97b60f4"><title>Expression 2</title><path fill="#c74440" stroke="none" paint-order="stroke fill markers" d="" fill-opacity="0.4"/><g><path fill="none" stroke="#c74440" class="dcg-svg-curve" paint-order="fill stroke markers" d=" M 100 200 L 100 200 L 200 200" stroke-linecap="round" stroke-linejoin="round" stroke-miterlimit="10" stroke-width="2.5" stroke-dasharray=""/></g></g><g id="sketch-d97b60f4"><title>Expression 3</title><path fill="#c74440" stroke="none" paint-order="stroke fill markers" d="" fill-opacity="0.4"/><g><path fill="none" stroke="#c74440" class="dcg-svg-curve" paint-order="fill stroke markers" d=" M 200.00000000000003 199.99999999999986 L 200.00000000000003 199.99999999999986 L 208.49609374999997 147.24906420503385 L 212.98828125 120.63800251665793 L 216.69921875 99.82292347775189 L 220.01953125 82.34369035547091 L 222.94921875 67.9771315865159 L 225.68359374999997 55.57436121415702 L 228.22265625 45.009378681025254 L 230.56640624999997 36.130495984640675 L 232.8125 28.45427799994559 L 234.86328124999997 22.19032882906714 L 236.81640625 16.910256782346465 L 238.67187499999997 12.532197617485053 L 240.4296875 8.971766338845839 L 242.08984375 6.143752928690304 L 243.75 3.8429439193538997 L 245.31249999999997 2.1646980070438246 L 246.67968749999997 1.0870858531489205 L 247.94921875 0.4149427602808089 L 249.12109375 0.07623550096425902 L 250.29296875 0.008471089607212434 L 251.46484375 0.2117413626286293 L 252.63671874999997 0.685770841889024 L 253.90624999999997 1.5040930802579737 L 255.27343749999997 2.7383805510802404 L 256.73828125 4.464528435098032 L 258.39843749999994 6.921111660462088 L 260.05859375 9.902785210103701 L 261.81640625 13.623146883666351 L 263.67187499999994 18.166403381895407 L 265.625 23.61574713032897 L 267.67578125 30.05164639982945 L 269.82421875 37.54988268295915 L 272.0703125 46.17933247088405 L 274.51171874999994 56.4259909888535 L 277.14843749999994 68.43866134058408 L 279.98046874999994 82.34369035547083 L 283.10546875 98.76267093096907 L 286.62109375 118.39116742700423 L 290.62499999999994 141.9430645491073 L 295.80078124999994 173.691994259423 L 299.99999999999994 199.99999999999957" stroke-linecap="round" stroke-linejoin="round" stroke-miterlimit="10" stroke-width="2.5" stroke-dasharray=""/></g></g><g id="sketch-d97b60f4"><title>Expression 4</title><path fill="#c74440" stroke="none" paint-order="stroke fill markers" d="" fill-opacity="0.4"/><g><path fill="none" stroke="#c74440" class="dcg-svg-curve" paint-order="fill stroke markers" d=" M 300 200 L 300 200 L 400 200" stroke-linecap="round" stroke-linejoin="round" stroke-miterlimit="10" stroke-width="2.5" stroke-dasharray=""/></g></g><g id="sketch-d97b60f4"><title>T/2</title><path fill="none" stroke="#2d70b3" class="dcg-svg-point" paint-order="fill stroke markers" d=" M 99.9 199.9 L 99.9 200.1 L 100.1 200.1 L 100.1 199.9" stroke-linecap="round" stroke-linejoin="round" stroke-miterlimit="10" stroke-width="7.5" stroke-dasharray=""/></g><g id="sketch-d97b60f4"><title>T</title><path fill="none" stroke="#2d70b3" class="dcg-svg-point" paint-order="fill stroke markers" d=" M 199.9 199.9 L 199.9 200.1 L 200.1 200.1 L 200.1 199.9" stroke-linecap="round" stroke-linejoin="round" stroke-miterlimit="10" stroke-width="7.5" stroke-dasharray=""/></g><g id="sketch-d97b60f4"><title>3T/2</title><path fill="none" stroke="#2d70b3" class="dcg-svg-point" paint-order="fill stroke markers" d=" M 299.9 199.9 L 299.9 200.1 L 300.1 200.1 L 300.1 199.9" stroke-linecap="round" stroke-linejoin="round" stroke-miterlimit="10" stroke-width="7.5" stroke-dasharray=""/></g><g id="sketch-d97b60f4"><title>2T</title><path fill="none" stroke="#2d70b3" class="dcg-svg-point" paint-order="fill stroke markers" d=" M 399.9 199.9 L 399.9 200.1 L 400.1 200.1 L 400.1 199.9" stroke-linecap="round" stroke-linejoin="round" stroke-miterlimit="10" stroke-width="7.5" stroke-dasharray=""/></g><g id="sketch-d97b60f4"><title>Expression 9</title><path fill="#388c46" stroke="none" paint-order="stroke fill markers" d="" fill-opacity="0.4"/><g><path fill="none" stroke="#388c46" class="dcg-svg-curve" paint-order="fill stroke markers" d=" M 100.00000000000001 200.00000000000006 L 101.74912451492824 210.86004435678228 M 102.86220375170075 217.7709816747346 L 104.61132826662896 228.6310260315168 M 105.72440750340147 235.5419633494691 L 107.47353201832968 246.4020077062513 M 108.59084802222743 253.31224624415864 L 110.42184215159597 264.1587876513639 M 111.5870202339214 271.0611321832218 L 112.98828125 279.36199748334207 M 112.98828125 279.36199748334207 L 113.4414038192813 281.9036145528569 M 114.6700000572849 288.7949534129017 L 116.6006512884334 299.62420019297207 M 117.90075669433743 306.50237326294354 L 119.95358115321618 317.3091263248502 M 121.34760216507004 324.1688843988992 L 122.94921875 332.0228684134841 M 122.94921875 332.0228684134841 L 123.59173909823252 334.9372573830644 M 125.09880242087459 341.7731011599179 L 125.68359375 344.42563878584303 M 125.68359375 344.42563878584303 L 127.61929913525934 352.48006579760585 M 129.35023767537584 359.2622642870961 L 130.56640624999997 363.8695040153593 M 130.56640624999997 363.8695040153593 L 132.31736142569972 369.8535434661174 M 134.4419173688013 376.52264851345905 L 134.86328124999997 377.80967117093286 M 134.86328124999997 377.80967117093286 L 136.81640625 383.08974321765356 M 136.81640625 383.08974321765356 L 138.3835122641224 386.7873979733254 M 141.58915952299927 393.0033504188341 L 142.08984375 393.85624707130967 M 142.08984375 393.85624707130967 L 143.74999999999997 396.15705608064604 M 143.74999999999997 396.15705608064604 L 145.3125 397.8353019929562 M 145.3125 397.8353019929562 L 146.67968749999997 398.9129141468511 M 146.67968749999997 398.9129141468511 L 147.94921875 399.58505723971916 M 147.94921875 399.58505723971916 L 149.12109374999997 399.92376449903577 M 149.12109374999997 399.92376449903577 L 149.60390618275238 399.9516834326262 M 155.5995168433594 396.8773728911816 L 156.73828125 395.53547156490197 M 156.73828125 395.53547156490197 L 158.3984375 393.0788883395379 M 158.3984375 393.0788883395379 L 160.05859374999997 390.0972147898964 M 160.05859374999997 390.0972147898964 L 161.28140616111298 387.5091660484853 M 163.95532970370843 381.04273985388426 L 165.625 376.384252869671 M 165.625 376.384252869671 L 167.46222283889728 370.6185569297609 M 169.41012913538856 363.8953265785374 L 169.82421875 362.45011731704074 M 169.82421875 362.45011731704074 L 172.0703125 353.82066752911595 M 172.0703125 353.82066752911595 L 172.204665337933 353.25678445917646 M 173.82709426184317 346.447399436514 L 174.51171875 343.57400901114636 M 174.51171875 343.57400901114636 L 176.23674694644532 335.7149246581649 M 177.6967696124361 328.8690753119623 L 179.8920656334096 318.09036131722723 M 181.20645179962114 311.21490424369097 L 183.10546875 301.23732906903103 M 183.10546875 301.23732906903103 L 183.25414724588416 300.4072247958228 M 184.48826590939277 293.51687276385957 L 186.42759523776346 282.68917671363164 M 187.61034023814895 275.78985728672717 L 189.4539281459074 264.94544934408844 M 190.62703567414897 258.04444835525476 L 192.39691600628785 247.18776729657444 M 193.52320349037623 240.2789702592324 L 195.29308382251511 229.4222892005521 M 196.4067764245185 222.51146036413135 L 198.14062088144436 211.64896601894583 M 199.24397644494263 204.7364696174641 L 199.99999999999997 200.00000000000023" stroke-linecap="round" stroke-linejoin="round" stroke-miterlimit="10" stroke-width="2.5" stroke-dasharray=""/></g></g><g id="sketch-d97b60f4"><title>Expression 10</title><path fill="#388c46" stroke="none" paint-order="stroke fill markers" d="" fill-opacity="0.4"/><g><path fill="none" stroke="#388c46" class="dcg-svg-curve" paint-order="fill stroke markers" d=" M 300.00000000000006 200.00000000000028 L 301.74912451492827 210.8600443567825 M 302.8622037517008 217.77098167473483 L 304.611328266629 228.63102603151702 M 305.7244075034015 235.54196334946934 L 307.4735320183297 246.40200770625154 M 308.5908480222275 253.31224624415887 L 310.421842151596 264.1587876513641 M 311.58702023392146 271.061132183222 L 312.98828124999994 279.3619974833417 M 312.98828124999994 279.3619974833417 L 313.44140381928133 281.9036145528571 M 314.67000005728494 288.7949534129019 L 316.6006512884334 299.62420019297224 M 317.9007566943375 306.50237326294376 L 319.95358115321625 317.3091263248504 M 321.3476021650701 324.1688843988994 L 322.94921874999994 332.02286841348393 M 322.94921874999994 332.02286841348393 L 323.59173909823255 334.9372573830646 M 325.0988024208746 341.77310115991816 L 325.68359375 344.4256387858432 M 325.68359375 344.4256387858432 L 327.6192991352594 352.4800657976061 M 329.3502376753759 359.2622642870963 L 330.56640625 363.8695040153593 M 330.56640625 363.8695040153593 L 332.3173614256998 369.8535434661176 M 334.4419173688014 376.5226485134593 L 334.86328125 377.80967117093286 M 334.86328125 377.80967117093286 L 336.81640624999994 383.08974321765345 M 336.81640624999994 383.08974321765345 L 338.3835122641225 386.78739797332565 M 341.5891595229994 393.00335041883426 L 342.08984375 393.85624707130967 M 342.08984375 393.85624707130967 L 343.74999999999994 396.15705608064604 M 343.74999999999994 396.15705608064604 L 345.3125 397.8353019929562 M 345.3125 397.8353019929562 L 346.67968749999994 398.9129141468511 M 346.67968749999994 398.9129141468511 L 347.94921875 399.58505723971916 M 347.94921875 399.58505723971916 L 349.12109375 399.92376449903577 M 349.12109375 399.92376449903577 L 349.6039061827526 399.9516834326262 M 355.59951684335954 396.87737289118144 L 356.73828125 395.53547156490197 M 356.73828125 395.53547156490197 L 358.39843749999994 393.0788883395379 M 358.39843749999994 393.0788883395379 L 360.05859374999994 390.0972147898964 M 360.05859374999994 390.0972147898964 L 361.28140616111307 387.5091660484851 M 363.9553297037085 381.04273985388403 L 365.625 376.38425286967106 M 365.625 376.38425286967106 L 367.4622228388974 370.6185569297607 M 369.4101291353887 363.89532657853715 L 369.82421875000006 362.4501173170407 M 369.82421875000006 362.4501173170407 L 372.0703125 353.820667529116 M 372.0703125 353.820667529116 L 372.2046653379331 353.25678445917623 M 373.82709426184323 346.44739943651376 L 374.51171875 343.57400901114625 M 374.51171875 343.57400901114625 L 376.23674694644535 335.71492465816465 M 377.6967696124361 328.8690753119621 L 379.89206563340963 318.090361317227 M 381.20645179962116 311.21490424369074 L 383.10546875 301.237329069031 M 383.10546875 301.237329069031 L 383.25414724588416 300.4072247958226 M 384.4882659093928 293.51687276385934 L 386.4275952377635 282.6891767136314 M 387.610340238149 275.78985728672694 L 389.45392814590747 264.94544934408816 M 390.627035674149 258.04444835525453 L 392.3969160062879 247.1877672965742 M 393.52320349037626 240.27897025923218 L 395.29308382251514 229.42228920055186 M 396.40677642451857 222.5114603641311 L 398.1406208814444 211.64896601894557 M 399.2439764449427 204.73646961746388 L 399.99999999999994 200.00000000000045" stroke-linecap="round" stroke-linejoin="round" stroke-miterlimit="10" stroke-width="2.5" stroke-dasharray=""/></g></g><g id="sketch-d97b60f4"><title>Expression 11</title><path fill="#388c46" stroke="none" paint-order="stroke fill markers" d="" fill-opacity="0.4"/><g><path fill="none" stroke="#388c46" class="dcg-svg-curve" paint-order="fill stroke markers" d=" M 0 200 L 11 200 M 18 200 L 29 200 M 36 200 L 47 200 M 54 200 L 65 200 M 72 200 L 83 200 M 90 200 L 100 200" stroke-linecap="round" stroke-linejoin="round" stroke-miterlimit="10" stroke-width="2.5" stroke-dasharray=""/></g></g><g id="sketch-d97b60f4"><title>Expression 12</title><path fill="#388c46" stroke="none" paint-order="stroke fill markers" d="" fill-opacity="0.4"/><g><path fill="none" stroke="#388c46" class="dcg-svg-curve" paint-order="fill stroke markers" d=" M 200 200 L 211 200 M 218 200 L 229 200 M 236 200 L 247 200 M 254 200 L 265 200 M 272 200 L 283 200 M 290 200 L 300 200" stroke-linecap="round" stroke-linejoin="round" stroke-miterlimit="10" stroke-width="2.5" stroke-dasharray=""/></g></g></g><g id="labels-d97b60f4"><g transform="rotate(0,0,0) translate(100,200)"><g class="dcg-svg-label"><g transform="translate(5,-23)"><g><text fill="none" stroke="#FFF" font-family="arial, sans-serif" font-size="15.4px" font-style="normal" font-weight="400" text-decoration="normal" x="0" y="13.822143505859374" text-anchor="start" stroke-linecap="round" stroke-linejoin="round" stroke-miterlimit="2" stroke-width="3" stroke-dasharray="">T/2</text></g></g><g transform="translate(5,-23)"><g><text fill="rgb(45, 112, 179)" stroke="none" font-family="arial, sans-serif" font-size="15.4px" font-style="normal" font-weight="400" text-decoration="normal" x="0" y="13.822143505859374" text-anchor="start">T/2</text></g></g></g></g><g transform="rotate(0,0,0) translate(200,200)"><g class="dcg-svg-label"><g transform="translate(5,5)"><g><text fill="none" stroke="#FFF" font-family="arial, sans-serif" font-size="15.4px" font-style="normal" font-weight="400" text-decoration="normal" x="0" y="13.822143505859374" text-anchor="start" stroke-linecap="round" stroke-linejoin="round" stroke-miterlimit="2" stroke-width="3" stroke-dasharray="">T</text></g></g><g transform="translate(5,5)"><g><text fill="rgb(45, 112, 179)" stroke="none" font-family="arial, sans-serif" font-size="15.4px" font-style="normal" font-weight="400" text-decoration="normal" x="0" y="13.822143505859374" text-anchor="start">T</text></g></g></g></g><g transform="rotate(0,0,0) translate(300,200)"><g class="dcg-svg-label"><g transform="translate(-35.80206298828125,5)"><g><text fill="none" stroke="#FFF" font-family="arial, sans-serif" font-size="15.4px" font-style="normal" font-weight="400" text-decoration="normal" x="0" y="13.822143505859374" text-anchor="start" stroke-linecap="round" stroke-linejoin="round" stroke-miterlimit="2" stroke-width="3" stroke-dasharray="">3T/2</text></g></g><g transform="translate(-35.80206298828125,5)"><g><text fill="rgb(45, 112, 179)" stroke="none" font-family="arial, sans-serif" font-size="15.4px" font-style="normal" font-weight="400" text-decoration="normal" x="0" y="13.822143505859374" text-anchor="start">3T/2</text></g></g></g></g><g transform="rotate(0,0,0) translate(400,200)"><g class="dcg-svg-label"><g transform="translate(-22.96875,-23)"><g><text fill="none" stroke="#FFF" font-family="arial, sans-serif" font-size="15.4px" font-style="normal" font-weight="400" text-decoration="normal" x="0" y="13.822143505859374" text-anchor="start" stroke-linecap="round" stroke-linejoin="round" stroke-miterlimit="2" stroke-width="3" stroke-dasharray="">2T</text></g></g><g transform="translate(-22.96875,-23)"><g><text fill="rgb(45, 112, 179)" stroke="none" font-family="arial, sans-serif" font-size="15.4px" font-style="normal" font-weight="400" text-decoration="normal" x="0" y="13.822143505859374" text-anchor="start">2T</text></g></g></g></g></g></g></svg>