<svg version="1.1" xmlns="http://www.w3.org/2000/svg" xmlns:xlink="http://www.w3.org/1999/xlink" width="800" height="800"><defs/><g transform="scale(2,2)"><g id="background-6882e799"><rect fill="white" stroke="none" x="0" y="0" width="400" height="400" class="dcg-svg-background"/></g><g id="background-images-6882e799"/><g id="graphpaper-6882e799"><g id="axis-6882e799"><g id="yaxis-6882e799"><title>Y axis</title><g><path fill="none" stroke="rgb(0,0,0)" class="dcg-svg-axis-line" paint-order="fill stroke markers" d=" M 25 0 L 25 400" stroke-opacity="0.9" stroke-miterlimit="10" stroke-width="1.5" stroke-dasharray=""/></g></g><g id="xaxis-6882e799"><title>X axis</title><g><path fill="none" stroke="rgb(0,0,0)" class="dcg-svg-axis-line" paint-order="fill stroke markers" d=" M 0 375 L 400 375" stroke-opacity="0.9" stroke-miterlimit="10" stroke-width="1.5" stroke-dasharray=""/></g></g><g><g><path fill="none" stroke="rgb(0,0,0)" class="dcg-svg-tickmark" paint-order="fill stroke markers" d="" stroke-opacity="0.9" stroke-miterlimit="2" stroke-width="1.5" stroke-dasharray=""/></g></g></g></g><g id="expressions-6882e799"><g id="sketch-6882e799"><title>Expression 1</title><path fill="#000000" stroke="none" paint-order="stroke fill markers" d="" fill-opacity="0.4"/><g><path fill="none" stroke="#000000" class="dcg-svg-curve" paint-order="fill stroke markers" d=" M 25 250 L 25 250 L 29.00390625 249.87161815803447 L 33.0078125 249.48488547971533 L 37.01171875 248.83499119986743 L 40.91796875 247.9395327425766 L 44.82421875 246.77488478209557 L 48.6328125 245.3662911846546 L 52.34375 243.71794871794873 L 56.0546875 241.77733861713838 L 59.66796875 239.58384990495082 L 63.18359375 237.13572495538597 L 66.6015625 234.42986730948218 L 70.01953125 231.36929921823662 L 73.33984375 228.01874943931102 L 76.66015625 224.2520383730114 L 79.8828125 220.14833398358934 L 83.10546875 215.54501216545015 L 86.1328125 210.70312324512003 L 88.96484375 205.656330749354 L 91.69921875 200.24270187753166 L 94.3359375 194.4481177818919 L 96.87500000000001 188.25863678804856 L 99.21875 181.93815987933635 L 101.5625 174.94998749687417 L 103.80859374999999 167.5342728721341 L 105.95703125 159.68373847064476 L 108.0078125 151.39480292608363 L 110.05859375000001 142.2089742759096 L 112.01171875 132.49509484096873 L 113.8671875 122.25410341848698 L 115.72265624999999 110.86428996116643 L 117.48046875 98.83699370677368 L 119.23828125 85.39700215646764 L 120.8984375 71.1766922424178 L 122.55859374999999 55.199375701711006 L 124.12109375 38.25481974760555 L 125.68359375 19.09781054116951 L 127.1484375 -1.2741509947011878 L 127.41530189054704 -5.5 L 169.0850814218875 -5.5 L 170.3125 19.286349488661756 L 171.77734375 45.001562980878646 L 173.2421875 67.45739754086077 L 174.8046875 88.46865223936567 L 176.46484375000003 108.0556138482616 L 178.125 125.31210986267183 L 179.8828125 141.47555975169783 L 181.640625 155.8256707933084 L 183.49609375 169.32154732864072 L 185.3515625 181.3840327331994 L 187.3046875 192.76830236224947 L 189.35546875 203.488496251117 L 191.40624999999997 213.13040619151187 L 193.5546875 222.24124247767543 L 195.80078124999997 230.83566391970714 L 198.04687500000003 238.61069377404135 L 200.390625 245.9690426507797 L 202.83203125000003 252.9238227964148 L 205.37109375000003 259.49015205224566 L 208.0078125 265.6844816800429 L 210.83984374999997 271.7226069069782 L 213.76953125 277.3873629764991 L 216.89453125 282.8649916210228 L 220.21484375000003 288.13203548861753 L 223.73046875 293.1724651144207 L 227.53906250000003 298.0964493690755 L 231.4453125 302.6477462696902 L 235.44921875 306.86109378249114 L 239.6484375 310.85575563047405 L 243.9453125 314.5542836769412 L 248.4375 318.0564452985978 L 253.12499999999997 321.36631804773396 L 258.10546875 324.54880918684654 L 263.37890625 327.5934814648151 L 268.9453125 330.4937799949757 L 274.8046875 333.2463806054438 L 281.05468750000006 335.8897878805703 L 287.79296875 338.44868118094314 L 295.01953125 340.905449218181 L 302.734375 343.2477469543884 L 311.03515625000006 345.49263893637493 L 320.01953125 347.6497224040306 L 329.78515625 349.72304267424283 L 340.4296875 351.7127181761328 L 352.05078125000006 353.6163281666916 L 364.84375 355.44308632543925 L 378.90625 357.183520870335 L 394.53125000000006 358.84890652049927 L 400 359.375" stroke-linecap="round" stroke-linejoin="round" stroke-miterlimit="10" stroke-width="2.5" stroke-dasharray=""/></g></g><g id="sketch-6882e799"><title>Expression 3</title><path fill="#fad201" stroke="none" paint-order="stroke fill markers" d="" fill-opacity="0.4"/><g><path fill="none" stroke="#fad201" class="dcg-svg-curve" paint-order="fill stroke markers" d=" M 25 250 L 25 250 L 29.19921875 249.87009527304866 L 33.3984375 249.47890471902969 L 37.59765625 248.82196221977603 L 41.69921875 247.91651248052648 L 45.80078125 246.74023583565688 L 49.8046875 245.31800092140483 L 53.7109375 243.65454196092654 L 57.6171875 241.70057165566175 L 61.42578125 239.49517060999332 L 65.13671875 237.03827121500916 L 68.84765625 234.25112844363915 L 72.4609375 231.19103054810495 L 76.07421875 227.7562189906348 L 79.58984375 224.01846100474546 L 83.10546875 219.84958321342475 L 86.62109375 215.20314246258096 L 90.0390625 210.17751077196795 L 93.26171875 204.9299860313795 L 96.38671875 199.31966252144701 L 99.41406249999999 193.34518664373846 L 102.34374999999999 187.00955100471495 L 105.27343749999999 180.08039386227762 L 108.10546875 172.77262772685532 L 110.9375 164.82435153149217 L 113.76953125 156.20230977437583 L 116.69921875 146.55444946268543 L 119.7265625 135.81645424770073 L 123.046875 123.2192189389311 L 127.34374999999999 105.99570740195463 L 133.10546875 82.95634520478524 L 135.44921875 74.46532807658605 L 137.3046875 68.50048003436393 L 138.8671875 64.18044318767892 L 140.234375 61.045106842788186 L 141.40625 58.90879200294495 L 142.48046875 57.44480165529666 L 143.45703125 56.55496329304947 L 144.3359375 56.13227998113496 L 145.1171875 56.06803053113765 L 145.80078125 56.25761430835689 L 146.58203125 56.7587891583878 L 147.4609375 57.686998417237646 L 148.4375 59.168378901384074 L 149.51171875 61.3345658337434 L 150.68359375 64.31518338520328 L 151.953125 68.22815717550498 L 153.32031249999997 73.1685403747536 L 154.8828125 79.62326815502405 L 156.73828125 88.21033360415908 L 159.08203125 100.10697500228184 L 162.59765625 119.151052327522 L 168.84765625 153.00575692948075 L 172.07031250000003 169.27145973286932 L 175.00000000000003 183.03277598939033 L 177.83203125 195.34305394311662 L 180.56640625 206.3061883716984 L 183.30078125 216.39835065188072 L 186.03515625 225.6720933142479 L 188.76953125 234.18808574104943 L 191.6015625 242.27656377202777 L 194.43359375 249.68828118169506 L 197.36328125 256.7123190170324 L 200.390625 263.35266639204855 L 203.51562499999997 269.61779718098694 L 206.73828125 275.51950824318544 L 210.15625000000003 281.2277649165841 L 213.76953125 286.7165566874858 L 217.578125 291.96754889591284 L 221.58203124999997 296.96910395354683 L 225.68359375 301.6101931175252 L 229.8828125 305.9193359570121 L 234.17968750000003 309.9229967851659 L 238.671875 313.72442575224466 L 243.359375 317.32461902399234 L 248.24218750000003 320.72681482824964 L 253.3203125 323.93598869875564 L 258.69140625 327.0116690623727 L 264.35546875 329.94598087133903 L 270.41015625 332.7778194133969 L 276.7578125 335.45354044106756 L 283.59375 338.04517595922806 L 290.91796875 340.5346322109972 L 298.73046875 342.9090771637871 L 307.12890625 345.18519860910607 L 316.21093750000006 347.37233405844637 L 326.07421875 349.4743347350378 L 336.81640625 351.4911638663909 L 348.53515625 353.42027290043563 L 361.328125 355.25776772182513 L 375.39062499999994 357.010690202689 L 390.91796875000006 358.6801304104406 L 400 359.54786948643283" stroke-linecap="round" stroke-linejoin="round" stroke-miterlimit="10" stroke-width="2.5" stroke-dasharray=""/></g></g><g id="sketch-6882e799"><title>Expression 4</title><path fill="#fa7e19" stroke="none" paint-order="stroke fill markers" d="" fill-opacity="0.4"/><g><path fill="none" stroke="#fa7e19" class="dcg-svg-curve" paint-order="fill stroke markers" d=" M 25 250 L 25 250 L 29.8828125 249.87024405212168 L 34.765625 249.480306373857 L 39.6484375 248.82821632334998 L 44.53125 247.91082503217564 L 49.4140625 246.72403031733887 L 54.296875 245.26313705286736 L 59.1796875 243.52340381151717 L 64.0625 241.50084859365438 L 68.9453125 239.19341349835042 L 73.92578125 236.54795170691094 L 79.1015625 233.49503103730018 L 84.5703125 229.95557263818665 L 90.82031249999999 225.57432965028832 L 99.90234375 218.82325011072032 L 108.0078125 212.91242998922945 L 112.5 209.9682184199137 L 116.015625 207.9692136065308 L 119.04296875000001 206.54054714682928 L 121.77734375 205.5377194531325 L 124.21875 204.9116789336219 L 126.5625 204.5796754847885 L 128.80859375 204.53212359845367 L 130.95703125 204.75206940897326 L 133.10546875 205.2447906403425 L 135.25390625 206.01933895757733 L 137.40234375 207.0803073686692 L 139.6484375 208.49547439150072 L 141.9921875 210.29914939808444 L 144.53125 212.61439447160566 L 147.265625 215.4992800456416 L 150.39062499999997 219.24149862828668 L 154.00390625 224.0678428597176 L 158.30078125 230.3392101827991 L 164.16015625 239.46014986545617 L 178.515625 261.9999683159788 L 184.27734375 270.3981867506036 L 189.64843750000003 277.70499436726044 L 194.82421875 284.23508137667216 L 199.90234375000003 290.1524145646698 L 204.8828125 295.4998861876785 L 209.86328125 300.4198701773472 L 214.84374999999997 304.94128289425464 L 219.921875 309.17294393792326 L 225.09765624999997 313.1264580163591 L 230.46875000000003 316.88080783827206 L 235.9375 320.37438258301825 L 241.69921875 323.7327612417021 L 247.65625 326.8942792806984 L 253.90625000000003 329.909411518511 L 260.44921875 332.7726708071635 L 267.3828125 335.51843394376255 L 274.70703125 338.136103717932 L 282.51953125000006 340.64875292855874 L 290.91796875 343.07042448747126 L 299.90234375 345.3843158676375 L 309.57031250000006 347.59999686972 L 320.01953125 349.72192900309904 L 331.34765625 351.7509257860451 L 343.65234375 353.68542485705694 L 357.12890624999994 355.53508197825664 L 371.87500000000006 357.291628598479 L 388.18359375 358.96675986036036 L 400 360.0339642934195" stroke-linecap="round" stroke-linejoin="round" stroke-miterlimit="10" stroke-width="2.5" stroke-dasharray=""/></g></g><g id="sketch-6882e799"><title>Expression 5</title><path fill="#c74440" stroke="none" paint-order="stroke fill markers" d="" fill-opacity="0.4"/><g><path fill="none" stroke="#c74440" class="dcg-svg-curve" paint-order="fill stroke markers" d=" M 25 250 L 25 250 L 29.00390625 250.12811867218755 L 33.10546875 250.52338829226963 L 37.20703125 251.18083160774475 L 41.40625 252.11685419146733 L 45.80078125 253.3681134407392 L 50.390625 254.95310668229777 L 55.2734375 256.9256269818392 L 60.44921875 259.30483191152933 L 66.11328125 262.20237095328866 L 72.55859375 265.80646992992524 L 80.17578125 270.3834365621608 L 90.4296875 276.8828151200115 L 119.04296875000001 295.1798758968559 L 129.00390625 301.1349803886209 L 138.18359375 306.31391319192096 L 146.97265625 310.96800401200477 L 155.6640625 315.2679309954606 L 164.2578125 319.22469604093385 L 172.94921875 322.93606406304616 L 181.8359375 326.4419926233558 L 190.91796875 329.74034149384715 L 200.29296875 332.86376705740753 L 210.05859375 335.83699450704427 L 220.21484375000003 338.6518593547034 L 230.859375 341.32722049619997 L 242.08984374999997 343.8759901211663 L 253.90625000000003 346.287315274251 L 266.50390625 348.58826503918107 L 279.8828125 350.7647476480682 L 294.23828125000006 352.83417604231596 L 309.765625 354.80566104117594 L 326.5625 356.6719741574836 L 344.82421875 358.43581479332175 L 364.84375 360.1041545443966 L 386.9140625 361.6777997241368 L 400 362.5" stroke-linecap="round" stroke-linejoin="round" stroke-miterlimit="10" stroke-width="2.5" stroke-dasharray=""/></g></g><g id="sketch-6882e799"><title>Expression 6</title><path fill="#000000" stroke="none" paint-order="stroke fill markers" d="" fill-opacity="0.4"/><g><path fill="none" stroke="#000000" class="dcg-svg-curve" paint-order="fill stroke markers" d=" M 150 375 L 150 364 M 150 357 L 150 346 M 150 339 L 150 328 M 150 321 L 150 310 M 150 303 L 150 292 M 150 285 L 150 274 M 150 267 L 150 256 M 150 249 L 150 238 M 150 231 L 150 220 M 150 213 L 150 202 M 150 195 L 150 184 M 150 177 L 150 166 M 150 159 L 150 148 M 150 141 L 150 130 M 150 123 L 150 112 M 150 105 L 150 94 M 150 87 L 150 76 M 150 69 L 150 58 M 150 51 L 150 40 M 150 33 L 150 22 M 150 15 L 150 4" stroke-linecap="round" stroke-linejoin="round" stroke-miterlimit="10" stroke-width="2.5" stroke-dasharray=""/></g></g><g id="sketch-6882e799"><title>"f" Subscript, 0 , Baseline</title></g><g id="sketch-6882e799"><title>Expression 8</title><path fill="#000000" stroke="none" paint-order="stroke fill markers" d="" fill-opacity="0.4"/><g><path fill="none" stroke="#000000" class="dcg-svg-curve" paint-order="fill stroke markers" d=" M 25 250 L 35.999870174398666 249.94655707367127 M 42.99978755810691 249.9125479387348 L 51.66015625 249.8704714925002 M 51.66015625 249.8704714925002 L 53.998414883584054 249.79338098734436 M 60.99461359481605 249.56272194686306 L 61.328125 249.55172634426737 M 61.328125 249.55172634426737 L 68.65234375 249.05995656099606 M 68.65234375 249.05995656099606 L 71.95865368377795 248.70230438234788 M 78.89272785152205 247.7574937917018 L 80.17578125 247.55758434436774 M 80.17578125 247.55758434436774 L 84.9609375 246.55338777576026 M 84.9609375 246.55338777576026 L 89.2578125 245.39264085701117 M 89.2578125 245.39264085701117 L 89.60002239040729 245.27712282106924 M 96.15923371641817 242.84333713327996 L 96.97265625 242.50709830786224 M 96.97265625 242.50709830786224 L 100.390625 240.80679930650342 M 100.390625 240.80679930650342 L 103.61328125 238.90203302217373 M 103.61328125 238.90203302217373 L 105.71347847746571 237.4402895855711 M 111.0859450669683 232.96675931181633 L 112.20703125 231.90665851552035 M 112.20703125 231.90665851552035 L 114.84375 229.01049288605444 M 114.84375 229.01049288605444 L 117.38281250000001 225.77229640068487 M 117.38281250000001 225.77229640068487 L 118.1804072434142 224.59083747477646 M 121.86895125737585 218.6459099794631 L 122.0703125 218.30025335595442 M 122.0703125 218.30025335595442 L 124.12109375 214.24225880988854 M 124.12109375 214.24225880988854 L 126.07421875 209.79742318012603 M 126.07421875 209.79742318012603 L 126.50288948006354 208.67854490019832 M 128.87561043529635 202.09461977852018 L 129.4921875 200.2543538300915 M 129.4921875 200.2543538300915 L 131.0546875 194.91939417316976 M 131.0546875 194.91939417316976 L 131.9187125032952 191.52759038035052 M 133.51461345749092 184.71285666770623 L 134.08203125 182.13773036365353 M 134.08203125 182.13773036365353 L 135.44921875 174.9547515021688 M 135.44921875 174.9547515021688 L 135.61957109208126 173.9174809820855 M 136.74904876602608 167.00926124913306 L 137.98828125 158.2013165416248 M 137.98828125 158.2013165416248 L 138.23828678481215 156.1109076769817 M 139.06953840007645 149.1604385739556 L 139.16015625 148.4027419216899 M 139.16015625 148.4027419216899 L 140.19365720806573 138.2181420196299 M 140.79484121059116 131.24405490692234 L 141.30859375 125.21905175763692 M 141.30859375 125.21905175763692 L 141.65888607634798 120.27832120038924 M 142.15393566465295 113.29584843602281 L 142.28515625 111.44503553776906 M 142.28515625 111.44503553776906 L 142.81612563929647 102.31592244188978 M 143.22257421110703 95.32773243599604 L 143.26171875 94.6547088496203 M 143.26171875 94.6547088496203 L 143.74654952456692 84.34025829008203 M 144.07522164692364 77.34797864493156 L 144.140625 75.95656603846737 M 144.140625 75.95656603846737 L 144.5035059434278 66.35637081935614 M 144.7679124275554 59.361366229568425 L 144.921875 55.28821006451085 M 144.921875 55.28821006451085 L 145.12811515756647 48.36734730523425 M 145.33662102831383 41.37045332991464 L 145.6642731109168 30.37533422584096 M 145.83394494692556 23.377415544779662 L 146.08659700752392 12.380317430446254 M 146.24737559154104 5.382164084961358 L 146.38671875 -0.6829769691235015 M 146.38671875 -0.6829769691235015 L 146.47147054535745 -5.5" stroke-linecap="round" stroke-linejoin="round" stroke-miterlimit="10" stroke-width="2.5" stroke-opacity="0.3" stroke-dasharray=""/></g></g><g id="sketch-6882e799"><title>No damping</title><path fill="none" stroke="#000000" class="dcg-svg-point" paint-order="fill stroke markers" d=" M 212.4 24.9 L 212.4 25.1 L 212.6 25.1 L 212.6 24.9" stroke-linecap="round" stroke-linejoin="round" stroke-miterlimit="10" stroke-width="7.5" stroke-dasharray=""/></g><g id="sketch-6882e799"><title>Light damping</title><path fill="none" stroke="#fad201" class="dcg-svg-point" paint-order="fill stroke markers" d=" M 212.4 49.9 L 212.4 50.1 L 212.6 50.1 L 212.6 49.9" stroke-linecap="round" stroke-linejoin="round" stroke-miterlimit="10" stroke-width="7.5" stroke-dasharray=""/></g><g id="sketch-6882e799"><title>Heavy daming</title><path fill="none" stroke="#fa7e19" class="dcg-svg-point" paint-order="fill stroke markers" d=" M 212.4 74.9 L 212.4 75.1 L 212.6 75.1 L 212.6 74.9" stroke-linecap="round" stroke-linejoin="round" stroke-miterlimit="10" stroke-width="7.5" stroke-dasharray=""/></g><g id="sketch-6882e799"><title>Very heavy damping</title><path fill="none" stroke="#c74440" class="dcg-svg-point" paint-order="fill stroke markers" d=" M 212.4 99.9 L 212.4 100.1 L 212.6 100.1 L 212.6 99.9" stroke-linecap="round" stroke-linejoin="round" stroke-miterlimit="10" stroke-width="7.5" stroke-dasharray=""/></g><g id="sketch-6882e799"><title>Maximum amplitude</title><path fill="none" stroke="#000000" class="dcg-svg-point" paint-order="fill stroke markers" d=" M 212.4 124.9 L 212.4 125.1 L 212.6 125.1 L 212.6 124.9" stroke-linecap="round" stroke-linejoin="round" stroke-miterlimit="10" stroke-width="7.5" stroke-opacity="0.4" stroke-dasharray=""/></g></g><g id="labels-6882e799"><g transform="rotate(0,0,0) translate(150,375)"><g class="dcg-svg-label"><g transform="translate(-1010.484375,-1000.6666870117188)"><g><text fill="none" stroke="#FFF" font-family="Symbola, &quot;Times New Roman&quot;, serif" font-size="17.71px" font-style="normal" font-weight="400" text-decoration="normal" x="0" y="13.962119999999999" text-anchor="start" stroke-linecap="round" stroke-linejoin="round" stroke-miterlimit="2" stroke-width="3" stroke-dasharray="">"f" Subscript, 0 , Baseline</text></g></g><g transform="translate(-6.713531494140625,-0.666656494140625)"><g><text fill="none" stroke="#FFF" font-family="&quot;Times New Roman&quot;, Symbola, serif" font-size="17.71px" font-style="italic" font-weight="400" text-decoration="normal" x="0" y="15.962119999999999" text-anchor="start" stroke-linecap="round" stroke-linejoin="round" stroke-miterlimit="2" stroke-width="3" stroke-dasharray="">f</text></g></g><g transform="translate(1.8697967529296875,11.302093505859375)"><g><text fill="none" stroke="#FFF" font-family="Symbola, &quot;Times New Roman&quot;, serif" font-size="12.7512px" font-style="normal" font-weight="400" text-decoration="normal" x="0" y="9.759382894140625" text-anchor="start" stroke-linecap="round" stroke-linejoin="round" stroke-miterlimit="2" stroke-width="3" stroke-dasharray="">0</text></g></g><g transform="translate(-1010.484375,-1000.6666870117188)"><g><text fill="rgb(0, 0, 0)" stroke="none" font-family="Symbola, &quot;Times New Roman&quot;, serif" font-size="17.71px" font-style="normal" font-weight="400" text-decoration="normal" x="0" y="13.962119999999999" text-anchor="start">"f" Subscript, 0 , Baseline</text></g></g><g transform="translate(-6.713531494140625,-0.666656494140625)"><g><text fill="rgb(0, 0, 0)" stroke="none" font-family="&quot;Times New Roman&quot;, Symbola, serif" font-size="17.71px" font-style="italic" font-weight="400" text-decoration="normal" x="0" y="15.962119999999999" text-anchor="start">f</text></g></g><g transform="translate(1.8697967529296875,11.302093505859375)"><g><text fill="rgb(0, 0, 0)" stroke="none" font-family="Symbola, &quot;Times New Roman&quot;, serif" font-size="12.7512px" font-style="normal" font-weight="400" text-decoration="normal" x="0" y="9.759382894140625" text-anchor="start">0</text></g></g></g></g><g transform="rotate(0,0,0) translate(212.5,25)"><g class="dcg-svg-label"><g transform="translate(10.5,-9)"><g><text fill="none" stroke="#FFF" font-family="arial, sans-serif" font-size="15.4px" font-style="normal" font-weight="400" text-decoration="normal" x="0" y="13.822135876464843" text-anchor="start" stroke-linecap="round" stroke-linejoin="round" stroke-miterlimit="2" stroke-width="3" stroke-dasharray="">No damping</text></g></g><g transform="translate(10.5,-9)"><g><text fill="rgb(0, 0, 0)" stroke="none" font-family="arial, sans-serif" font-size="15.4px" font-style="normal" font-weight="400" text-decoration="normal" x="0" y="13.822135876464843" text-anchor="start">No damping</text></g></g></g></g><g transform="rotate(0,0,0) translate(212.5,50)"><g class="dcg-svg-label"><g transform="translate(10.5,-9)"><g><text fill="none" stroke="#FFF" font-family="arial, sans-serif" font-size="15.4px" font-style="normal" font-weight="400" text-decoration="normal" x="0" y="13.822135876464843" text-anchor="start" stroke-linecap="round" stroke-linejoin="round" stroke-miterlimit="2" stroke-width="3" stroke-dasharray="">Light damping</text></g></g><g transform="translate(10.5,-9)"><g><text fill="rgb(250, 210, 1)" stroke="none" font-family="arial, sans-serif" font-size="15.4px" font-style="normal" font-weight="400" text-decoration="normal" x="0" y="13.822135876464843" text-anchor="start">Light damping</text></g></g></g></g><g transform="rotate(0,0,0) translate(212.5,75)"><g class="dcg-svg-label"><g transform="translate(10.5,-9)"><g><text fill="none" stroke="#FFF" font-family="arial, sans-serif" font-size="15.4px" font-style="normal" font-weight="400" text-decoration="normal" x="0" y="13.822135876464843" text-anchor="start" stroke-linecap="round" stroke-linejoin="round" stroke-miterlimit="2" stroke-width="3" stroke-dasharray="">Heavy daming</text></g></g><g transform="translate(10.5,-9)"><g><text fill="rgb(250, 126, 25)" stroke="none" font-family="arial, sans-serif" font-size="15.4px" font-style="normal" font-weight="400" text-decoration="normal" x="0" y="13.822135876464843" text-anchor="start">Heavy daming</text></g></g></g></g><g transform="rotate(0,0,0) translate(212.5,100)"><g class="dcg-svg-label"><g transform="translate(10.5,-9)"><g><text fill="none" stroke="#FFF" font-family="arial, sans-serif" font-size="15.4px" font-style="normal" font-weight="400" text-decoration="normal" x="0" y="13.822135876464843" text-anchor="start" stroke-linecap="round" stroke-linejoin="round" stroke-miterlimit="2" stroke-width="3" stroke-dasharray="">Very heavy damping</text></g></g><g transform="translate(10.5,-9)"><g><text fill="rgb(199, 68, 64)" stroke="none" font-family="arial, sans-serif" font-size="15.4px" font-style="normal" font-weight="400" text-decoration="normal" x="0" y="13.822135876464843" text-anchor="start">Very heavy damping</text></g></g></g></g><g transform="rotate(0,0,0) translate(212.5,125)"><g class="dcg-svg-label"><g transform="translate(10.5,-9)"><g><text fill="none" stroke="#FFF" font-family="arial, sans-serif" font-size="15.4px" font-style="normal" font-weight="400" text-decoration="normal" x="0" y="13.822143505859374" text-anchor="start" stroke-linecap="round" stroke-linejoin="round" stroke-miterlimit="2" stroke-width="3" stroke-opacity="0.4" stroke-dasharray="">Maximum amplitude</text></g></g><g transform="translate(10.5,-9)"><g><text fill="rgb(0, 0, 0)" stroke="none" font-family="arial, sans-serif" font-size="15.4px" font-style="normal" font-weight="400" text-decoration="normal" x="0" y="13.822143505859374" text-anchor="start" fill-opacity="0.4">Maximum amplitude</text></g></g></g></g></g></g></svg>